<svg width="180" height="46" viewBox="0 0 180 46" fill="none" xmlns="http://www.w3.org/2000/svg">
<g id="8th">
<g id="Group">
<path id="Path" d="M158.416 23.9388L179.566 0.779405L178.78 0L155.467 20.9604C156.675 21.7119 157.686 22.7419 158.416 23.9388Z" fill="#25A9E0"/>
<path id="Shape" fill-rule="evenodd" clip-rule="evenodd" d="M151.029 0.0559082L152.658 22.0462C154.876 22.7421 156.618 24.468 157.292 26.6948L179.426 28.3093V29.395L157.292 31.0094C157.183 31.3633 157.019 31.717 156.854 32.0709L156.843 32.095L166.084 43.5356L165.298 44.3149L153.754 35.1569C153.388 35.3518 152.995 35.5188 152.574 35.6302L150.972 45.2057H149.877L148.276 35.6023C148.233 35.5859 148.19 35.5694 148.146 35.5529C147.819 35.4295 147.478 35.3009 147.181 35.1292L139.26 40.752L138.474 39.9726L144.148 32.1229C143.951 31.761 143.782 31.3713 143.671 30.9816L133.951 29.3671V28.2815L143.671 26.6671C143.782 26.3052 143.951 25.9433 144.12 25.5814L134.878 14.1409L135.665 13.3615L147.209 22.5195C147.546 22.3246 147.883 22.1855 148.249 22.0741L149.905 0.0559082H151.029ZM146.367 28.8104C146.367 31.0929 148.22 32.93 150.495 32.93C152.798 32.93 154.653 31.0929 154.624 28.8104C154.624 26.5557 152.771 24.7185 150.495 24.7185C148.22 24.7185 146.367 26.5557 146.367 28.8104Z" fill="#282828"/>
</g>
<g id="Group_2">
<path id="Shape_2" fill-rule="evenodd" clip-rule="evenodd" d="M39.1262 28.1419C39.1824 28.5316 39.2105 28.9491 39.2105 29.3945H39.2666V36.6319H43.5921V28.1419C43.5921 27.3346 43.5079 26.6387 43.3394 26.0263C43.1709 25.414 42.9461 24.8851 42.6652 24.4119C42.1878 23.6324 41.5417 23.0479 40.7271 22.686C39.9407 22.3242 39.07 22.1572 38.115 22.1572C37.3004 22.1572 36.5982 22.2685 35.9803 22.4912C35.3624 22.7418 34.7164 23.0758 34.0985 23.5212H33.8737V13.8064H32.3851L29.5202 14.4744V36.6319H33.8457V26.9171C34.1828 26.6387 34.5759 26.3882 35.0253 26.1935C35.4748 25.9986 35.9523 25.8872 36.4578 25.8872C37.1039 25.8872 37.6376 25.9986 38.0026 26.1935C38.3678 26.4161 38.6487 26.7222 38.8453 27.1398C38.9857 27.4181 39.07 27.7522 39.1262 28.1419ZM7.19046 36.8545C6.1793 36.8545 5.2524 36.7433 4.38168 36.5205C3.51096 36.2979 2.7526 35.936 2.10658 35.4627C1.46056 34.9896 0.954982 34.405 0.561755 33.6812C0.196614 32.9576 0 32.0947 0 31.1203C0 30.5637 0.0842631 30.0348 0.252789 29.5338C0.421316 29.0327 0.646018 28.5873 0.926894 28.1698C1.20777 27.7523 1.51673 27.3625 1.88188 27.0285C2.24701 26.6945 2.61216 26.3882 2.9773 26.1656L3.51096 25.8316C3.11773 25.581 2.72451 25.3027 2.35936 24.9965C1.99423 24.6625 1.65717 24.3006 1.37629 23.8831C1.09542 23.4656 0.870719 22.9923 0.702193 22.4634C0.533667 21.9345 0.449404 21.3499 0.449404 20.7375C0.449404 19.8469 0.646018 19.0118 1.03925 18.3159C1.43247 17.5365 1.96614 16.9241 2.61216 16.4508C3.25817 15.9498 4.01654 15.588 4.85917 15.3096C5.70181 15.0591 6.60062 14.9198 7.49943 14.9198C8.48249 14.9198 9.38129 15.0312 10.252 15.2539C11.1227 15.4766 11.853 15.8106 12.499 16.256C13.145 16.7014 13.6507 17.2581 14.0157 17.9261C14.3809 18.5942 14.5775 19.4015 14.5775 20.32C14.5775 20.8768 14.5214 21.3778 14.3809 21.8232C14.2405 22.2686 14.072 22.6861 13.8192 23.0479C13.5944 23.4377 13.3135 23.7717 12.9765 24.0778C12.6676 24.3841 12.3024 24.6902 11.9373 24.9686L11.3194 25.4419C11.7968 25.6924 12.2181 25.9986 12.6395 26.3047C13.0327 26.6389 13.3698 27.0285 13.6787 27.446C13.9596 27.8914 14.1843 28.3646 14.3529 28.9214C14.5214 29.478 14.6056 30.1183 14.6056 30.8142C14.6056 31.7884 14.409 32.6513 14.0157 33.403C13.6225 34.1545 13.0889 34.7669 12.4148 35.2957C11.7407 35.7969 10.9542 36.1865 10.0554 36.437C9.12851 36.7433 8.17353 36.8545 7.19046 36.8545ZM6.15121 27.0285L5.7018 27.4739C5.2524 27.9193 4.85917 28.4203 4.55021 28.9492C4.24124 29.478 4.1008 30.1183 4.1008 30.8698C4.1008 31.2874 4.18507 31.6771 4.32551 31.9833C4.46595 32.3173 4.69065 32.5678 4.97152 32.7906C5.2524 33.0132 5.56137 33.1802 5.95459 33.2916C6.31974 33.403 6.74105 33.4586 7.19046 33.4586C7.63986 33.4586 8.06118 33.403 8.4544 33.2916C8.84763 33.1802 9.1566 33.0411 9.43747 32.8183C9.71835 32.5957 9.91497 32.3452 10.0554 32.0111C10.1958 31.6771 10.2801 31.2874 10.2801 30.842C10.2801 30.1183 10.0835 29.5059 9.71835 29.0327C9.35321 28.5595 8.84763 28.1698 8.2297 27.9193L6.15121 27.0285ZM5.36475 22.3521C4.99961 21.9067 4.80299 21.3499 4.80299 20.6819C4.80299 20.2923 4.85917 19.9582 4.99961 19.6798C5.14005 19.3736 5.30858 19.1231 5.56137 18.9283C5.81415 18.7334 6.09503 18.5942 6.43209 18.4829C6.76914 18.3994 7.13428 18.3436 7.5275 18.3436C7.94882 18.3436 8.34206 18.3994 8.70719 18.4829C9.07232 18.5664 9.40938 18.6777 9.66217 18.8725C9.91497 19.0396 10.1397 19.2901 10.2801 19.5685C10.4205 19.8747 10.5048 20.2087 10.5048 20.5984C10.5048 21.2108 10.3925 21.7675 10.1958 22.2407C9.97114 22.7139 9.66217 23.1872 9.24085 23.6326L8.6791 24.2171L6.8534 23.4098C6.23547 23.1314 5.7299 22.7696 5.36475 22.3521ZM16.0096 22.38H18.2847V19.2067L21.1498 18.5387H22.6384V22.38H26.8516V25.7759H22.6384V31.538C22.6384 32.1504 22.7788 32.6236 23.0878 32.9576C23.3686 33.2916 23.8461 33.4586 24.4922 33.4586C24.8854 33.4586 25.2787 33.403 25.6437 33.2916C26.0088 33.1803 26.3459 33.0411 26.6268 32.9019H26.8516V36.1866C26.6268 36.2979 26.3459 36.4093 26.037 36.4928C25.6999 36.5763 25.3629 36.6598 25.0258 36.7154C24.6887 36.7712 24.3237 36.8268 23.9585 36.8547L23.799 36.867L23.7989 36.867C23.5019 36.8901 23.2425 36.9103 23.0036 36.9103C22.3014 36.9103 21.6553 36.8268 21.0655 36.6598C20.5037 36.4928 19.9981 36.2423 19.5769 35.8804C19.1554 35.5185 18.8465 35.1009 18.6218 34.572C18.3971 34.0433 18.2847 33.4308 18.2847 32.7349V25.7759H16.0096V22.38Z" fill="#282828"/>
<path id="Path_2" d="M55.7258 36.6314V15.8381H60.3883V33.0137H68.4775V36.6314H55.7258Z" fill="#282828"/>
<path id="Shape_3" fill-rule="evenodd" clip-rule="evenodd" d="M103.616 29.3945C103.616 28.9491 103.588 28.5316 103.531 28.1419C103.475 27.7522 103.391 27.4181 103.251 27.1398C103.054 26.7222 102.773 26.4161 102.408 26.1935C102.043 25.9986 101.509 25.8872 100.863 25.8872C100.358 25.8872 99.8801 25.9986 99.4307 26.1935C98.9813 26.3882 98.588 26.6387 98.251 26.9171V36.6319H93.9254V14.4744L96.7905 13.8064H98.2791V23.5212H98.5037C99.1217 23.0758 99.7677 22.7418 100.386 22.4912C101.004 22.2685 101.706 22.1572 102.52 22.1572C103.475 22.1572 104.346 22.3242 105.133 22.686C105.947 23.0479 106.593 23.6324 107.071 24.4119C107.351 24.8851 107.576 25.414 107.745 26.0263C107.913 26.6387 107.997 27.3346 107.997 28.1419V36.6319H103.672V29.3945H103.616ZM72.4941 18.7615C71.764 18.7615 71.174 18.5668 70.809 18.2049C70.4157 17.843 70.2191 17.342 70.2191 16.7017C70.2191 16.0894 70.4157 15.5882 70.809 15.2265C71.2021 14.8646 71.764 14.6697 72.4941 14.6697C73.2245 14.6697 73.8143 14.8646 74.1794 15.2265C74.5727 15.5882 74.7692 16.0894 74.7692 16.7017C74.7692 17.342 74.5727 17.843 74.1794 18.2049C73.7863 18.5945 73.2245 18.7615 72.4941 18.7615ZM70.2191 22.603L73.0841 21.9348H74.5727V36.6323H70.2191V22.603ZM80.1624 43.6467C80.977 43.7858 81.8477 43.8693 82.7464 43.8693C83.9261 43.8693 85.0216 43.7302 86.0608 43.3961C87.1 43.1456 87.9989 42.7559 88.7853 42.2827C89.5718 41.8094 90.1897 41.2528 90.6391 40.5847C91.0885 39.9167 91.3132 39.1929 91.3132 38.4135C91.3132 37.8011 91.2289 37.2723 91.0323 36.799C90.8356 36.3259 90.5829 35.9361 90.2177 35.6021C89.8527 35.296 89.4313 35.0176 88.9257 34.8227C88.4202 34.6278 87.8304 34.4887 87.1843 34.433L83.9822 34.099C83.4767 34.0433 83.0835 33.932 82.8588 33.7927C82.606 33.6536 82.4936 33.4031 82.4936 33.0691C82.4936 32.9021 82.5217 32.7072 82.5779 32.5679L82.5784 32.5666C82.6345 32.4279 82.6905 32.2893 82.7745 32.1783H83.4206C84.3755 32.1783 85.2744 32.0669 86.0888 31.8443C86.9034 31.6216 87.6056 31.2875 88.1954 30.8422C88.7572 30.4247 89.2066 29.8958 89.5436 29.2834C89.8527 28.671 90.0212 27.975 90.0212 27.2235C90.0212 26.806 89.9649 26.4162 89.8807 26.0266C89.7964 25.6647 89.656 25.3028 89.4875 24.9688H92.1839V22.38H90.8076L87.9426 22.9368H87.6056L87.4089 23.0203C86.8753 22.7419 86.2575 22.5192 85.5833 22.38C84.9092 22.2409 84.1789 22.1574 83.3924 22.1574C82.4093 22.1574 81.5106 22.2687 80.6961 22.4914C79.8815 22.7141 79.2074 23.0482 78.6175 23.4934C78.0277 23.9388 77.5783 24.4677 77.2694 25.108C76.9603 25.7482 76.7918 26.472 76.7918 27.2514C76.7918 28.4483 77.157 29.4504 77.8592 30.2575C78.5613 31.0648 79.5444 31.6216 80.7803 31.9278V32.1227C80.5837 32.1783 80.387 32.2618 80.1624 32.4009C79.9376 32.5402 79.7411 32.7072 79.5726 32.9021C79.3759 33.0968 79.2354 33.3196 79.1232 33.5701C79.0108 33.8206 78.9546 34.099 78.9546 34.3773C78.9546 34.8227 79.0389 35.1846 79.2074 35.5186C79.3759 35.8526 79.6006 36.131 79.8815 36.3536V36.4094C79.3759 36.4929 78.8984 36.632 78.421 36.8269C77.9434 37.0217 77.5503 37.2723 77.1851 37.5785C76.8481 37.8846 76.5672 38.2465 76.3424 38.664C76.1459 39.0538 76.0335 39.4991 76.0335 40.0002C76.0335 40.6961 76.202 41.2807 76.5672 41.7538C76.9323 42.2548 77.4097 42.6446 78.0277 42.9507C78.6456 43.2848 79.3478 43.5075 80.1624 43.6467ZM82.0723 37.1609C82.0162 37.1609 81.9319 37.1609 81.8477 37.1331L81.2577 37.5228C80.9207 37.7455 80.6398 38.0238 80.4433 38.3579C80.2466 38.6919 80.1342 39.0538 80.1342 39.4434C80.1342 39.8053 80.2185 40.1393 80.359 40.3899C80.5275 40.6682 80.7241 40.8909 81.005 41.0579C81.2577 41.2249 81.5668 41.3642 81.9038 41.4477C82.2408 41.5312 82.606 41.5868 82.9711 41.5868C83.561 41.5868 84.1228 41.5312 84.6002 41.3919C85.0777 41.2528 85.499 41.0858 85.8642 40.8631C86.2293 40.6404 86.4821 40.362 86.6787 40.0837C86.8753 39.7774 86.9596 39.4713 86.9596 39.1094C86.9596 38.8589 86.9315 38.664 86.8753 38.4692C86.8191 38.3021 86.7349 38.1351 86.6225 37.996C86.4821 37.8568 86.3136 37.7733 86.0888 37.6898C85.8642 37.6063 85.5833 37.5506 85.2462 37.4949L82.269 37.1609C82.2332 37.1786 82.1973 37.1738 82.1542 37.1679C82.1297 37.1646 82.1029 37.1609 82.0723 37.1609ZM85.2744 29.0329C84.8529 29.4225 84.2351 29.6174 83.4206 29.6174C82.6341 29.6174 82.0162 29.4225 81.5668 29.0329C81.1455 28.6431 80.9207 28.0586 80.9207 27.2514C80.9207 26.4441 81.1455 25.8596 81.5668 25.4698C81.9881 25.0801 82.606 24.8853 83.4206 24.8853C84.207 24.8853 84.8529 25.0801 85.2744 25.4698C85.6957 25.8596 85.9203 26.4441 85.9203 27.2514C85.9203 28.0586 85.6957 28.6431 85.2744 29.0329ZM112.042 22.38H109.767V25.7759H112.042V32.7349C112.042 33.4308 112.154 34.0433 112.379 34.572C112.603 35.1009 112.912 35.5185 113.334 35.8804C113.755 36.2423 114.261 36.4928 114.822 36.6598C115.412 36.8268 116.058 36.9103 116.76 36.9103C117 36.9103 117.259 36.8901 117.556 36.867C117.608 36.8629 117.661 36.8588 117.715 36.8547C118.038 36.83 118.339 36.7837 118.657 36.7347C118.698 36.7283 118.74 36.7219 118.783 36.7154C119.12 36.6598 119.457 36.5763 119.794 36.4928C120.103 36.4093 120.384 36.2979 120.608 36.1866V32.9019H120.384C120.103 33.0411 119.766 33.1803 119.401 33.2916C119.035 33.403 118.642 33.4586 118.249 33.4586C117.603 33.4586 117.126 33.2916 116.845 32.9576C116.536 32.6236 116.395 32.1504 116.395 31.538V25.7759H120.608V22.38H116.395V18.5387H114.907L112.042 19.2067V22.38Z" fill="#282828"/>
</g>
</g>
</svg>
