<svg width="110" height="52" viewBox="0 0 110 52" fill="none" xmlns="http://www.w3.org/2000/svg">
<g id="bilue">
<path id="Path" d="M42.8652 51.5264V13.1074H50.1368V51.5264H42.8652Z" fill="#03A1FF"/>
<path id="Path_2" d="M66.9726 51.5262C60.1642 51.5262 54.6758 46.0146 54.6758 39.2294V23.8525H61.9474V39.9473C61.9474 42.6567 64.2632 44.8799 66.9726 44.8799C69.6821 44.8799 71.9979 42.6799 71.9979 39.9473V23.8525H79.2695V39.2294C79.2695 46.0378 73.7579 51.5262 66.9726 51.5262Z" fill="#03A1FF"/>
<path id="Shape" fill-rule="evenodd" clip-rule="evenodd" d="M7.29474 25.7748C9.19368 24.7558 11.3705 24.1769 13.6863 24.1769C21.2358 24.1769 27.3726 30.2906 27.3726 37.8632C27.3726 45.4358 21.2589 51.5495 13.6863 51.5495C6.11368 51.5495 0 45.4127 0 37.8632V37.6548V14.8442H7.29474V25.7748ZM6.27579 37.8632C6.27579 41.9621 9.58737 45.2737 13.6863 45.2737C17.7621 45.2737 21.0968 41.9621 21.0968 37.8632C21.0968 33.7642 17.7853 30.4527 13.6863 30.4527C9.58737 30.4527 6.27579 33.7642 6.27579 37.8632Z" fill="#03A1FF"/>
<g id="Group">
<path id="Path_3" d="M31.0547 51.5262V23.8525H38.3263V51.5262H31.0547Z" fill="#03A1FF"/>
<g id="Group_2">
<path id="Path_4" opacity="0.5" d="M31.0779 0C35.1537 0.347368 38.3495 3.79789 38.3495 7.96632V18.6189L32.9305 13.2C31.0547 11.3242 31.101 7.73474 31.101 7.73474L31.0779 0Z" fill="#03A1FF"/>
<path id="Path_5" d="M18.4337 12.6443C18.781 16.7201 22.2315 19.9159 26.4 19.9159H37.0526L31.6337 14.4969C29.7579 12.6211 26.1684 12.6674 26.1684 12.6674L18.4337 12.6443Z" fill="#03A1FF"/>
</g>
</g>
<path id="Shape_2" fill-rule="evenodd" clip-rule="evenodd" d="M97.1242 45.9684C99.3937 45.9684 101.385 44.6947 102.566 42.7958L109.166 44.9031C106.688 48.9095 102.196 51.5958 97.0779 51.5958H96.3832C88.9726 51.5958 82.9747 45.3895 82.9747 37.7473C82.9747 30.1052 88.9726 23.8989 96.3832 23.8989C103.794 23.8989 109.792 30.1052 109.792 37.7473C109.792 38.4884 109.745 39.2063 109.629 39.901L90.6168 39.8779C91.1263 43.3284 93.8358 45.9684 97.1242 45.9684ZM102.335 35.0147C101.872 32.0737 99.3937 29.8042 96.3832 29.8042C93.3958 29.8042 90.8947 32.0505 90.4316 35.0147H102.335Z" fill="#03A1FF"/>
</g>
</svg>
