<svg width="110" height="80" viewBox="0 0 110 80" fill="none" xmlns="http://www.w3.org/2000/svg">
<g id="ffw">
<path id="Path" d="M106.348 34.1572C105.147 34.1572 104.001 34.9492 103.622 36.0404C103.55 36.2494 101.248 44.9526 100.34 48.3824L96.3776 34.1572H90.3848L86.4204 48.356L82.6408 34.1572H47.4166V53.163C47.4166 54.7492 48.708 56.0384 50.292 56.0384H53.1674V47.9424H60.7112V42.6734H53.1674V39.4064H63.426V56.0362H69.179V47.9402H76.7228V42.6712H69.179V39.4042H78.2188L83.0654 56.034H89.6104L93.3438 43.2652L97.0772 56.034H103.622L110 34.1572H106.348Z" fill="#1F1F1F"/>
<g id="Group">
<path id="Path_2" d="M49.2624 0.0131836H36.4782L2.97437 68.6796H5.12817L33.5038 10.5226H37.5738L39.7078 6.14678H46.2704L49.2624 0.0131836Z" fill="#71CDE5"/>
<path id="Path_3" d="M9.1982 68.6797H5.1282L0 79.1869H12.7864L14.9204 74.8133H6.204L9.1982 68.6797Z" fill="#FFDA74"/>
<path id="Path_4" d="M37.5738 10.5227H33.5038L5.12817 68.6797H9.19817L37.5738 10.5227Z" fill="#65B96D"/>
<path id="Path_5" d="M52.4942 6.14673H46.2704L44.1342 10.5225H46.2902L14.9204 74.8131H18.9904L52.4942 6.14673Z" fill="#ED2E73"/>
<path id="Path_6" d="M46.2705 6.14673H39.7079L37.5739 10.5225H44.1343L46.2705 6.14673Z" fill="#64256B"/>
<path id="Path_7" d="M46.2902 10.5227H44.1342L15.7586 68.6797H9.19818L6.20398 74.8133H14.9204L46.2902 10.5227Z" fill="#ED2B39"/>
<path id="Path_8" d="M44.1342 10.5227H37.5738L9.19824 68.6797H15.7586L44.1342 10.5227Z" fill="#641C31"/>
</g>
</g>
</svg>
