<svg width="128" height="24" viewBox="0 0 128 24" fill="none" xmlns="http://www.w3.org/2000/svg">
<path fill-rule="evenodd" clip-rule="evenodd" d="M90.2615 19.5589C88.9595 21.893 86.4442 23.3998 83.5738 23.3998C81.3544 23.3998 79.4901 22.6612 77.981 21.1544C76.5014 19.6475 75.7616 17.8157 75.7616 15.5998C75.7616 13.3839 76.5014 11.5521 77.981 10.0453C79.4901 8.53844 81.3544 7.7998 83.5738 7.7998C86.4442 7.7998 88.9891 9.27708 90.2023 11.6112L87.4325 13.3461C86.6526 12.0031 85.1972 11.0998 83.5306 11.0998C81.0414 11.0998 79.0235 13.1145 79.0235 15.5998C79.0235 18.0851 81.0414 20.0998 83.5306 20.0998C85.1992 20.0998 86.656 19.1944 87.4352 17.8489L90.2615 19.5589Z" fill="#15161A"/>
<path fill-rule="evenodd" clip-rule="evenodd" d="M71.5118 23.3999V8.3999H67.9061V23.3999H71.5118Z" fill="#15161A"/>
<path fill-rule="evenodd" clip-rule="evenodd" d="M69.6938 4.8C71.0242 4.8 72.1127 3.71321 72.1127 2.41509C72.1127 1.11698 71.0242 0 69.6938 0C68.3937 0 67.3052 1.11698 67.3052 2.41509C67.3052 3.71321 68.3937 4.8 69.6938 4.8Z" fill="#15161A"/>
<path fill-rule="evenodd" clip-rule="evenodd" d="M59.493 8.3999H55.8873V23.3999H59.493V16.2299C59.493 14.7899 60.1987 13.8299 61.1268 13.1999C62.055 12.5699 63.1328 12.4499 64.3005 12.5999V8.3999C62.2646 8.3999 60.2115 8.8799 59.493 10.7999V8.3999Z" fill="#15161A"/>
<path fill-rule="evenodd" clip-rule="evenodd" d="M51.6807 8.41194H48.0751V4.2002L44.4694 5.38429V8.41194H42.0657V12.0002H44.4694V18.3642C44.4694 22.471 46.1522 23.9998 51.6807 23.4003V19.893C49.3694 20.0129 48.0751 19.9189 48.0751 18.3002V12.0002H51.6807V8.41194Z" fill="#15161A"/>
<path fill-rule="evenodd" clip-rule="evenodd" d="M16.5712 7.97998C14.5934 7.97998 13.0951 8.69998 12.1062 10.14C11.2372 8.69998 9.8588 7.97998 8.03088 7.97998C6.14302 7.97998 4.76459 8.63998 3.86561 9.98998V8.39998H0V23.4H3.60563V14.97C3.60563 12.78 4.85761 11.58 6.36996 11.58C8.41191 11.5958 9.01408 12.63 9.01408 14.43V23.4H12.6197V14.97C12.6197 12.78 13.616 11.58 15.384 11.58C17.4464 11.58 18.0282 12.63 18.0282 14.43V23.4H21.6338V14.16C21.6338 10.41 20.0173 7.97998 16.5712 7.97998Z" fill="#15161A"/>
<path fill-rule="evenodd" clip-rule="evenodd" d="M28.3643 16.7998H39.8864C39.9109 16.6458 39.9332 16.5237 39.9526 16.4173C40.0039 16.136 40.0353 15.9642 40.0353 15.5998C40.0353 13.3839 39.3209 11.5521 37.8923 10.0453C36.4934 8.53844 34.6779 7.7998 32.5051 7.7998C30.2133 7.7998 28.3085 8.53844 26.8501 10.0453C25.3917 11.5225 24.6476 13.3839 24.6476 15.5998C24.6476 17.8453 25.3917 19.7066 26.8798 21.1839C28.368 22.6612 30.3324 23.3998 32.8028 23.3998C35.66 23.3998 37.8328 22.3362 39.2912 20.2384L36.6573 18.4678C35.9132 19.4428 34.3207 20.0998 32.8623 20.0998C30.5705 20.0998 28.8703 18.6612 28.3643 16.7998ZM36.3568 13.7998H28.5446C29.0041 12.0509 30.444 11.0398 32.5579 11.0398C34.3654 11.0398 35.8972 11.9416 36.3568 13.7998Z" fill="#15161A"/>
<path fill-rule="evenodd" clip-rule="evenodd" d="M127.399 23.3999V8.3999H123.793V23.3999H127.399Z" fill="#1AB394"/>
<path fill-rule="evenodd" clip-rule="evenodd" d="M125.581 4.8C126.912 4.8 128 3.71321 128 2.41509C128 1.11698 126.912 0 125.581 0C124.281 0 123.193 1.11698 123.193 2.41509C123.193 3.71321 124.281 4.8 125.581 4.8Z" fill="#1AB394"/>
<path fill-rule="evenodd" clip-rule="evenodd" d="M115.981 8.39998V10.17C114.798 8.69998 112.854 7.97998 110.731 7.97998C108.699 7.97998 106.97 8.75998 105.515 10.29C104.089 11.82 103.361 13.68 103.361 15.9C103.361 18.12 104.089 20.01 105.515 21.54C106.97 23.07 108.699 23.82 110.731 23.82C112.854 23.82 114.798 23.1 115.981 21.63V23.4H119.587V8.39998H115.981ZM111.338 20.3125C110.071 20.3125 109.026 19.9058 108.202 19.0924C107.379 18.2477 106.967 17.184 106.967 15.9013C106.967 14.6185 107.379 13.5548 108.202 12.7414C109.026 11.8967 110.071 11.49 111.338 11.49C112.605 11.49 113.65 11.8967 114.474 12.7414C115.329 13.5548 115.741 14.6185 115.741 15.9013C115.741 17.184 115.329 18.2477 114.474 19.0924C113.65 19.9058 112.605 20.3125 111.338 20.3125Z" fill="#1AB394"/>
<path fill-rule="evenodd" clip-rule="evenodd" d="M99.0539 23.2993C99.9899 22.3648 99.9899 20.8356 99.0539 19.9011C98.1179 18.9666 96.5863 18.9666 95.6503 19.9011C94.7144 20.8356 94.7144 22.3648 95.6503 23.2993C96.5863 24.2338 98.1179 24.2338 99.0539 23.2993Z" fill="#1AB394"/>
<path fill-rule="evenodd" clip-rule="evenodd" d="M97.337 4.8C98.6674 4.8 99.7559 3.71321 99.7559 2.41509C99.7559 1.11698 98.6674 0 97.337 0C96.0369 0 94.9484 1.11698 94.9484 2.41509C94.9484 3.71321 96.0369 4.8 97.337 4.8Z" fill="#F8AC59"/>
<path fill-rule="evenodd" clip-rule="evenodd" d="M97.337 14.4001C98.6674 14.4001 99.7559 13.3133 99.7559 12.0152C99.7559 10.7171 98.6674 9.6001 97.337 9.6001C96.0369 9.6001 94.9484 10.7171 94.9484 12.0152C94.9484 13.3133 96.0369 14.4001 97.337 14.4001Z" fill="#23C6C8"/>
</svg>
