<svg width="140" height="26" viewBox="0 0 140 26" fill="none" xmlns="http://www.w3.org/2000/svg">
<g id="Tahzoo">
<path id="Path" d="M20.6397 4.27399V0.457575C20.6397 0.253124 20.4742 0.0778809 20.26 0.0778809H0.447809C0.243359 0.0778809 0.0681152 0.243389 0.0681152 0.457575V4.27399C0.0681152 4.47844 0.233623 4.65368 0.447809 4.65368H7.46728C7.67173 4.65368 7.84697 4.81919 7.84697 5.03337V24.9527C7.84697 25.1572 8.01248 25.3324 8.22667 25.3324H12.5104C12.7148 25.3324 12.8901 25.1669 12.8901 24.9527V5.02364C12.8901 4.81919 13.0556 4.64394 13.2698 4.64394H20.2893C20.4645 4.65368 20.6397 4.47844 20.6397 4.27399Z" fill="black"/>
<path id="Path_2" d="M83.8929 21.4382H73.8164L83.484 10.5439C83.5424 10.4758 83.5813 10.3881 83.5813 10.2908V6.93194C83.5813 6.72749 83.4158 6.55225 83.2016 6.55225H68.1307C67.9263 6.55225 67.751 6.71775 67.751 6.93194V10.0668C67.751 10.2713 67.9165 10.4465 68.1307 10.4465H76.7955L67.1279 21.3408C67.0695 21.409 67.0306 21.4966 67.0306 21.594V24.9625C67.0306 25.167 67.1961 25.3422 67.4103 25.3422H83.9026C84.1071 25.3422 84.2823 25.1767 84.2823 24.9625V21.8082C84.2726 21.6037 84.1071 21.4382 83.8929 21.4382Z" fill="black"/>
<path id="Shape" fill-rule="evenodd" clip-rule="evenodd" d="M33.4033 6.55223H37.1418C37.3463 6.55223 37.5215 6.71774 37.5215 6.93193V24.9431C37.5215 25.1572 37.3463 25.3227 37.1418 25.3227H33.4033C33.1891 25.3227 33.0236 25.1475 33.0236 24.9431V23.8721C31.4951 24.9138 29.6355 25.5272 27.6397 25.5272C22.324 25.5272 18.0208 21.2143 18.0305 15.8985C18.0403 10.651 22.3629 6.31857 27.6105 6.30884C29.6161 6.30884 31.4853 6.91245 33.0236 7.96391V6.93193C33.0236 6.71774 33.1988 6.55223 33.4033 6.55223ZM28.0681 21.0001C30.5312 20.8054 32.5368 18.8095 32.7315 16.3367C32.9749 13.192 30.3657 10.5828 27.2308 10.836C24.7677 11.0307 22.7621 13.0265 22.5674 15.4994C22.3143 18.644 24.9332 21.2532 28.0681 21.0001Z" fill="black"/>
<path id="Shape_2" fill-rule="evenodd" clip-rule="evenodd" d="M87.2128 15.918C87.2128 10.612 91.516 6.30884 96.8219 6.30884C102.128 6.30884 106.431 10.612 106.431 15.918C106.431 21.224 102.128 25.5272 96.8219 25.5272C91.516 25.5272 87.2128 21.224 87.2128 15.918ZM91.7204 15.918C91.7204 18.7316 94.0083 21.0195 96.8219 21.0195C99.6356 21.0195 101.923 18.7316 101.923 15.918C101.923 13.1044 99.6356 10.8165 96.8219 10.8165C94.0083 10.8165 91.7204 13.1044 91.7204 15.918Z" fill="black"/>
<path id="Shape_3" fill-rule="evenodd" clip-rule="evenodd" d="M109.946 15.918C109.946 10.612 114.249 6.30884 119.555 6.30884C124.861 6.30884 129.164 10.612 129.164 15.918C129.164 21.224 124.861 25.5272 119.555 25.5272C114.249 25.5272 109.946 21.224 109.946 15.918ZM114.453 15.918C114.453 18.7316 116.741 21.0195 119.555 21.0195C122.369 21.0195 124.656 18.7316 124.656 15.918C124.656 13.1044 122.369 10.8165 119.555 10.8165C116.741 10.8165 114.453 13.1044 114.453 15.918Z" fill="black"/>
<circle id="Oval" cx="136.018" cy="21.5744" r="3.9235" fill="#1DA8F9"/>
<path id="Path_3" d="M52.6898 6.30876C51.0931 6.30876 49.2239 6.69819 47.8901 7.38942C47.8803 7.39916 47.8609 7.38942 47.8609 7.36995V0.477046C47.8609 0.26286 47.6856 0.0778809 47.4617 0.0778809H43.5382C43.3338 0.0778809 43.1585 0.243388 43.1585 0.837269V24.9332C43.1585 25.1377 43.324 25.3129 43.5382 25.3129H47.4617C47.6759 25.3129 47.8609 25.1377 47.8609 24.9138V15.6648C47.8609 13.153 49.9054 10.8651 52.4075 10.7385C52.4951 10.7288 52.5924 10.7288 52.6898 10.7288C55.5034 10.7288 57.4214 13.0167 57.4214 15.8303C57.4214 15.8401 57.4214 15.8401 57.4214 15.8498V24.9235C57.4214 25.1377 57.5966 25.3227 57.8205 25.3227H62.1724C62.3866 25.3227 62.5716 25.1474 62.5716 24.9235V15.8498C62.5716 15.8401 62.5716 15.8401 62.5716 15.8303C62.5521 9.41446 57.9958 6.30876 52.6898 6.30876Z" fill="black"/>
</g>
</svg>
