<svg width="23" height="21" viewBox="0 0 23 21" fill="none" xmlns="http://www.w3.org/2000/svg">
<path opacity="0.5" fill-rule="evenodd" clip-rule="evenodd" d="M9.25146 18.7768L4.26248 20.238C2.49934 20.7544 0.651396 19.7438 0.134984 17.9806C-0.0438389 17.3701 -0.0438389 16.7211 0.134984 16.1105L1.59622 11.1216C1.77505 10.511 1.77505 9.862 1.59622 9.25146L0.134984 4.26248C-0.381428 2.49934 0.629246 0.651396 2.39239 0.134984C3.00293 -0.0438389 3.65194 -0.0438389 4.26248 0.134984L9.25146 1.59622C9.862 1.77505 10.511 1.77505 11.1216 1.59622L16.1105 0.134984C17.8737 -0.381428 19.7216 0.629246 20.238 2.39239C20.4169 3.00293 20.4169 3.65194 20.238 4.26248L18.7768 9.25146C18.598 9.862 18.598 10.511 18.7768 11.1216L20.238 16.1105C20.7544 17.8737 19.7438 19.7216 17.9806 20.238C17.3701 20.4169 16.7211 20.4169 16.1105 20.238L11.1216 18.7768C10.511 18.598 9.862 18.598 9.25146 18.7768Z" fill="#04CC88"/>
<path fill-rule="evenodd" clip-rule="evenodd" d="M11.1516 5.40264L11.1407 14.9671C11.1397 15.8697 11.8346 16.6023 12.6928 16.6034C12.9662 16.6037 13.2348 16.5282 13.4716 16.3844L21.3635 11.5923C22.1068 11.141 22.3614 10.1414 21.9323 9.35976C21.7956 9.11074 21.5989 8.90406 21.3619 8.76058L13.4809 3.98827C12.7371 3.53791 11.7871 3.80693 11.3589 4.58914C11.2234 4.83661 11.152 5.11709 11.1516 5.40264Z" fill="#04CC88"/>
</svg>
