<svg width="26" height="22" viewBox="0 0 26 22" fill="none" xmlns="http://www.w3.org/2000/svg">
<path opacity="0.5" fill-rule="evenodd" clip-rule="evenodd" d="M12.848 1.30847L20.6144 6.95105C21.7164 7.75168 22.1775 9.17081 21.7565 10.4662L18.7901 19.5961C18.3692 20.8916 17.162 21.7686 15.7999 21.7686H6.20013C4.83803 21.7686 3.63084 20.8916 3.20993 19.5961L0.243452 10.4662C-0.17746 9.17081 0.283646 7.75168 1.38561 6.95105L9.15195 1.30847C10.2539 0.507852 11.7461 0.507852 12.848 1.30847Z" fill="#04CC88"/>
<path fill-rule="evenodd" clip-rule="evenodd" d="M18.2351 5.8541C18.936 5.34481 19.8852 5.34481 20.5862 5.8541L24.4169 8.63729C25.1179 9.14658 25.4112 10.0493 25.1435 10.8734L23.6803 15.3766C23.4125 16.2007 22.6446 16.7586 21.7782 16.7586H17.0431C16.1767 16.7586 15.4088 16.2007 15.141 15.3766L13.6778 10.8734C13.4101 10.0493 13.7034 9.14658 14.4043 8.63729L18.2351 5.8541Z" fill="#04CC88"/>
</svg>
