<svg width="25" height="24" viewBox="0 0 25 24" fill="none" xmlns="http://www.w3.org/2000/svg">
<path opacity="0.5" fill-rule="evenodd" clip-rule="evenodd" d="M14.8285 2.10028L21.8995 9.17135C23.4616 10.7334 23.4616 13.2661 21.8995 14.8282L14.8285 21.8993C13.2664 23.4614 10.7337 23.4614 9.1716 21.8993L2.10053 14.8282C0.538431 13.2661 0.538431 10.7334 2.10053 9.17135L9.1716 2.10028C10.7337 0.538187 13.2664 0.538187 14.8285 2.10028Z" fill="#4B73FF"/>
<path fill-rule="evenodd" clip-rule="evenodd" d="M24.9435 7.21612L24.9543 16.7806C24.9554 17.6832 24.2605 18.4157 23.4023 18.4168C23.1289 18.4172 22.8603 18.3416 22.6235 18.1979L14.7316 13.4057C13.9883 12.9544 13.7337 11.9549 14.1628 11.1732C14.2995 10.9242 14.4962 10.7175 14.7332 10.5741L22.6142 5.80175C23.3579 5.35138 24.308 5.6204 24.7362 6.40262C24.8717 6.65009 24.9431 6.93057 24.9435 7.21612Z" fill="#4B73FF"/>
</svg>
