<svg width="25" height="20" viewBox="0 0 25 20" fill="none" xmlns="http://www.w3.org/2000/svg">
<rect opacity="0.5" width="20" height="20" rx="4" fill="#4B73FF"/>
<path fill-rule="evenodd" clip-rule="evenodd" d="M18.4574 14.7162L16.1715 15.1365C15.0947 15.3346 14.0613 14.6222 13.8632 13.5454C13.8197 13.3083 13.8197 13.0653 13.8632 12.8283L14.2836 10.5424C14.3496 10.1837 14.3496 9.81596 14.2836 9.45724L13.8632 7.17141C13.6652 6.0946 14.3776 5.06114 15.4544 4.86312C15.6915 4.81953 15.9345 4.81953 16.1715 4.86312L18.4574 5.28348C18.8161 5.34945 19.1838 5.34945 19.5426 5.28348L21.8284 4.86312C22.9052 4.6651 23.9386 5.37749 24.1367 6.4543C24.1803 6.69135 24.1803 6.93436 24.1367 7.17141L23.7163 9.45724C23.6503 9.81596 23.6503 10.1837 23.7163 10.5424L24.1367 12.8283C24.3347 13.9051 23.6223 14.9385 22.5455 15.1365C22.3084 15.1801 22.0654 15.1801 21.8284 15.1365L19.5426 14.7162C19.1838 14.6502 18.8161 14.6502 18.4574 14.7162Z" fill="#4B73FF"/>
</svg>
