<svg width="27" height="22" viewBox="0 0 27 22" fill="none" xmlns="http://www.w3.org/2000/svg">
<path opacity="0.5" fill-rule="evenodd" clip-rule="evenodd" d="M12.848 1.30847L20.6144 6.95105C21.7164 7.75168 22.1775 9.17081 21.7565 10.4662L18.7901 19.5961C18.3692 20.8916 17.162 21.7686 15.7999 21.7686H6.20013C4.83803 21.7686 3.63084 20.8916 3.20993 19.5961L0.243452 10.4662C-0.17746 9.17081 0.283646 7.75168 1.38561 6.95105L9.15195 1.30847C10.2539 0.507852 11.7461 0.507852 12.848 1.30847Z" fill="#4B73FF"/>
<path fill-rule="evenodd" clip-rule="evenodd" d="M25.2383 16.9891L15.6739 17C14.7713 17.001 14.0387 16.3062 14.0376 15.448C14.0373 15.1746 14.1128 14.9059 14.2566 14.6691L19.0487 6.77721C19.5 6.03399 20.4996 5.77934 21.2812 6.20844C21.5303 6.34514 21.7369 6.54189 21.8804 6.77883L26.6527 14.6599C27.1031 15.4036 26.8341 16.3536 26.0518 16.7819C25.8044 16.9173 25.5239 16.9888 25.2383 16.9891Z" fill="#4B73FF"/>
</svg>
