<svg width="23" height="24" viewBox="0 0 23 24" fill="none" xmlns="http://www.w3.org/2000/svg">
<path opacity="0.5" fill-rule="evenodd" clip-rule="evenodd" d="M19.2177 2.99691L19.2368 20.5538C19.2386 22.2107 18.0234 23.5554 16.5225 23.5574C16.0444 23.5581 15.5746 23.4194 15.1606 23.1555L1.35919 14.3588C0.0594429 13.5304 -0.385883 11.6956 0.364526 10.2608C0.603585 9.80365 0.947658 9.42426 1.36201 9.16089L15.1443 0.400634C16.445 -0.426075 18.1064 0.0677468 18.8553 1.50362C19.0922 1.95788 19.2172 2.47274 19.2177 2.99691Z" fill="#4B73FF"/>
<path fill-rule="evenodd" clip-rule="evenodd" d="M22.1075 6.91143L22.1184 16.4759C22.1194 17.3785 21.4246 18.1111 20.5664 18.1121C20.293 18.1125 20.0243 18.037 19.7875 17.8932L11.8956 13.101C11.1524 12.6497 10.8978 11.6502 11.3269 10.8685C11.4636 10.6195 11.6603 10.4128 11.8972 10.2694L19.7783 5.49706C20.522 5.0467 21.4721 5.31571 21.9003 6.09793C22.0357 6.3454 22.1072 6.62588 22.1075 6.91143Z" fill="#4B73FF"/>
</svg>
