<svg width="25" height="25" viewBox="0 0 25 25" fill="none" xmlns="http://www.w3.org/2000/svg">
<path opacity="0.5" fill-rule="evenodd" clip-rule="evenodd" d="M0.854971 3.8016L0.835936 21.3585C0.834139 23.0154 2.04934 24.3601 3.55015 24.3621C4.02827 24.3627 4.49808 24.2241 4.91214 23.9602L18.7135 15.1635C20.0132 14.3351 20.4586 12.5003 19.7082 11.0654C19.4691 10.6083 19.125 10.2289 18.7107 9.96558L4.92836 1.20532C3.62771 0.378613 1.96627 0.872434 1.21742 2.3083C0.980505 2.76256 0.855539 3.27743 0.854971 3.8016Z" fill="#4B73FF"/>
<path fill-rule="evenodd" clip-rule="evenodd" d="M17.2351 6.8541C17.936 6.34481 18.8852 6.34481 19.5862 6.8541L23.4169 9.63729C24.1179 10.1466 24.4112 11.0493 24.1435 11.8734L22.6803 16.3766C22.4125 17.2007 21.6446 17.7586 20.7782 17.7586H16.0431C15.1767 17.7586 14.4088 17.2007 14.141 16.3766L12.6778 11.8734C12.4101 11.0493 12.7034 10.1466 13.4043 9.63729L17.2351 6.8541Z" fill="#4B73FF"/>
</svg>
