<svg width="27" height="24" viewBox="0 0 27 24" fill="none" xmlns="http://www.w3.org/2000/svg">
<path opacity="0.5" fill-rule="evenodd" clip-rule="evenodd" d="M14.8285 2.10028L21.8995 9.17135C23.4616 10.7334 23.4616 13.2661 21.8995 14.8282L14.8285 21.8993C13.2664 23.4614 10.7337 23.4614 9.1716 21.8993L2.10053 14.8282C0.538431 13.2661 0.538431 10.7334 2.10053 9.17135L9.1716 2.10028C10.7337 0.538187 13.2664 0.538187 14.8285 2.10028Z" fill="#4B73FF"/>
<path fill-rule="evenodd" clip-rule="evenodd" d="M20.4574 16.7162L18.1716 17.1365C17.0948 17.3346 16.0613 16.6222 15.8633 15.5454C15.8197 15.3083 15.8197 15.0653 15.8633 14.8283L16.2837 12.5424C16.3496 12.1837 16.3496 11.816 16.2837 11.4572L15.8633 9.17141C15.6653 8.0946 16.3777 7.06114 17.4545 6.86312C17.6915 6.81953 17.9345 6.81953 18.1716 6.86312L20.4574 7.28348C20.8161 7.34945 21.1839 7.34945 21.5426 7.28348L23.8284 6.86312C24.9052 6.6651 25.9387 7.37749 26.1367 8.4543C26.1803 8.69135 26.1803 8.93436 26.1367 9.17141L25.7164 11.4572C25.6504 11.816 25.6504 12.1837 25.7164 12.5424L26.1367 14.8283C26.3347 15.9051 25.6224 16.9385 24.5455 17.1365C24.3085 17.1801 24.0655 17.1801 23.8284 17.1365L21.5426 16.7162C21.1839 16.6502 20.8161 16.6502 20.4574 16.7162Z" fill="#4B73FF"/>
</svg>
