<svg width="26" height="22" viewBox="0 0 26 22" fill="none" xmlns="http://www.w3.org/2000/svg">
<path opacity="0.5" fill-rule="evenodd" clip-rule="evenodd" d="M10.0649 19.5903L5.07596 21.0515C3.31282 21.5679 1.46487 20.5572 0.948461 18.7941C0.769638 18.1836 0.769638 17.5345 0.948461 16.924L2.4097 11.935C2.58852 11.3245 2.58852 10.6755 2.4097 10.0649L0.948461 5.07596C0.432049 3.31282 1.44272 1.46487 3.20586 0.948461C3.8164 0.769638 4.46542 0.769638 5.07596 0.948461L10.0649 2.4097C10.6755 2.58852 11.3245 2.58852 11.935 2.4097L16.924 0.948461C18.6871 0.432049 20.5351 1.44272 21.0515 3.20586C21.2303 3.8164 21.2303 4.46542 21.0515 5.07596L19.5903 10.0649C19.4114 10.6755 19.4114 11.3245 19.5903 11.935L21.0515 16.924C21.5679 18.6871 20.5572 20.5351 18.7941 21.0515C18.1836 21.2303 17.5345 21.2303 16.924 21.0515L11.935 19.5903C11.3245 19.4114 10.6755 19.4114 10.0649 19.5903Z" fill="#4B73FF"/>
<rect x="10.929" y="11" width="10" height="10" rx="3" transform="rotate(-45 10.929 11)" fill="#4B73FF"/>
</svg>
