<svg width="110" height="21" viewBox="0 0 110 21" fill="none" xmlns="http://www.w3.org/2000/svg">
<path id="logo_footer" fill-rule="evenodd" clip-rule="evenodd" d="M59.8931 4.2C61.0364 4.2 61.9718 3.24906 61.9718 2.11321C61.9718 0.977359 61.0364 0 59.8931 0C58.7758 0 57.8404 0.977359 57.8404 2.11321C57.8404 3.24906 58.7758 4.2 59.8931 4.2ZM110 2.11321C110 3.24906 109.065 4.2 107.921 4.2C106.804 4.2 105.869 3.24906 105.869 2.11321C105.869 0.977359 106.804 0 107.921 0C109.065 0 110 0.977359 110 2.11321ZM77.5685 17.1142C76.4495 19.1565 74.2879 20.475 71.8212 20.475C69.9139 20.475 68.3118 19.8287 67.0149 18.5102C65.7433 17.1918 65.1076 15.5889 65.1076 13.65C65.1076 11.7111 65.7433 10.1082 67.0149 8.78977C68.3118 7.47131 69.9139 6.825 71.8212 6.825C74.2879 6.825 76.475 8.11761 77.5176 10.1599L75.1372 11.678C74.4671 10.5029 73.2164 9.7125 71.784 9.7125C69.6449 9.7125 67.9108 11.4754 67.9108 13.65C67.9108 15.8246 69.6449 17.5875 71.784 17.5875C73.218 17.5875 74.47 16.7953 75.1396 15.6179L77.5685 17.1142ZM106.385 20.475H109.484V7.35H106.385V20.475ZM61.4554 20.475V7.35H58.3568V20.475H61.4554ZM99.6714 8.89875V7.35H102.77V20.475H99.6714V18.9263C98.6549 20.2125 96.984 20.8425 95.1596 20.8425C93.4134 20.8425 91.9278 20.1862 90.6768 18.8475C89.4518 17.5088 88.8263 15.855 88.8263 13.9125C88.8263 11.97 89.4518 10.3425 90.6768 9.00375C91.9278 7.665 93.4134 6.9825 95.1596 6.9825C96.984 6.9825 98.6549 7.6125 99.6714 8.89875ZM92.9865 16.7059C93.6942 17.4176 94.5924 17.7735 95.6812 17.7735C96.77 17.7735 97.6683 17.4176 98.376 16.7059C99.1109 15.9667 99.4648 15.036 99.4648 13.9136C99.4648 12.7912 99.1109 11.8605 98.376 11.1487C97.6683 10.4096 96.77 10.0537 95.6812 10.0537C94.5924 10.0537 93.6942 10.4096 92.9865 11.1487C92.2787 11.8605 91.9249 12.7912 91.9249 13.9136C91.9249 15.036 92.2787 15.9667 92.9865 16.7059ZM85.1244 17.4133C85.9288 18.231 85.9288 19.569 85.1244 20.3867C84.3201 21.2044 83.0039 21.2044 82.1995 20.3867C81.3952 19.569 81.3952 18.231 82.1995 17.4133C83.0039 16.5956 84.3201 16.5956 85.1244 17.4133ZM51.1268 7.35H48.0282V20.475H51.1268V14.2013C51.1268 12.9412 51.7332 12.1012 52.5309 11.55C53.3285 10.9987 54.2548 10.8938 55.2582 11.025V7.35C53.5086 7.35 51.7443 7.77 51.1268 9.45V7.35ZM85.7277 2.11321C85.7277 3.24906 84.7923 4.2 83.649 4.2C82.5317 4.2 81.5962 3.24906 81.5962 2.11321C81.5962 0.977359 82.5317 0 83.649 0C84.7923 0 85.7277 0.977359 85.7277 2.11321ZM44.4131 7.36027H41.3146V3.675L38.216 4.71108V7.36027H36.1502V10.5H38.216V16.0685C38.216 19.662 39.6621 20.9997 44.4131 20.4751V17.4062C42.4268 17.5111 41.3146 17.4289 41.3146 16.0125V10.5H44.4131V7.36027ZM85.7277 10.5132C85.7277 11.6491 84.7923 12.6 83.649 12.6C82.5317 12.6 81.5962 11.6491 81.5962 10.5132C81.5962 9.37736 82.5317 8.4 83.649 8.4C84.7923 8.4 85.7277 9.37736 85.7277 10.5132ZM14.2409 6.9825C12.5412 6.9825 11.2536 7.6125 10.4038 8.8725C9.657 7.6125 8.47241 6.9825 6.90154 6.9825C5.27916 6.9825 4.09457 7.56 3.32201 8.74125V7.35H0V20.475H3.09859V13.0988C3.09859 11.1825 4.17451 10.1325 5.47418 10.1325C7.22899 10.1464 7.74648 11.0513 7.74648 12.6263V20.475H10.8451V13.0988C10.8451 11.1825 11.7013 10.1325 13.2207 10.1325C14.993 10.1325 15.493 11.0513 15.493 12.6263V20.475H18.5915V12.39C18.5915 9.10875 17.2023 6.9825 14.2409 6.9825ZM34.2774 14.7H24.3756C24.8104 16.3287 26.2715 17.5875 28.241 17.5875C29.4944 17.5875 30.8629 17.0126 31.5023 16.1595L33.7659 17.7088C32.5126 19.5443 30.6454 20.475 28.1899 20.475C26.0669 20.475 24.3788 19.8287 23.0999 18.5361C21.821 17.2435 21.1815 15.6148 21.1815 13.65C21.1815 11.7111 21.821 10.0824 23.0743 8.78977C24.3276 7.47131 25.9646 6.825 27.9341 6.825C29.8013 6.825 31.3615 7.47131 32.5637 8.78977C33.7915 10.1082 34.4053 11.7111 34.4053 13.65C34.4053 13.9689 34.3784 14.1192 34.3343 14.3653C34.3176 14.4584 34.2985 14.5652 34.2774 14.7ZM24.5305 12.075H31.2441C30.8492 10.4491 29.5328 9.66 27.9795 9.66C26.1628 9.66 24.9254 10.5447 24.5305 12.075Z" fill="#747785"/>
</svg>
