<svg width="375" height="225" viewBox="0 0 375 225" fill="none" xmlns="http://www.w3.org/2000/svg">
<rect width="375" height="225" fill="url(#paint0_linear)"/>
<mask id="mask0" mask-type="alpha" maskUnits="userSpaceOnUse" x="1" y="1" width="391" height="208">
<path fill-rule="evenodd" clip-rule="evenodd" d="M3.24018 11.7209C1.1001 15.9211 1.1001 21.4194 1.1001 32.416V177.061C1.1001 188.057 1.1001 193.555 3.24018 197.756C5.12266 201.45 8.12643 204.454 11.821 206.336C14.314 207.607 17.2644 208.123 21.5505 208.333H73.365H147.79C181.006 208.333 203.459 195.415 225.838 182.54C248.071 169.749 270.232 157 302.801 157H377V207.555C378.245 207.256 379.351 206.86 380.379 206.336C384.074 204.454 387.078 201.45 388.96 197.756C391.1 193.555 391.1 188.057 391.1 177.061V32.416C391.1 21.4194 391.1 15.9211 388.96 11.7209C387.078 8.02633 384.074 5.02256 380.379 3.14009C376.179 1 370.681 1 359.684 1H32.5161C21.5195 1 16.0212 1 11.821 3.14009C8.12643 5.02256 5.12266 8.02633 3.24018 11.7209Z" fill="white"/>
</mask>
<g mask="url(#mask0)">
<g filter="url(#filter0_bd)">
<rect x="91.252" y="23.2529" width="211.534" height="111.422" rx="8.3776" fill="url(#paint1_linear)"/>
<rect x="91.502" y="23.5029" width="211.034" height="110.922" rx="8.1276" stroke="white" stroke-opacity="0.5" stroke-width="0.5"/>
</g>
<path d="M164.556 23.2529H229.483V30.7928C229.483 35.4847 229.483 37.8306 228.569 39.6227C227.766 41.199 226.485 42.4806 224.908 43.2838C223.116 44.1969 220.77 44.1969 216.078 44.1969H177.96C173.268 44.1969 170.922 44.1969 169.13 43.2838C167.554 42.4806 166.272 41.199 165.469 39.6227C164.556 37.8306 164.556 35.4847 164.556 30.7928V23.2529Z" fill="#15161A" fill-opacity="0.1"/>
<path d="M182.319 36.0229V31.1487H185.441V31.8889H183.202V33.2122H185.227V33.9523H183.202V36.0229H182.319ZM187.742 36.0943C187.376 36.0943 187.059 36.0182 186.792 35.8659C186.527 35.712 186.324 35.4946 186.181 35.2137C186.038 34.9313 185.967 34.5989 185.967 34.2165C185.967 33.8405 186.038 33.5105 186.181 33.2264C186.325 32.9408 186.527 32.7187 186.785 32.56C187.044 32.3998 187.348 32.3197 187.697 32.3197C187.922 32.3197 188.135 32.3562 188.335 32.4291C188.536 32.5005 188.714 32.6116 188.868 32.7623C189.023 32.9131 189.145 33.1051 189.234 33.3383C189.323 33.57 189.368 33.846 189.368 34.1665V34.4307H186.371V33.85H188.542C188.54 33.685 188.504 33.5382 188.435 33.4097C188.365 33.2796 188.267 33.1773 188.142 33.1027C188.018 33.0281 187.874 32.9908 187.709 32.9908C187.533 32.9908 187.378 33.0337 187.245 33.1193C187.111 33.2034 187.007 33.3145 186.933 33.4525C186.86 33.589 186.823 33.7389 186.821 33.9024V34.4093C186.821 34.6219 186.86 34.8044 186.938 34.9567C187.015 35.1074 187.124 35.2233 187.264 35.3042C187.403 35.3835 187.567 35.4232 187.754 35.4232C187.879 35.4232 187.993 35.4057 188.094 35.3708C188.196 35.3343 188.284 35.2812 188.358 35.2114C188.433 35.1416 188.489 35.0551 188.527 34.9519L189.332 35.0424C189.281 35.255 189.184 35.4406 189.042 35.5993C188.9 35.7564 188.719 35.8786 188.499 35.9658C188.278 36.0515 188.026 36.0943 187.742 36.0943ZM190.319 36.0229V31.1487H191.18V32.9718H191.216C191.261 32.8829 191.323 32.7885 191.404 32.6886C191.485 32.587 191.595 32.5005 191.733 32.4291C191.871 32.3562 192.047 32.3197 192.261 32.3197C192.543 32.3197 192.798 32.3919 193.025 32.5362C193.253 32.679 193.434 32.8909 193.568 33.1717C193.702 33.451 193.77 33.7937 193.77 34.1999C193.77 34.6013 193.704 34.9424 193.572 35.2233C193.441 35.5041 193.261 35.7183 193.034 35.8659C192.808 36.0134 192.551 36.0872 192.263 36.0872C192.054 36.0872 191.88 36.0523 191.742 35.9825C191.604 35.9127 191.493 35.8286 191.409 35.7302C191.326 35.6302 191.262 35.5358 191.216 35.447H191.166V36.0229H190.319ZM191.164 34.1951C191.164 34.4315 191.197 34.6386 191.264 34.8163C191.332 34.994 191.43 35.1328 191.556 35.2328C191.685 35.3312 191.84 35.3803 192.023 35.3803C192.213 35.3803 192.373 35.3296 192.501 35.228C192.63 35.1249 192.727 34.9845 192.792 34.8068C192.858 34.6275 192.892 34.4236 192.892 34.1951C192.892 33.9682 192.859 33.7667 192.794 33.5906C192.729 33.4145 192.632 33.2764 192.504 33.1765C192.375 33.0765 192.215 33.0265 192.023 33.0265C191.839 33.0265 191.683 33.0749 191.554 33.1717C191.426 33.2685 191.328 33.4042 191.261 33.5787C191.196 33.7532 191.164 33.9587 191.164 34.1951ZM194.687 36.0229V32.3673H195.522V32.9765H195.56C195.627 32.7655 195.741 32.6029 195.903 32.4886C196.066 32.3728 196.253 32.3149 196.462 32.3149C196.51 32.3149 196.563 32.3173 196.622 32.322C196.682 32.3252 196.732 32.3308 196.771 32.3387V33.1312C196.735 33.1186 196.677 33.1074 196.598 33.0979C196.52 33.0868 196.445 33.0813 196.372 33.0813C196.215 33.0813 196.073 33.1154 195.948 33.1836C195.824 33.2502 195.727 33.3431 195.655 33.4621C195.584 33.5811 195.548 33.7183 195.548 33.8738V36.0229H194.687ZM199.858 34.4855V32.3673H200.72V36.0229H199.884V35.3732H199.846C199.764 35.5779 199.628 35.7453 199.439 35.8754C199.252 36.0055 199.021 36.0705 198.747 36.0705C198.507 36.0705 198.295 36.0174 198.111 35.9111C197.929 35.8032 197.786 35.6469 197.683 35.4422C197.58 35.236 197.528 34.9869 197.528 34.6949V32.3673H198.39V34.5616C198.39 34.7933 198.453 34.9773 198.58 35.1138C198.707 35.2502 198.874 35.3185 199.08 35.3185C199.207 35.3185 199.33 35.2875 199.449 35.2256C199.568 35.1638 199.665 35.0717 199.742 34.9496C199.819 34.8258 199.858 34.6711 199.858 34.4855ZM202.842 36.0967C202.61 36.0967 202.402 36.0555 202.216 35.973C202.032 35.8889 201.886 35.7651 201.778 35.6017C201.672 35.4383 201.619 35.2368 201.619 34.9972C201.619 34.7909 201.657 34.6203 201.733 34.4855C201.809 34.3506 201.913 34.2427 202.045 34.1618C202.176 34.0809 202.325 34.0198 202.49 33.9785C202.656 33.9357 202.829 33.9047 203.006 33.8857C203.22 33.8635 203.394 33.8437 203.527 33.8262C203.661 33.8072 203.757 33.7786 203.818 33.7405C203.88 33.7009 203.911 33.6398 203.911 33.5573V33.543C203.911 33.3637 203.857 33.2249 203.751 33.1265C203.645 33.0281 203.492 32.9789 203.292 32.9789C203.081 32.9789 202.913 33.0249 202.79 33.117C202.667 33.209 202.585 33.3177 202.542 33.443L201.738 33.3288C201.801 33.1067 201.906 32.921 202.052 32.7719C202.198 32.6211 202.376 32.5085 202.587 32.4339C202.798 32.3577 203.032 32.3197 203.287 32.3197C203.463 32.3197 203.638 32.3403 203.813 32.3815C203.988 32.4228 204.147 32.491 204.291 32.5862C204.436 32.6798 204.552 32.8076 204.639 32.9694C204.728 33.1312 204.772 33.3335 204.772 33.5763V36.0229H203.944V35.5208H203.915C203.863 35.6223 203.789 35.7175 203.694 35.8064C203.6 35.8936 203.482 35.9642 203.339 36.0182C203.198 36.0705 203.032 36.0967 202.842 36.0967ZM203.066 35.4636C203.239 35.4636 203.389 35.4295 203.516 35.3613C203.642 35.2915 203.74 35.1995 203.808 35.0852C203.878 34.971 203.913 34.8464 203.913 34.7116V34.2808C203.886 34.303 203.84 34.3236 203.775 34.3427C203.711 34.3617 203.64 34.3784 203.561 34.3926C203.481 34.4069 203.403 34.4196 203.325 34.4307C203.247 34.4418 203.18 34.4514 203.123 34.4593C202.994 34.4767 202.879 34.5053 202.778 34.545C202.676 34.5846 202.596 34.6402 202.537 34.7116C202.479 34.7814 202.449 34.8718 202.449 34.9829C202.449 35.1416 202.507 35.2613 202.623 35.3423C202.739 35.4232 202.886 35.4636 203.066 35.4636ZM205.823 36.0229V32.3673H206.658V32.9765H206.696C206.763 32.7655 206.877 32.6029 207.039 32.4886C207.202 32.3728 207.389 32.3149 207.598 32.3149C207.646 32.3149 207.699 32.3173 207.758 32.322C207.818 32.3252 207.868 32.3308 207.908 32.3387V33.1312C207.871 33.1186 207.813 33.1074 207.734 33.0979C207.656 33.0868 207.581 33.0813 207.508 33.0813C207.351 33.0813 207.21 33.1154 207.084 33.1836C206.96 33.2502 206.863 33.3431 206.791 33.4621C206.72 33.5811 206.684 33.7183 206.684 33.8738V36.0229H205.823ZM209.311 37.3867C209.194 37.3867 209.085 37.3772 208.985 37.3581C208.887 37.3407 208.808 37.3193 208.749 37.2939L208.949 36.6251C209.137 36.679 209.294 36.6878 209.421 36.6513C209.549 36.6164 209.655 36.4982 209.737 36.2966L209.811 36.0991L208.485 32.3673H209.399L210.242 35.1281H210.28L211.125 32.3673L212.046 32.372L210.577 36.4656C210.509 36.656 210.419 36.8202 210.306 36.9583C210.193 37.0963 210.055 37.2018 209.892 37.2748C209.73 37.3494 209.536 37.3867 209.311 37.3867Z" fill="white"/>
<g filter="url(#filter1_bd)">
<rect x="65.0723" y="38.3064" width="264.418" height="117.81" rx="10.472" fill="url(#paint2_linear)"/>
<rect x="65.3223" y="38.5564" width="263.918" height="117.31" rx="10.222" stroke="white" stroke-opacity="0.2" stroke-width="0.5"/>
</g>
<path d="M156.702 38.3064H237.86V47.7312C237.86 53.5961 237.86 56.5285 236.719 58.7686C235.715 60.739 234.113 62.341 232.142 63.345C229.902 64.4864 226.97 64.4864 221.105 64.4864H173.457C167.592 64.4864 164.66 64.4864 162.42 63.345C160.45 62.341 158.848 60.739 157.844 58.7686C156.702 56.5285 156.702 53.5961 156.702 47.7312V38.3064Z" fill="#15161A" fill-opacity="0.05"/>
<path opacity="0.5" d="M184.667 47.926H186.018L187.826 52.3409H187.898L189.707 47.926H191.057V54.0188H189.998V49.833H189.942L188.258 54.0009H187.466L185.782 49.824H185.726V54.0188H184.667V47.926ZM193.757 54.111C193.467 54.111 193.206 54.0595 192.974 53.9563C192.744 53.8512 192.562 53.6965 192.427 53.4922C192.294 53.2879 192.228 53.0361 192.228 52.7366C192.228 52.4787 192.275 52.2655 192.37 52.0969C192.466 51.9284 192.596 51.7935 192.76 51.6923C192.925 51.5912 193.11 51.5148 193.316 51.4633C193.525 51.4097 193.74 51.371 193.962 51.3472C194.23 51.3195 194.447 51.2947 194.614 51.2729C194.78 51.2491 194.901 51.2134 194.977 51.1658C195.054 51.1162 195.093 51.0398 195.093 50.9367V50.9188C195.093 50.6947 195.026 50.5212 194.893 50.3982C194.76 50.2753 194.569 50.2138 194.319 50.2138C194.055 50.2138 193.846 50.2713 193.691 50.3863C193.539 50.5014 193.435 50.6372 193.382 50.7939L192.376 50.6511C192.456 50.3734 192.587 50.1414 192.769 49.9549C192.952 49.7665 193.175 49.6257 193.438 49.5325C193.702 49.4373 193.994 49.3897 194.313 49.3897C194.533 49.3897 194.752 49.4155 194.971 49.467C195.189 49.5186 195.388 49.6039 195.569 49.7229C195.749 49.8399 195.894 49.9996 196.003 50.2019C196.114 50.4042 196.17 50.657 196.17 50.9605V54.0188H195.134V53.3911H195.099C195.033 53.518 194.941 53.637 194.822 53.7481C194.705 53.8572 194.557 53.9454 194.379 54.0128C194.202 54.0783 193.995 54.111 193.757 54.111ZM194.036 53.3197C194.253 53.3197 194.44 53.277 194.599 53.1917C194.757 53.1045 194.879 52.9894 194.965 52.8466C195.052 52.7038 195.096 52.5482 195.096 52.3796V51.8411C195.062 51.8689 195.004 51.8946 194.923 51.9184C194.844 51.9422 194.754 51.9631 194.655 51.9809C194.556 51.9988 194.458 52.0146 194.361 52.0285C194.264 52.0424 194.179 52.0543 194.108 52.0642C193.947 52.086 193.803 52.1217 193.676 52.1713C193.55 52.2209 193.449 52.2903 193.376 52.3796C193.303 52.4668 193.266 52.5799 193.266 52.7187C193.266 52.9171 193.338 53.0668 193.483 53.1679C193.628 53.2691 193.812 53.3197 194.036 53.3197ZM197.483 54.0188V49.4492H198.527V50.2108H198.575C198.658 49.947 198.801 49.7437 199.003 49.6009C199.207 49.4561 199.44 49.3837 199.702 49.3837C199.762 49.3837 199.828 49.3867 199.901 49.3927C199.977 49.3966 200.039 49.4036 200.089 49.4135V50.4042C200.043 50.3883 199.971 50.3744 199.872 50.3625C199.775 50.3486 199.68 50.3417 199.589 50.3417C199.393 50.3417 199.216 50.3843 199.06 50.4696C198.905 50.5529 198.783 50.6689 198.694 50.8177C198.604 50.9664 198.56 51.138 198.56 51.3324V54.0188H197.483ZM202.84 54.108C202.384 54.108 201.992 54.0079 201.665 53.8076C201.339 53.6073 201.089 53.3306 200.912 52.9775C200.738 52.6225 200.65 52.214 200.65 51.7518C200.65 51.2877 200.74 50.8782 200.918 50.5232C201.097 50.1662 201.348 49.8885 201.674 49.6902C202.001 49.4899 202.388 49.3897 202.834 49.3897C203.205 49.3897 203.533 49.4581 203.819 49.595C204.106 49.7298 204.335 49.9212 204.506 50.1691C204.676 50.4151 204.774 50.7027 204.797 51.0319H203.768C203.726 50.8117 203.627 50.6283 203.471 50.4815C203.316 50.3328 203.109 50.2584 202.849 50.2584C202.629 50.2584 202.435 50.3179 202.269 50.4369C202.102 50.5539 201.972 50.7225 201.879 50.9426C201.788 51.1628 201.742 51.4266 201.742 51.734C201.742 52.0454 201.788 52.3131 201.879 52.5372C201.97 52.7594 202.098 52.9309 202.263 53.0519C202.429 53.1709 202.625 53.2304 202.849 53.2304C203.007 53.2304 203.149 53.2007 203.274 53.1412C203.401 53.0797 203.507 52.9914 203.593 52.8764C203.678 52.7614 203.736 52.6215 203.768 52.4569H204.797C204.772 52.7802 204.676 53.0668 204.512 53.3167C204.347 53.5646 204.123 53.759 203.839 53.8998C203.556 54.0386 203.223 54.108 202.84 54.108ZM206.989 51.3413V54.0188H205.912V47.926H206.965V50.2257H207.019C207.126 49.9678 207.292 49.7645 207.516 49.6158C207.742 49.4651 208.029 49.3897 208.378 49.3897C208.696 49.3897 208.972 49.4561 209.208 49.589C209.444 49.7219 209.627 49.9163 209.756 50.1721C209.887 50.428 209.952 50.7403 209.952 51.1092V54.0188H208.875V51.2758C208.875 50.9684 208.796 50.7294 208.637 50.5589C208.481 50.3863 208.26 50.3 207.977 50.3C207.786 50.3 207.616 50.3417 207.465 50.425C207.316 50.5063 207.199 50.6243 207.114 50.779C207.031 50.9337 206.989 51.1211 206.989 51.3413Z" fill="white"/>
<g filter="url(#filter2_bd)">
<rect x="31.6924" y="57.9414" width="330.522" height="202.895" rx="13.09" fill="url(#paint3_linear)"/>
<rect x="31.9424" y="58.1914" width="330.022" height="202.395" rx="12.84" stroke="white" stroke-opacity="0.5" stroke-width="0.5"/>
</g>
<g clip-path="url(#clip0)">
<path fill-rule="evenodd" clip-rule="evenodd" d="M45.4956 107.33C44.7822 108.73 44.7822 110.563 44.7822 114.228V283.089C44.7822 286.755 44.7822 288.588 45.4956 289.988C46.1231 291.219 47.1243 292.22 48.3559 292.848C49.7559 293.561 51.5887 293.561 55.2542 293.561H207.753C211.418 293.561 213.251 293.561 214.651 292.848C215.883 292.22 216.884 291.219 217.511 289.988C218.225 288.588 218.225 286.755 218.225 283.089V114.228C218.225 110.563 218.225 108.73 217.511 107.33C216.884 106.098 215.883 105.097 214.651 104.47C213.251 103.756 211.418 103.756 207.753 103.756H55.2542C51.5887 103.756 49.7559 103.756 48.3559 104.47C47.1243 105.097 46.1231 106.098 45.4956 107.33ZM196.204 176.001C194.542 176.001 193.195 177.348 193.195 179.01V208.315C193.195 209.977 194.542 211.324 196.204 211.324C197.865 211.324 199.212 209.977 199.212 208.315V179.01C199.212 177.348 197.865 176.001 196.204 176.001ZM97.2038 192.219C97.2038 190.558 98.5508 189.211 100.212 189.211C101.874 189.211 103.221 190.558 103.221 192.219V208.74C103.221 210.402 101.874 211.749 100.212 211.749C98.5508 211.749 97.2038 210.402 97.2038 208.74V192.219ZM64.7903 204.664C64.7903 203.003 66.1372 201.656 67.7987 201.656C69.4602 201.656 70.8071 203.003 70.8071 204.664V208.315C70.8071 209.977 69.4602 211.324 67.7987 211.324C66.1372 211.324 64.7903 209.977 64.7903 208.315V204.664ZM132.001 190.799C130.34 190.799 128.993 192.146 128.993 193.807V208.315C128.993 209.977 130.34 211.324 132.001 211.324C133.663 211.324 135.01 209.977 135.01 208.315V193.807C135.01 192.146 133.663 190.799 132.001 190.799ZM160.782 202.963C160.782 201.302 162.129 199.955 163.79 199.955C165.452 199.955 166.799 201.302 166.799 202.963V208.315C166.799 209.977 165.452 211.324 163.79 211.324C162.129 211.324 160.782 209.977 160.782 208.315V202.963ZM80.6549 195.621C80.6549 193.96 82.0019 192.613 83.6634 192.613C85.3249 192.613 86.6718 193.96 86.6718 195.621V208.315C86.6718 209.977 85.3249 211.324 83.6634 211.324C82.0019 211.324 80.6549 209.977 80.6549 208.315V195.621ZM116.077 177.078C114.415 177.078 113.068 178.425 113.068 180.086V208.74C113.068 210.402 114.415 211.749 116.077 211.749C117.738 211.749 119.085 210.402 119.085 208.74V180.086C119.085 178.425 117.738 177.078 116.077 177.078ZM144.858 198.06C144.858 196.398 146.204 195.051 147.866 195.051C149.527 195.051 150.874 196.398 150.874 198.06V208.315C150.874 209.977 149.527 211.324 147.866 211.324C146.204 211.324 144.858 209.977 144.858 208.315V198.06ZM179.655 189.211C177.994 189.211 176.647 190.558 176.647 192.219V208.315C176.647 209.977 177.994 211.324 179.655 211.324C181.317 211.324 182.663 209.977 182.663 208.315V192.219C182.663 190.558 181.317 189.211 179.655 189.211Z" fill="#2F1872" fill-opacity="0.2"/>
<path d="M68.9409 163.072L69.0301 148.792H70.2127L70.1234 163.072H68.9409ZM71.7522 153.361C71.7002 152.874 71.4808 152.494 71.094 152.223C70.711 151.951 70.2127 151.816 69.5991 151.816C69.1677 151.816 68.7977 151.881 68.489 152.011C68.1804 152.141 67.9442 152.318 67.7806 152.541C67.617 152.764 67.5333 153.019 67.5296 153.305C67.5296 153.543 67.5835 153.749 67.6914 153.924C67.8029 154.099 67.9535 154.248 68.1432 154.37C68.3328 154.489 68.5429 154.59 68.7735 154.672C69.0041 154.753 69.2365 154.822 69.4708 154.878L70.5418 155.146C70.9731 155.246 71.3878 155.382 71.7857 155.553C72.1873 155.724 72.5462 155.94 72.8623 156.2C73.1821 156.46 73.435 156.775 73.6209 157.143C73.8068 157.511 73.8998 157.942 73.8998 158.437C73.8998 159.106 73.7287 159.696 73.3866 160.205C73.0445 160.711 72.5499 161.107 71.9028 161.393C71.2595 161.676 70.4804 161.817 69.5656 161.817C68.6768 161.817 67.9052 161.68 67.2507 161.404C66.5999 161.129 66.0904 160.728 65.7223 160.2C65.3578 159.671 65.1607 159.028 65.131 158.27H67.167C67.1968 158.667 67.3195 158.998 67.5352 159.262C67.7509 159.526 68.0316 159.724 68.3775 159.854C68.727 159.984 69.1175 160.049 69.5489 160.049C69.9988 160.049 70.393 159.982 70.7314 159.848C71.0736 159.711 71.3413 159.521 71.5347 159.279C71.7281 159.034 71.8266 158.747 71.8303 158.42C71.8266 158.123 71.7392 157.877 71.5681 157.684C71.3971 157.487 71.1572 157.323 70.8486 157.193C70.5436 157.059 70.1866 156.94 69.7776 156.836L68.4779 156.501C67.537 156.26 66.7933 155.893 66.2466 155.402C65.7037 154.908 65.4322 154.251 65.4322 153.433C65.4322 152.76 65.6144 152.171 65.9789 151.665C66.347 151.159 66.8472 150.767 67.4794 150.488C68.1116 150.205 68.8274 150.064 69.627 150.064C70.4376 150.064 71.1479 150.205 71.7578 150.488C72.3714 150.767 72.853 151.156 73.2025 151.654C73.5521 152.148 73.7325 152.717 73.7436 153.361H71.7522ZM79.5993 150.031C80.1459 150.034 80.6777 150.131 81.1946 150.321C81.7152 150.51 82.1838 150.817 82.6003 151.241C83.0168 151.665 83.3478 152.232 83.5932 152.942C83.8386 153.653 83.9613 154.532 83.9613 155.581C83.9613 156.563 83.8554 157.44 83.6434 158.214C83.4351 158.984 83.1358 159.634 82.7453 160.166C82.3586 160.698 81.89 161.103 81.3396 161.382C80.7893 161.661 80.1701 161.8 79.4821 161.8C78.7607 161.8 78.1211 161.659 77.5632 161.377C77.0091 161.094 76.561 160.707 76.2189 160.216C75.8768 159.725 75.6667 159.164 75.5886 158.532H77.6246C77.7287 158.985 77.9407 159.346 78.2605 159.614C78.584 159.878 78.9912 160.01 79.4821 160.01C80.2742 160.01 80.8841 159.666 81.3117 158.978C81.7394 158.29 81.9532 157.334 81.9532 156.111H81.8751C81.6929 156.438 81.4568 156.721 81.1667 156.959C80.8766 157.193 80.5475 157.373 80.1794 157.5C79.8149 157.626 79.4282 157.689 79.0191 157.689C78.3498 157.689 77.7473 157.529 77.2118 157.21C76.6763 156.89 76.2524 156.451 75.94 155.893C75.6313 155.332 75.477 154.69 75.477 153.969C75.477 153.218 75.6481 152.545 75.9902 151.95C76.3361 151.355 76.8176 150.886 77.4349 150.544C78.0523 150.198 78.7737 150.027 79.5993 150.031ZM79.6048 151.704C79.2032 151.704 78.8406 151.803 78.5171 152C78.1973 152.197 77.9444 152.463 77.7585 152.797C77.5763 153.132 77.4851 153.508 77.4851 153.924C77.4851 154.333 77.5744 154.705 77.7529 155.04C77.9351 155.371 78.1843 155.633 78.5004 155.826C78.8165 156.02 79.1772 156.116 79.5825 156.116C79.8837 156.116 80.1645 156.059 80.4248 155.943C80.6851 155.824 80.912 155.663 81.1053 155.458C81.2987 155.254 81.4493 155.019 81.5572 154.755C81.6687 154.488 81.7245 154.207 81.7245 153.913C81.7245 153.515 81.6316 153.149 81.4456 152.814C81.2634 152.479 81.0124 152.212 80.6926 152.011C80.3765 151.806 80.0139 151.704 79.6048 151.704ZM89.7849 150.031C90.3316 150.034 90.8633 150.131 91.3803 150.321C91.9009 150.51 92.3694 150.817 92.7859 151.241C93.2024 151.665 93.5334 152.232 93.7788 152.942C94.0243 153.653 94.147 154.532 94.147 155.581C94.147 156.563 94.041 157.44 93.8291 158.214C93.6208 158.984 93.3214 159.634 92.931 160.166C92.5442 160.698 92.0757 161.103 91.5253 161.382C90.9749 161.661 90.3557 161.8 89.6678 161.8C88.9463 161.8 88.3067 161.659 87.7489 161.377C87.1948 161.094 86.7467 160.707 86.4046 160.216C86.0624 159.725 85.8523 159.164 85.7742 158.532H87.8103C87.9144 158.985 88.1263 159.346 88.4462 159.614C88.7697 159.878 89.1769 160.01 89.6678 160.01C90.4599 160.01 91.0697 159.666 91.4974 158.978C91.9251 158.29 92.1389 157.334 92.1389 156.111H92.0608C91.8786 156.438 91.6424 156.721 91.3524 156.959C91.0623 157.193 90.7332 157.373 90.365 157.5C90.0006 157.626 89.6138 157.689 89.2048 157.689C88.5354 157.689 87.933 157.529 87.3975 157.21C86.862 156.89 86.438 156.451 86.1257 155.893C85.817 155.332 85.6627 154.69 85.6627 153.969C85.6627 153.218 85.8337 152.545 86.1759 151.95C86.5217 151.355 87.0033 150.886 87.6206 150.544C88.2379 150.198 88.9593 150.027 89.7849 150.031ZM89.7905 151.704C89.3889 151.704 89.0263 151.803 88.7028 152C88.3829 152.197 88.1301 152.463 87.9441 152.797C87.7619 153.132 87.6708 153.508 87.6708 153.924C87.6708 154.333 87.7601 154.705 87.9386 155.04C88.1208 155.371 88.3699 155.633 88.686 155.826C89.0021 156.02 89.3628 156.116 89.7682 156.116C90.0694 156.116 90.3502 156.059 90.6105 155.943C90.8708 155.824 91.0976 155.663 91.291 155.458C91.4844 155.254 91.635 155.019 91.7428 154.755C91.8544 154.488 91.9102 154.207 91.9102 153.913C91.9102 153.515 91.8172 153.149 91.6313 152.814C91.4491 152.479 91.198 152.212 90.8782 152.011C90.5621 151.806 90.1996 151.704 89.7905 151.704ZM100.065 161.8C99.2361 161.8 98.4998 161.661 97.8565 161.382C97.2168 161.103 96.7148 160.722 96.3504 160.239C95.9896 159.751 95.8111 159.199 95.8149 158.582C95.8111 158.102 95.9153 157.662 96.1272 157.26C96.3392 156.858 96.6256 156.524 96.9863 156.256C97.3507 155.984 97.7561 155.811 98.2023 155.737V155.659C97.6147 155.529 97.1387 155.229 96.7743 154.761C96.4136 154.289 96.2351 153.744 96.2388 153.126C96.2351 152.539 96.3987 152.015 96.7297 151.553C97.0606 151.092 97.5143 150.73 98.0907 150.466C98.6671 150.198 99.3254 150.064 100.065 150.064C100.798 150.064 101.451 150.198 102.023 150.466C102.6 150.73 103.053 151.092 103.384 151.553C103.719 152.015 103.886 152.539 103.886 153.126C103.886 153.744 103.702 154.289 103.334 154.761C102.97 155.229 102.499 155.529 101.923 155.659V155.737C102.369 155.811 102.771 155.984 103.128 156.256C103.489 156.524 103.775 156.858 103.987 157.26C104.203 157.662 104.31 158.102 104.31 158.582C104.31 159.199 104.128 159.751 103.764 160.239C103.399 160.722 102.897 161.103 102.258 161.382C101.622 161.661 100.891 161.8 100.065 161.8ZM100.065 160.205C100.493 160.205 100.865 160.133 101.181 159.988C101.497 159.839 101.743 159.631 101.917 159.363C102.092 159.095 102.181 158.786 102.185 158.437C102.181 158.072 102.087 157.751 101.901 157.472C101.718 157.189 101.467 156.968 101.148 156.808C100.831 156.648 100.471 156.568 100.065 156.568C99.6563 156.568 99.2919 156.648 98.9721 156.808C98.6523 156.968 98.3994 157.189 98.2135 157.472C98.0312 157.751 97.942 158.072 97.9457 158.437C97.942 158.786 98.0275 159.095 98.2023 159.363C98.3771 159.627 98.6225 159.833 98.9386 159.982C99.2584 160.131 99.634 160.205 100.065 160.205ZM100.065 155.001C100.415 155.001 100.724 154.93 100.991 154.789C101.263 154.647 101.477 154.45 101.633 154.197C101.789 153.945 101.869 153.653 101.873 153.322C101.869 152.994 101.791 152.708 101.638 152.463C101.486 152.214 101.274 152.022 101.003 151.888C100.731 151.751 100.419 151.682 100.065 151.682C99.7047 151.682 99.3867 151.751 99.1115 151.888C98.8401 152.022 98.6281 152.214 98.4756 152.463C98.3269 152.708 98.2544 152.994 98.2581 153.322C98.2544 153.653 98.3287 153.945 98.4812 154.197C98.6374 154.447 98.8512 154.644 99.1227 154.789C99.3979 154.93 99.7121 155.001 100.065 155.001ZM108.2 160.082L108.127 160.696C108.075 161.165 107.982 161.641 107.848 162.124C107.718 162.611 107.581 163.059 107.435 163.468C107.29 163.877 107.173 164.199 107.084 164.433H105.723C105.775 164.207 105.846 163.898 105.935 163.507C106.028 163.117 106.117 162.678 106.203 162.191C106.288 161.704 106.346 161.209 106.376 160.707L106.415 160.082H108.2ZM114.156 161.8C113.352 161.8 112.638 161.663 112.014 161.388C111.393 161.113 110.902 160.729 110.541 160.239C110.18 159.748 109.989 159.181 109.967 158.537H112.064C112.083 158.846 112.185 159.116 112.371 159.346C112.557 159.573 112.804 159.75 113.113 159.876C113.421 160.002 113.767 160.066 114.15 160.066C114.559 160.066 114.922 159.995 115.238 159.854C115.554 159.709 115.801 159.508 115.98 159.251C116.158 158.995 116.246 158.699 116.242 158.364C116.246 158.019 116.156 157.714 115.974 157.45C115.792 157.186 115.528 156.979 115.182 156.83C114.84 156.682 114.427 156.607 113.944 156.607H112.934V155.012H113.944C114.342 155.012 114.689 154.943 114.987 154.806C115.288 154.668 115.524 154.475 115.695 154.225C115.866 153.973 115.95 153.681 115.946 153.35C115.95 153.026 115.878 152.745 115.729 152.507C115.584 152.266 115.377 152.078 115.11 151.944C114.846 151.81 114.535 151.743 114.178 151.743C113.828 151.743 113.505 151.806 113.207 151.933C112.91 152.059 112.67 152.24 112.488 152.474C112.306 152.704 112.209 152.98 112.198 153.299H110.206C110.221 152.66 110.405 152.098 110.759 151.615C111.116 151.128 111.592 150.748 112.187 150.477C112.782 150.202 113.449 150.064 114.189 150.064C114.952 150.064 115.613 150.207 116.175 150.494C116.74 150.776 117.177 151.157 117.486 151.637C117.795 152.117 117.949 152.647 117.949 153.227C117.953 153.87 117.763 154.409 117.38 154.845C117.001 155.28 116.502 155.564 115.885 155.698V155.787C116.688 155.899 117.304 156.196 117.731 156.68C118.163 157.159 118.377 157.756 118.373 158.47C118.373 159.11 118.191 159.683 117.826 160.188C117.465 160.69 116.967 161.085 116.331 161.371C115.699 161.657 114.974 161.8 114.156 161.8ZM124.471 161.8C123.924 161.797 123.391 161.702 122.87 161.516C122.353 161.326 121.887 161.02 121.47 160.596C121.054 160.168 120.723 159.601 120.477 158.894C120.232 158.184 120.109 157.305 120.109 156.256C120.109 155.27 120.213 154.393 120.421 153.623C120.63 152.853 120.929 152.202 121.319 151.671C121.71 151.135 122.18 150.728 122.731 150.449C123.285 150.17 123.904 150.031 124.588 150.031C125.306 150.031 125.942 150.174 126.496 150.46C127.054 150.743 127.504 151.131 127.846 151.626C128.188 152.117 128.4 152.675 128.482 153.299H126.446C126.342 152.846 126.128 152.487 125.804 152.223C125.484 151.955 125.079 151.821 124.588 151.821C123.796 151.821 123.186 152.167 122.759 152.859C122.335 153.55 122.121 154.504 122.117 155.72H122.195C122.377 155.393 122.614 155.112 122.904 154.878C123.194 154.644 123.521 154.463 123.885 154.337C124.254 154.207 124.642 154.142 125.051 154.142C125.721 154.142 126.321 154.302 126.853 154.621C127.388 154.941 127.812 155.382 128.125 155.943C128.437 156.501 128.591 157.141 128.588 157.862C128.591 158.614 128.42 159.288 128.075 159.887C127.729 160.482 127.247 160.951 126.63 161.293C126.013 161.635 125.293 161.804 124.471 161.8ZM124.46 160.127C124.865 160.127 125.228 160.028 125.548 159.831C125.867 159.634 126.12 159.368 126.306 159.034C126.492 158.699 126.583 158.323 126.58 157.907C126.583 157.498 126.494 157.128 126.312 156.797C126.133 156.466 125.886 156.204 125.57 156.01C125.254 155.817 124.893 155.72 124.488 155.72C124.187 155.72 123.906 155.778 123.646 155.893C123.385 156.009 123.158 156.168 122.965 156.373C122.772 156.574 122.619 156.808 122.508 157.076C122.4 157.34 122.344 157.622 122.34 157.924C122.344 158.322 122.437 158.688 122.619 159.023C122.801 159.357 123.052 159.625 123.372 159.826C123.692 160.027 124.055 160.127 124.46 160.127ZM130.473 161.644V160.149L134.439 156.261C134.819 155.878 135.135 155.538 135.387 155.241C135.64 154.943 135.83 154.655 135.956 154.376C136.083 154.097 136.146 153.8 136.146 153.483C136.146 153.123 136.064 152.814 135.901 152.558C135.737 152.297 135.512 152.096 135.226 151.955C134.939 151.814 134.614 151.743 134.25 151.743C133.874 151.743 133.545 151.821 133.262 151.977C132.98 152.13 132.76 152.347 132.604 152.63C132.452 152.913 132.375 153.249 132.375 153.64H130.406C130.406 152.915 130.572 152.284 130.903 151.749C131.234 151.213 131.689 150.799 132.269 150.505C132.853 150.211 133.523 150.064 134.277 150.064C135.043 150.064 135.717 150.207 136.297 150.494C136.877 150.78 137.327 151.172 137.647 151.671C137.97 152.169 138.132 152.738 138.132 153.378C138.132 153.805 138.05 154.225 137.886 154.638C137.723 155.051 137.435 155.508 137.022 156.01C136.613 156.512 136.038 157.12 135.298 157.834L133.329 159.837V159.915H138.305V161.644H130.473ZM141.496 161.767C141.157 161.767 140.867 161.648 140.625 161.41C140.384 161.172 140.265 160.882 140.268 160.54C140.265 160.205 140.384 159.919 140.625 159.681C140.867 159.443 141.157 159.324 141.496 159.324C141.823 159.324 142.107 159.443 142.349 159.681C142.594 159.919 142.719 160.205 142.723 160.54C142.719 160.767 142.659 160.973 142.544 161.159C142.433 161.345 142.284 161.494 142.098 161.605C141.916 161.713 141.715 161.767 141.496 161.767ZM148.417 161.8C147.587 161.8 146.851 161.661 146.208 161.382C145.568 161.103 145.066 160.722 144.702 160.239C144.341 159.751 144.162 159.199 144.166 158.582C144.162 158.102 144.266 157.662 144.478 157.26C144.69 156.858 144.977 156.524 145.337 156.256C145.702 155.984 146.107 155.811 146.553 155.737V155.659C145.966 155.529 145.49 155.229 145.125 154.761C144.765 154.289 144.586 153.744 144.59 153.126C144.586 152.539 144.75 152.015 145.081 151.553C145.412 151.092 145.866 150.73 146.442 150.466C147.018 150.198 147.677 150.064 148.417 150.064C149.149 150.064 149.802 150.198 150.375 150.466C150.951 150.73 151.405 151.092 151.736 151.553C152.07 152.015 152.238 152.539 152.238 153.126C152.238 153.744 152.054 154.289 151.685 154.761C151.321 155.229 150.851 155.529 150.274 155.659V155.737C150.72 155.811 151.122 155.984 151.479 156.256C151.84 156.524 152.126 156.858 152.338 157.26C152.554 157.662 152.662 158.102 152.662 158.582C152.662 159.199 152.479 159.751 152.115 160.239C151.75 160.722 151.248 161.103 150.609 161.382C149.973 161.661 149.242 161.8 148.417 161.8ZM148.417 160.205C148.844 160.205 149.216 160.133 149.532 159.988C149.848 159.839 150.094 159.631 150.269 159.363C150.443 159.095 150.533 158.786 150.536 158.437C150.533 158.072 150.438 157.751 150.252 157.472C150.07 157.189 149.819 156.968 149.499 156.808C149.183 156.648 148.822 156.568 148.417 156.568C148.008 156.568 147.643 156.648 147.323 156.808C147.003 156.968 146.751 157.189 146.565 157.472C146.382 157.751 146.293 158.072 146.297 158.437C146.293 158.786 146.379 159.095 146.553 159.363C146.728 159.627 146.974 159.833 147.29 159.982C147.61 160.131 147.985 160.205 148.417 160.205ZM148.417 155.001C148.766 155.001 149.075 154.93 149.343 154.789C149.614 154.647 149.828 154.45 149.984 154.197C150.14 153.945 150.22 153.653 150.224 153.322C150.22 152.994 150.142 152.708 149.99 152.463C149.837 152.214 149.625 152.022 149.354 151.888C149.082 151.751 148.77 151.682 148.417 151.682C148.056 151.682 147.738 151.751 147.463 151.888C147.191 152.022 146.979 152.214 146.827 152.463C146.678 152.708 146.606 152.994 146.609 153.322C146.606 153.653 146.68 153.945 146.832 154.197C146.989 154.447 147.202 154.644 147.474 154.789C147.749 154.93 148.063 155.001 148.417 155.001ZM154.495 161.644V160.149L158.461 156.261C158.841 155.878 159.157 155.538 159.41 155.241C159.663 154.943 159.852 154.655 159.979 154.376C160.105 154.097 160.168 153.8 160.168 153.483C160.168 153.123 160.086 152.814 159.923 152.558C159.759 152.297 159.534 152.096 159.248 151.955C158.962 151.814 158.636 151.743 158.272 151.743C157.896 151.743 157.567 151.821 157.284 151.977C157.002 152.13 156.782 152.347 156.626 152.63C156.474 152.913 156.397 153.249 156.397 153.64H154.428C154.428 152.915 154.594 152.284 154.925 151.749C155.256 151.213 155.711 150.799 156.292 150.505C156.875 150.211 157.545 150.064 158.3 150.064C159.066 150.064 159.739 150.207 160.319 150.494C160.899 150.78 161.349 151.172 161.669 151.671C161.992 152.169 162.154 152.738 162.154 153.378C162.154 153.805 162.072 154.225 161.909 154.638C161.745 155.051 161.457 155.508 161.044 156.01C160.635 156.512 160.06 157.12 159.32 157.834L157.351 159.837V159.915H162.327V161.644H154.495Z" fill="white"/>
<path d="M65.3583 134.119V125.551H68.4123C69.0789 125.551 69.6311 125.672 70.069 125.915C70.5069 126.158 70.8346 126.489 71.0522 126.911C71.2697 127.329 71.3785 127.8 71.3785 128.325C71.3785 128.852 71.2683 129.326 71.048 129.747C70.8304 130.165 70.5013 130.497 70.0607 130.743C69.6228 130.985 69.0719 131.107 68.4081 131.107H66.308V130.011H68.291C68.7121 130.011 69.0538 129.938 69.316 129.793C69.5782 129.645 69.7706 129.444 69.8933 129.191C70.016 128.937 70.0774 128.648 70.0774 128.325C70.0774 128.001 70.016 127.714 69.8933 127.463C69.7706 127.212 69.5768 127.015 69.3118 126.873C69.0496 126.731 68.7038 126.66 68.2743 126.66H66.651V134.119H65.3583ZM72.9703 134.119V127.693H74.1794V128.714H74.2463C74.3634 128.368 74.5698 128.096 74.8655 127.898C75.1639 127.697 75.5014 127.597 75.8779 127.597C75.956 127.597 76.048 127.599 76.154 127.605C76.2628 127.611 76.3479 127.618 76.4092 127.626V128.822C76.359 128.809 76.2698 128.793 76.1415 128.776C76.0132 128.757 75.8849 128.747 75.7566 128.747C75.4609 128.747 75.1974 128.81 74.9659 128.935C74.7372 129.058 74.5559 129.23 74.422 129.45C74.2881 129.668 74.2212 129.916 74.2212 130.195V134.119H72.9703ZM80.1451 134.249C79.5427 134.249 79.017 134.111 78.5679 133.834C78.1189 133.558 77.7702 133.172 77.522 132.676C77.2738 132.179 77.1497 131.599 77.1497 130.935C77.1497 130.269 77.2738 129.686 77.522 129.186C77.7702 128.687 78.1189 128.3 78.5679 128.023C79.017 127.747 79.5427 127.609 80.1451 127.609C80.7476 127.609 81.2733 127.747 81.7223 128.023C82.1714 128.3 82.52 128.687 82.7682 129.186C83.0165 129.686 83.1406 130.269 83.1406 130.935C83.1406 131.599 83.0165 132.179 82.7682 132.676C82.52 133.172 82.1714 133.558 81.7223 133.834C81.2733 134.111 80.7476 134.249 80.1451 134.249ZM80.1493 133.199C80.5398 133.199 80.8633 133.095 81.1199 132.889C81.3765 132.683 81.5662 132.408 81.6889 132.065C81.8144 131.722 81.8771 131.344 81.8771 130.931C81.8771 130.521 81.8144 130.144 81.6889 129.801C81.5662 129.456 81.3765 129.178 81.1199 128.969C80.8633 128.76 80.5398 128.655 80.1493 128.655C79.7561 128.655 79.4297 128.76 79.1704 128.969C78.9138 129.178 78.7227 129.456 78.5972 129.801C78.4745 130.144 78.4131 130.521 78.4131 130.931C78.4131 131.344 78.4745 131.722 78.5972 132.065C78.7227 132.408 78.9138 132.683 79.1704 132.889C79.4297 133.095 79.7561 133.199 80.1493 133.199ZM87.7718 127.693V128.697H84.1404V127.693H87.7718ZM85.1361 134.119V126.948C85.1361 126.547 85.224 126.213 85.3997 125.948C85.5754 125.681 85.8083 125.481 86.0983 125.35C86.3884 125.216 86.7036 125.149 87.0438 125.149C87.2948 125.149 87.5096 125.17 87.6881 125.212C87.8666 125.251 87.9991 125.287 88.0855 125.321L87.7927 126.333C87.7341 126.316 87.6588 126.297 87.5668 126.275C87.4747 126.25 87.3632 126.237 87.2321 126.237C86.9281 126.237 86.7105 126.312 86.5795 126.463C86.4512 126.614 86.387 126.831 86.387 127.116V134.119H85.1361ZM89.2391 134.119V127.693H90.49V134.119H89.2391ZM89.8709 126.701C89.6533 126.701 89.4664 126.629 89.3103 126.484C89.1569 126.336 89.0802 126.16 89.0802 125.957C89.0802 125.75 89.1569 125.575 89.3103 125.43C89.4664 125.282 89.6533 125.208 89.8709 125.208C90.0884 125.208 90.2739 125.282 90.4273 125.43C90.5835 125.575 90.6616 125.75 90.6616 125.957C90.6616 126.16 90.5835 126.336 90.4273 126.484C90.2739 126.629 90.0884 126.701 89.8709 126.701ZM95.3492 127.693V128.697H91.8392V127.693H95.3492ZM92.7805 126.153H94.0314V132.232C94.0314 132.475 94.0677 132.657 94.1402 132.78C94.2127 132.9 94.3061 132.982 94.4205 133.027C94.5376 133.069 94.6645 133.09 94.8012 133.09C94.9016 133.09 94.9894 133.083 95.0647 133.069C95.14 133.055 95.1986 133.044 95.2405 133.035L95.4664 134.069C95.3939 134.097 95.2907 134.124 95.1568 134.152C95.0229 134.183 94.8556 134.2 94.6548 134.203C94.3256 134.208 94.0188 134.15 93.7344 134.027C93.4499 133.904 93.2198 133.714 93.0441 133.458C92.8684 133.201 92.7805 132.879 92.7805 132.491V126.153Z" fill="white"/>
</g>
<g clip-path="url(#clip1)">
<path fill-rule="evenodd" clip-rule="evenodd" d="M232.028 107.33C231.315 108.73 231.315 110.563 231.315 114.228V243.819C231.315 247.485 231.315 249.318 232.028 250.718C232.656 251.949 233.657 252.951 234.889 253.578C236.289 254.291 238.121 254.291 241.787 254.291H338.653C342.318 254.291 344.151 254.291 345.551 253.578C346.783 252.951 347.784 251.949 348.412 250.718C349.125 249.318 349.125 247.485 349.125 243.819V114.228C349.125 110.563 349.125 108.73 348.412 107.33C347.784 106.098 346.783 105.097 345.551 104.47C344.151 103.756 342.318 103.756 338.653 103.756H241.787C238.121 103.756 236.289 103.756 234.889 104.47C233.657 105.097 232.656 106.098 232.028 107.33ZM331.663 174.291C330.856 173.091 329.229 172.772 328.029 173.579L311.832 184.467L297.884 183.95L297.699 183.948C296.765 183.961 295.724 184.32 295.001 184.888L280.085 196.606L265.361 198.129L252.655 187.224L252.543 187.134C251.448 186.292 249.874 186.445 248.963 187.506C248.022 188.603 248.148 190.256 249.245 191.198L262.306 202.408L262.447 202.522C263.263 203.153 264.412 203.491 265.43 203.386L280.727 201.804L280.911 201.78C281.718 201.658 282.612 201.28 283.24 200.786L297.995 189.193L311.835 189.707L312.02 189.709C312.893 189.699 313.878 189.401 314.59 188.922L330.951 177.924L331.064 177.843C332.17 177.013 332.443 175.452 331.663 174.291Z" fill="#2F1872" fill-opacity="0.2"/>
<path d="M256.612 150.22V161.644H254.542V152.234H254.475L251.803 153.941V152.044L254.642 150.22H256.612ZM263.573 161.8C262.744 161.8 262.007 161.661 261.364 161.382C260.724 161.103 260.222 160.722 259.858 160.239C259.497 159.751 259.319 159.199 259.322 158.582C259.319 158.102 259.423 157.662 259.635 157.26C259.847 156.858 260.133 156.524 260.494 156.256C260.858 155.984 261.264 155.811 261.71 155.737V155.659C261.122 155.529 260.646 155.229 260.282 154.761C259.921 154.289 259.743 153.744 259.746 153.126C259.743 152.539 259.906 152.015 260.237 151.553C260.568 151.092 261.022 150.73 261.598 150.466C262.175 150.198 262.833 150.064 263.573 150.064C264.306 150.064 264.958 150.198 265.531 150.466C266.107 150.73 266.561 151.092 266.892 151.553C267.227 152.015 267.394 152.539 267.394 153.126C267.394 153.744 267.21 154.289 266.842 154.761C266.477 155.229 266.007 155.529 265.431 155.659V155.737C265.877 155.811 266.278 155.984 266.635 156.256C266.996 156.524 267.282 156.858 267.494 157.26C267.71 157.662 267.818 158.102 267.818 158.582C267.818 159.199 267.636 159.751 267.271 160.239C266.907 160.722 266.405 161.103 265.765 161.382C265.129 161.661 264.399 161.8 263.573 161.8ZM263.573 160.205C264.001 160.205 264.373 160.133 264.689 159.988C265.005 159.839 265.25 159.631 265.425 159.363C265.6 159.095 265.689 158.786 265.693 158.437C265.689 158.072 265.594 157.751 265.408 157.472C265.226 157.189 264.975 156.968 264.655 156.808C264.339 156.648 263.978 156.568 263.573 156.568C263.164 156.568 262.8 156.648 262.48 156.808C262.16 156.968 261.907 157.189 261.721 157.472C261.539 157.751 261.45 158.072 261.453 158.437C261.45 158.786 261.535 159.095 261.71 159.363C261.885 159.627 262.13 159.833 262.446 159.982C262.766 160.131 263.142 160.205 263.573 160.205ZM263.573 155.001C263.923 155.001 264.231 154.93 264.499 154.789C264.77 154.647 264.984 154.45 265.14 154.197C265.297 153.945 265.377 153.653 265.38 153.322C265.377 152.994 265.299 152.708 265.146 152.463C264.994 152.214 264.782 152.022 264.51 151.888C264.239 151.751 263.926 151.682 263.573 151.682C263.212 151.682 262.894 151.751 262.619 151.888C262.348 152.022 262.136 152.214 261.983 152.463C261.834 152.708 261.762 152.994 261.766 153.322C261.762 153.653 261.836 153.945 261.989 154.197C262.145 154.447 262.359 154.644 262.63 154.789C262.905 154.93 263.22 155.001 263.573 155.001ZM270.581 161.767C270.242 161.767 269.952 161.648 269.71 161.41C269.469 161.172 269.35 160.882 269.353 160.54C269.35 160.205 269.469 159.919 269.71 159.681C269.952 159.443 270.242 159.324 270.581 159.324C270.908 159.324 271.192 159.443 271.434 159.681C271.679 159.919 271.804 160.205 271.808 160.54C271.804 160.767 271.744 160.973 271.629 161.159C271.518 161.345 271.369 161.494 271.183 161.605C271.001 161.713 270.8 161.767 270.581 161.767ZM277.609 161.8C277.062 161.797 276.529 161.702 276.008 161.516C275.491 161.326 275.024 161.02 274.608 160.596C274.191 160.168 273.86 159.601 273.615 158.894C273.37 158.184 273.247 157.305 273.247 156.256C273.247 155.27 273.351 154.393 273.559 153.623C273.767 152.853 274.067 152.202 274.457 151.671C274.848 151.135 275.318 150.728 275.869 150.449C276.423 150.17 277.042 150.031 277.726 150.031C278.444 150.031 279.08 150.174 279.634 150.46C280.192 150.743 280.642 151.131 280.984 151.626C281.326 152.117 281.538 152.675 281.62 153.299H279.584C279.479 152.846 279.266 152.487 278.942 152.223C278.622 151.955 278.217 151.821 277.726 151.821C276.934 151.821 276.324 152.167 275.896 152.859C275.473 153.55 275.259 154.504 275.255 155.72H275.333C275.515 155.393 275.751 155.112 276.042 154.878C276.332 154.644 276.659 154.463 277.023 154.337C277.391 154.207 277.78 154.142 278.189 154.142C278.858 154.142 279.459 154.302 279.991 154.621C280.526 154.941 280.95 155.382 281.263 155.943C281.575 156.501 281.729 157.141 281.726 157.862C281.729 158.614 281.558 159.288 281.212 159.887C280.867 160.482 280.385 160.951 279.768 161.293C279.15 161.635 278.431 161.804 277.609 161.8ZM277.598 160.127C278.003 160.127 278.366 160.028 278.686 159.831C279.005 159.634 279.258 159.368 279.444 159.034C279.63 158.699 279.721 158.323 279.717 157.907C279.721 157.498 279.632 157.128 279.45 156.797C279.271 156.466 279.024 156.204 278.708 156.01C278.392 155.817 278.031 155.72 277.626 155.72C277.324 155.72 277.044 155.778 276.783 155.893C276.523 156.009 276.296 156.168 276.103 156.373C275.909 156.574 275.757 156.808 275.645 157.076C275.538 157.34 275.482 157.622 275.478 157.924C275.482 158.322 275.575 158.688 275.757 159.023C275.939 159.357 276.19 159.625 276.51 159.826C276.83 160.027 277.192 160.127 277.598 160.127ZM289.719 159.502V158.9C289.719 158.457 289.812 158.05 289.998 157.678C290.188 157.306 290.463 157.007 290.824 156.78C291.184 156.553 291.621 156.44 292.134 156.44C292.662 156.44 293.105 156.553 293.462 156.78C293.823 157.003 294.094 157.301 294.276 157.673C294.462 158.045 294.553 158.454 294.55 158.9V159.502C294.553 159.945 294.462 160.352 294.276 160.724C294.09 161.096 293.817 161.395 293.456 161.622C293.096 161.849 292.655 161.962 292.134 161.962C291.614 161.962 291.173 161.849 290.812 161.622C290.455 161.395 290.184 161.096 289.998 160.724C289.812 160.352 289.719 159.945 289.719 159.502ZM291.175 158.9V159.502C291.179 159.796 291.249 160.066 291.387 160.311C291.528 160.557 291.777 160.679 292.134 160.679C292.495 160.679 292.744 160.558 292.882 160.317C293.019 160.071 293.086 159.8 293.083 159.502V158.9C293.086 158.602 293.021 158.331 292.887 158.085C292.757 157.836 292.506 157.712 292.134 157.712C291.785 157.712 291.538 157.836 291.393 158.085C291.251 158.331 291.179 158.602 291.175 158.9ZM283.912 152.965V152.362C283.912 151.916 284.007 151.507 284.197 151.135C284.386 150.763 284.662 150.466 285.022 150.243C285.383 150.016 285.82 149.902 286.333 149.902C286.857 149.902 287.298 150.016 287.655 150.243C288.016 150.466 288.287 150.763 288.47 151.135C288.656 151.507 288.747 151.916 288.743 152.362V152.965C288.747 153.411 288.656 153.82 288.47 154.192C288.284 154.56 288.01 154.856 287.65 155.079C287.289 155.302 286.85 155.414 286.333 155.414C285.809 155.414 285.366 155.302 285.006 155.079C284.649 154.856 284.377 154.558 284.191 154.186C284.005 153.814 283.912 153.407 283.912 152.965ZM285.379 152.362V152.965C285.383 153.262 285.454 153.534 285.591 153.779C285.729 154.021 285.976 154.142 286.333 154.142C286.69 154.142 286.937 154.021 287.075 153.779C287.213 153.534 287.28 153.262 287.276 152.965V152.362C287.28 152.065 287.214 151.793 287.081 151.548C286.95 151.299 286.701 151.174 286.333 151.174C285.98 151.174 285.733 151.299 285.591 151.548C285.454 151.797 285.383 152.069 285.379 152.362ZM284.414 161.644L292.268 150.22H293.668L285.814 161.644H284.414Z" fill="white"/>
<path d="M251.891 134.119V125.551H254.945C255.612 125.551 256.164 125.672 256.602 125.915C257.04 126.158 257.367 126.489 257.585 126.911C257.802 127.329 257.911 127.8 257.911 128.325C257.911 128.852 257.801 129.326 257.581 129.747C257.363 130.165 257.034 130.497 256.593 130.743C256.155 130.985 255.605 131.107 254.941 131.107H252.841V130.011H254.824C255.245 130.011 255.587 129.938 255.849 129.793C256.111 129.645 256.303 129.444 256.426 129.191C256.549 128.937 256.61 128.648 256.61 128.325C256.61 128.001 256.549 127.714 256.426 127.463C256.303 127.212 256.109 127.015 255.845 126.873C255.582 126.731 255.236 126.66 254.807 126.66H253.184V134.119H251.891ZM259.503 134.119V127.693H260.712V128.714H260.779C260.896 128.368 261.103 128.096 261.398 127.898C261.697 127.697 262.034 127.597 262.411 127.597C262.489 127.597 262.581 127.599 262.687 127.605C262.796 127.611 262.881 127.618 262.942 127.626V128.822C262.892 128.809 262.802 128.793 262.674 128.776C262.546 128.757 262.418 128.747 262.289 128.747C261.994 128.747 261.73 128.81 261.499 128.935C261.27 129.058 261.089 129.23 260.955 129.45C260.821 129.668 260.754 129.916 260.754 130.195V134.119H259.503ZM266.678 134.249C266.075 134.249 265.55 134.111 265.101 133.834C264.652 133.558 264.303 133.172 264.055 132.676C263.807 132.179 263.682 131.599 263.682 130.935C263.682 130.269 263.807 129.686 264.055 129.186C264.303 128.687 264.652 128.3 265.101 128.023C265.55 127.747 266.075 127.609 266.678 127.609C267.28 127.609 267.806 127.747 268.255 128.023C268.704 128.3 269.053 128.687 269.301 129.186C269.549 129.686 269.673 130.269 269.673 130.935C269.673 131.599 269.549 132.179 269.301 132.676C269.053 133.172 268.704 133.558 268.255 133.834C267.806 134.111 267.28 134.249 266.678 134.249ZM266.682 133.199C267.072 133.199 267.396 133.095 267.653 132.889C267.909 132.683 268.099 132.408 268.222 132.065C268.347 131.722 268.41 131.344 268.41 130.931C268.41 130.521 268.347 130.144 268.222 129.801C268.099 129.456 267.909 129.178 267.653 128.969C267.396 128.76 267.072 128.655 266.682 128.655C266.289 128.655 265.962 128.76 265.703 128.969C265.446 129.178 265.255 129.456 265.13 129.801C265.007 130.144 264.946 130.521 264.946 130.931C264.946 131.344 265.007 131.722 265.13 132.065C265.255 132.408 265.446 132.683 265.703 132.889C265.962 133.095 266.289 133.199 266.682 133.199ZM274.304 127.693V128.697H270.673V127.693H274.304ZM271.669 134.119V126.948C271.669 126.547 271.757 126.213 271.932 125.948C272.108 125.681 272.341 125.481 272.631 125.35C272.921 125.216 273.236 125.149 273.577 125.149C273.828 125.149 274.042 125.17 274.221 125.212C274.399 125.251 274.532 125.287 274.618 125.321L274.325 126.333C274.267 126.316 274.192 126.297 274.099 126.275C274.007 126.25 273.896 126.237 273.765 126.237C273.461 126.237 273.243 126.312 273.112 126.463C272.984 126.614 272.92 126.831 272.92 127.116V134.119H271.669ZM275.772 134.119V127.693H277.023V134.119H275.772ZM276.404 126.701C276.186 126.701 275.999 126.629 275.843 126.484C275.69 126.336 275.613 126.16 275.613 125.957C275.613 125.75 275.69 125.575 275.843 125.43C275.999 125.282 276.186 125.208 276.404 125.208C276.621 125.208 276.807 125.282 276.96 125.43C277.116 125.575 277.194 125.75 277.194 125.957C277.194 126.16 277.116 126.336 276.96 126.484C276.807 126.629 276.621 126.701 276.404 126.701ZM281.882 127.693V128.697H278.372V127.693H281.882ZM279.313 126.153H280.564V132.232C280.564 132.475 280.6 132.657 280.673 132.78C280.745 132.9 280.839 132.982 280.953 133.027C281.07 133.069 281.197 133.09 281.334 133.09C281.434 133.09 281.522 133.083 281.597 133.069C281.673 133.055 281.731 133.044 281.773 133.035L281.999 134.069C281.927 134.097 281.823 134.124 281.689 134.152C281.556 134.183 281.388 134.2 281.187 134.203C280.858 134.208 280.552 134.15 280.267 134.027C279.983 133.904 279.752 133.714 279.577 133.458C279.401 133.201 279.313 132.879 279.313 132.491V126.153ZM286.837 125.551H288.406L291.134 132.211H291.234L293.962 125.551H295.531V134.119H294.301V127.919H294.221L291.694 134.106H290.674L288.147 127.915H288.067V134.119H286.837V125.551ZM299.357 134.261C298.949 134.261 298.581 134.186 298.252 134.035C297.923 133.882 297.662 133.66 297.47 133.37C297.28 133.08 297.185 132.724 297.185 132.303C297.185 131.941 297.255 131.642 297.395 131.408C297.534 131.174 297.722 130.988 297.959 130.852C298.196 130.715 298.461 130.612 298.754 130.542C299.047 130.472 299.346 130.419 299.65 130.383C300.034 130.338 300.347 130.302 300.587 130.274C300.827 130.243 301.001 130.195 301.11 130.128C301.218 130.061 301.273 129.952 301.273 129.801V129.772C301.273 129.407 301.17 129.124 300.963 128.923C300.76 128.722 300.456 128.622 300.051 128.622C299.63 128.622 299.298 128.715 299.055 128.902C298.816 129.086 298.65 129.291 298.558 129.517L297.382 129.249C297.521 128.859 297.725 128.544 297.993 128.304C298.263 128.061 298.574 127.885 298.926 127.777C299.277 127.665 299.647 127.609 300.034 127.609C300.291 127.609 300.563 127.64 300.85 127.701C301.14 127.76 301.411 127.869 301.662 128.028C301.916 128.187 302.123 128.414 302.285 128.71C302.447 129.002 302.528 129.383 302.528 129.852V134.119H301.306V133.24H301.256C301.175 133.402 301.054 133.561 300.892 133.717C300.73 133.873 300.523 134.003 300.269 134.106C300.015 134.21 299.711 134.261 299.357 134.261ZM299.629 133.257C299.974 133.257 300.27 133.189 300.516 133.052C300.764 132.915 300.952 132.737 301.08 132.517C301.211 132.293 301.277 132.055 301.277 131.801V130.973C301.232 131.017 301.146 131.059 301.018 131.098C300.892 131.135 300.748 131.167 300.587 131.195C300.425 131.22 300.267 131.243 300.114 131.266C299.961 131.285 299.832 131.302 299.729 131.316C299.486 131.347 299.265 131.398 299.064 131.471C298.866 131.543 298.707 131.648 298.587 131.784C298.47 131.918 298.411 132.097 298.411 132.32C298.411 132.63 298.526 132.864 298.754 133.023C298.983 133.179 299.274 133.257 299.629 133.257ZM304.371 134.119V127.693H305.58V128.714H305.647C305.764 128.368 305.97 128.096 306.266 127.898C306.564 127.697 306.902 127.597 307.278 127.597C307.356 127.597 307.448 127.599 307.554 127.605C307.663 127.611 307.748 127.618 307.81 127.626V128.822C307.759 128.809 307.67 128.793 307.542 128.776C307.414 128.757 307.285 128.747 307.157 128.747C306.861 128.747 306.598 128.81 306.366 128.935C306.138 129.058 305.956 129.23 305.822 129.45C305.689 129.668 305.622 129.916 305.622 130.195V134.119H304.371ZM311.533 136.65C311.023 136.65 310.583 136.583 310.215 136.449C309.85 136.315 309.551 136.138 309.32 135.918C309.088 135.7 308.915 135.463 308.801 135.207L309.876 134.763C309.952 134.88 310.052 135.007 310.177 135.144C310.306 135.281 310.479 135.398 310.696 135.495C310.917 135.593 311.2 135.642 311.546 135.642C312.02 135.642 312.412 135.527 312.721 135.299C313.031 135.07 313.185 134.707 313.185 134.211V132.947H313.106C313.031 133.084 312.922 133.236 312.78 133.404C312.64 133.571 312.448 133.716 312.202 133.839C311.957 133.961 311.638 134.023 311.244 134.023C310.737 134.023 310.279 133.904 309.872 133.667C309.468 133.427 309.147 133.074 308.91 132.609C308.676 132.14 308.558 131.564 308.558 130.881C308.558 130.197 308.674 129.612 308.906 129.124C309.14 128.636 309.461 128.262 309.868 128.002C310.275 127.74 310.737 127.609 311.253 127.609C311.651 127.609 311.974 127.676 312.219 127.81C312.465 127.941 312.656 128.095 312.792 128.27C312.932 128.446 313.039 128.601 313.114 128.735H313.206V127.693H314.432V134.261C314.432 134.808 314.304 135.257 314.047 135.608C313.791 135.962 313.443 136.225 313.006 136.395C312.57 136.565 312.08 136.65 311.533 136.65ZM311.52 132.985C311.88 132.985 312.184 132.901 312.432 132.734C312.683 132.564 312.873 132.321 313.001 132.006C313.132 131.688 313.198 131.308 313.198 130.864C313.198 130.432 313.134 130.051 313.006 129.722C312.877 129.393 312.689 129.136 312.441 128.952C312.193 128.765 311.886 128.672 311.52 128.672C311.144 128.672 310.83 128.769 310.579 128.965C310.328 129.157 310.138 129.419 310.01 129.751C309.885 130.083 309.822 130.454 309.822 130.864C309.822 131.285 309.886 131.655 310.014 131.973C310.143 132.291 310.332 132.539 310.583 132.717C310.837 132.896 311.149 132.985 311.52 132.985ZM316.287 134.119V127.693H317.537V134.119H316.287ZM316.918 126.701C316.701 126.701 316.514 126.629 316.358 126.484C316.204 126.336 316.128 126.16 316.128 125.957C316.128 125.75 316.204 125.575 316.358 125.43C316.514 125.282 316.701 125.208 316.918 125.208C317.136 125.208 317.321 125.282 317.475 125.43C317.631 125.575 317.709 125.75 317.709 125.957C317.709 126.16 317.631 126.336 317.475 126.484C317.321 126.629 317.136 126.701 316.918 126.701ZM320.648 130.303V134.119H319.397V127.693H320.598V128.739H320.677C320.825 128.399 321.056 128.125 321.372 127.919C321.69 127.712 322.09 127.609 322.572 127.609C323.01 127.609 323.394 127.701 323.723 127.885C324.052 128.067 324.307 128.337 324.488 128.697C324.67 129.057 324.76 129.502 324.76 130.032V134.119H323.509V130.182C323.509 129.716 323.388 129.352 323.145 129.09C322.903 128.825 322.57 128.693 322.146 128.693C321.856 128.693 321.598 128.756 321.372 128.881C321.149 129.007 320.971 129.191 320.84 129.433C320.712 129.673 320.648 129.963 320.648 130.303Z" fill="white"/>
</g>
<path d="M146.23 57.9414H247.677V80.1944C247.677 83.8599 247.677 85.6927 246.964 87.0928C246.337 88.3243 245.335 89.3256 244.104 89.953C242.704 90.6664 240.871 90.6664 237.205 90.6664H156.702C153.036 90.6664 151.204 90.6664 149.804 89.953C148.572 89.3256 147.571 88.3243 146.943 87.0928C146.23 85.6927 146.23 83.8599 146.23 80.1944V57.9414Z" fill="#2F1872" fill-opacity="0.2"/>
<path d="M186.739 77.832H185.266L187.948 70.216H189.651L192.336 77.832H190.863L188.829 71.7779H188.769L186.739 77.832ZM186.787 74.8459H190.804V75.9541H186.787V74.8459ZM193.567 79.974V72.12H194.891V73.0646H194.969C195.039 72.9258 195.137 72.7782 195.263 72.6221C195.389 72.4634 195.561 72.3283 195.776 72.2167C195.992 72.1027 196.267 72.0457 196.602 72.0457C197.043 72.0457 197.441 72.1585 197.795 72.3841C198.152 72.6072 198.435 72.9382 198.643 73.377C198.854 73.8133 198.959 74.3488 198.959 74.9835C198.959 75.6107 198.857 76.1437 198.651 76.5825C198.445 77.0213 198.165 77.356 197.81 77.5866C197.456 77.8172 197.054 77.9324 196.605 77.9324C196.278 77.9324 196.007 77.8779 195.791 77.7688C195.575 77.6597 195.402 77.5283 195.27 77.3746C195.142 77.2184 195.041 77.0709 194.969 76.9321H194.913V79.974H193.567ZM194.887 74.976C194.887 75.3454 194.939 75.669 195.044 75.9466C195.15 76.2243 195.303 76.4412 195.501 76.5974C195.702 76.7511 195.945 76.828 196.23 76.828C196.527 76.828 196.777 76.7486 196.977 76.59C197.178 76.4288 197.329 76.2094 197.431 75.9317C197.535 75.6516 197.587 75.333 197.587 74.976C197.587 74.6215 197.536 74.3067 197.435 74.0315C197.333 73.7563 197.182 73.5406 196.981 73.3844C196.78 73.2282 196.53 73.1501 196.23 73.1501C195.942 73.1501 195.698 73.2257 195.497 73.377C195.296 73.5282 195.144 73.7402 195.04 74.0129C194.938 74.2856 194.887 74.6066 194.887 74.976ZM200.4 77.832V72.12H201.706V73.072H201.765C201.869 72.7423 202.048 72.4882 202.301 72.3097C202.556 72.1287 202.847 72.0382 203.174 72.0382C203.249 72.0382 203.332 72.0419 203.424 72.0494C203.518 72.0543 203.596 72.063 203.658 72.0754V73.3137C203.601 73.2939 203.51 73.2766 203.386 73.2617C203.265 73.2443 203.147 73.2357 203.033 73.2357C202.788 73.2357 202.567 73.289 202.371 73.3956C202.178 73.4997 202.025 73.6447 201.914 73.8307C201.802 74.0166 201.746 74.231 201.746 74.474V77.832H200.4ZM204.84 77.832V72.12H206.186V77.832H204.84ZM205.517 71.3093C205.301 71.3093 205.117 71.2387 204.963 71.0974C204.812 70.9536 204.736 70.7813 204.736 70.5805C204.736 70.3772 204.813 70.2049 204.967 70.0636C205.12 69.9198 205.304 69.8479 205.517 69.8479C205.73 69.8479 205.912 69.9198 206.064 70.0636C206.217 70.2049 206.294 70.3772 206.294 70.5805C206.294 70.7813 206.217 70.9536 206.064 71.0974C205.912 71.2387 205.73 71.3093 205.517 71.3093ZM209.205 70.216V77.832H207.859V70.216H209.205Z" fill="white"/>
</g>
<path fill-rule="evenodd" clip-rule="evenodd" d="M72.3649 208.333C72.3649 208.333 80.5755 208.333 146.79 208.333C213.004 208.333 236.448 157 301.801 157C367.153 157 376 157 376 157V225L0 225V208.333H72.3649Z" fill="white"/>
<defs>
<filter id="filter0_bd" x="57.0929" y="-10.9061" width="279.852" height="179.74" filterUnits="userSpaceOnUse" color-interpolation-filters="sRGB">
<feFlood flood-opacity="0" result="BackgroundImageFix"/>
<feGaussianBlur in="BackgroundImage" stdDeviation="17.0795"/>
<feComposite in2="SourceAlpha" operator="in" result="effect1_backgroundBlur"/>
<feColorMatrix in="SourceAlpha" type="matrix" values="0 0 0 0 0 0 0 0 0 0 0 0 0 0 0 0 0 0 127 0"/>
<feOffset dy="12"/>
<feGaussianBlur stdDeviation="10.5"/>
<feColorMatrix type="matrix" values="0 0 0 0 0.238417 0 0 0 0 0.238417 0 0 0 0 0.345021 0 0 0 0.4 0"/>
<feBlend mode="normal" in2="effect1_backgroundBlur" result="effect2_dropShadow"/>
<feBlend mode="normal" in="SourceGraphic" in2="effect2_dropShadow" result="shape"/>
</filter>
<filter id="filter1_bd" x="11.6988" y="-15.0671" width="371.165" height="224.557" filterUnits="userSpaceOnUse" color-interpolation-filters="sRGB">
<feFlood flood-opacity="0" result="BackgroundImageFix"/>
<feGaussianBlur in="BackgroundImage" stdDeviation="26.6867"/>
<feComposite in2="SourceAlpha" operator="in" result="effect1_backgroundBlur"/>
<feColorMatrix in="SourceAlpha" type="matrix" values="0 0 0 0 0 0 0 0 0 0 0 0 0 0 0 0 0 0 127 0"/>
<feOffset dy="20"/>
<feGaussianBlur stdDeviation="16.5"/>
<feColorMatrix type="matrix" values="0 0 0 0 0.238417 0 0 0 0 0.238417 0 0 0 0 0.345021 0 0 0 0.4 0"/>
<feBlend mode="normal" in2="effect1_backgroundBlur" result="effect2_dropShadow"/>
<feBlend mode="normal" in="SourceGraphic" in2="effect2_dropShadow" result="shape"/>
</filter>
<filter id="filter2_bd" x="-21.6811" y="4.56794" width="437.269" height="309.642" filterUnits="userSpaceOnUse" color-interpolation-filters="sRGB">
<feFlood flood-opacity="0" result="BackgroundImageFix"/>
<feGaussianBlur in="BackgroundImage" stdDeviation="26.6867"/>
<feComposite in2="SourceAlpha" operator="in" result="effect1_backgroundBlur"/>
<feColorMatrix in="SourceAlpha" type="matrix" values="0 0 0 0 0 0 0 0 0 0 0 0 0 0 0 0 0 0 127 0"/>
<feOffset dy="20"/>
<feGaussianBlur stdDeviation="16.5"/>
<feColorMatrix type="matrix" values="0 0 0 0 0.238417 0 0 0 0 0.238417 0 0 0 0 0.345021 0 0 0 0.4 0"/>
<feBlend mode="normal" in2="effect1_backgroundBlur" result="effect2_dropShadow"/>
<feBlend mode="normal" in="SourceGraphic" in2="effect2_dropShadow" result="shape"/>
</filter>
<linearGradient id="paint0_linear" x1="0" y1="224.634" x2="373.78" y2="224.634" gradientUnits="userSpaceOnUse">
<stop stop-color="#E35CA8"/>
<stop offset="1" stop-color="#9076F9"/>
</linearGradient>
<linearGradient id="paint1_linear" x1="91.252" y1="78.964" x2="302.786" y2="78.964" gradientUnits="userSpaceOnUse">
<stop stop-color="#DC73F2"/>
<stop offset="0.450637" stop-color="#C16DFA"/>
<stop offset="1" stop-color="#A976FF"/>
</linearGradient>
<linearGradient id="paint2_linear" x1="70.6872" y1="95.4069" x2="327.005" y2="95.4069" gradientUnits="userSpaceOnUse">
<stop stop-color="#DE78EA"/>
<stop offset="0.765669" stop-color="#AA80FB"/>
<stop offset="1" stop-color="#9A92F3"/>
</linearGradient>
<linearGradient id="paint3_linear" x1="31.6924" y1="159.389" x2="362.215" y2="159.389" gradientUnits="userSpaceOnUse">
<stop stop-color="#FD90EC"/>
<stop offset="0.316334" stop-color="#E5A4FF"/>
<stop offset="0.524403" stop-color="#E5A4FF"/>
<stop offset="0.867864" stop-color="#C1A6FF"/>
<stop offset="1" stop-color="#AEA9FF"/>
</linearGradient>
<clipPath id="clip0">
<rect width="174" height="190" fill="white" transform="translate(44.7822 103.756)"/>
</clipPath>
<clipPath id="clip1">
<rect width="118" height="151" fill="white" transform="translate(231.315 103.756)"/>
</clipPath>
</defs>
</svg>
