<svg width="635" height="447" viewBox="0 0 635 447" fill="none" xmlns="http://www.w3.org/2000/svg">
<mask id="mask0" mask-type="alpha" maskUnits="userSpaceOnUse" x="0" y="0" width="635" height="317">
<path fill-rule="evenodd" clip-rule="evenodd" d="M0 48C0 31.1984 0 22.7976 3.2698 16.3803C6.14601 10.7354 10.7354 6.14601 16.3803 3.2698C22.7976 0 31.1984 0 48 0H587C603.802 0 612.202 0 618.62 3.2698C624.265 6.14601 628.854 10.7354 631.73 16.3803C635 22.7976 635 31.1984 635 48V269C635 285.802 635 294.202 631.73 300.62C628.854 306.265 624.265 310.854 618.62 313.73C612.202 317 603.802 317 587 317H48C31.1984 317 22.7976 317 16.3803 313.73C10.7354 310.854 6.14601 306.265 3.2698 300.62C0 294.202 0 285.802 0 269V48Z" fill="white"/>
</mask>
<g mask="url(#mask0)">
</g>
<g opacity="0.2" clip-path="url(#clip0)">
<g filter="url(#filter0_bd)">
<rect x="156" y="34" width="323.2" height="170.24" rx="12.8" fill="url(#paint0_linear)"/>
<rect x="156.25" y="34.25" width="322.7" height="169.74" rx="12.55" stroke="white" stroke-opacity="0.5" stroke-width="0.5"/>
</g>
<path d="M268 34H367.2V45.52C367.2 52.6887 367.2 56.273 365.805 59.0111C364.578 61.4196 362.62 63.3777 360.211 64.6049C357.473 66 353.889 66 346.72 66H288.48C281.311 66 277.727 66 274.989 64.6049C272.58 63.3777 270.622 61.4196 269.395 59.0111C268 56.273 268 52.6887 268 45.52V34Z" fill="#15161A" fill-opacity="0.1"/>
<path d="M295.139 52.76V45.3127H299.91V46.4436H296.488V48.4655H299.583V49.5964H296.488V52.76H295.139ZM303.425 52.8691C302.865 52.8691 302.381 52.7527 301.974 52.52C301.569 52.2849 301.258 51.9527 301.04 51.5236C300.821 51.0921 300.712 50.5843 300.712 50C300.712 49.4255 300.821 48.9212 301.04 48.4873C301.26 48.0509 301.568 47.7115 301.963 47.4691C302.358 47.2243 302.823 47.1018 303.356 47.1018C303.7 47.1018 304.025 47.1576 304.331 47.2691C304.638 47.3782 304.91 47.5479 305.145 47.7782C305.383 48.0085 305.569 48.3018 305.705 48.6582C305.841 49.0121 305.909 49.4339 305.909 49.9236V50.3273H301.331V49.44H304.647C304.644 49.1879 304.59 48.9636 304.483 48.7673C304.377 48.5685 304.227 48.4121 304.036 48.2982C303.847 48.1843 303.626 48.1273 303.374 48.1273C303.105 48.1273 302.869 48.1927 302.665 48.3236C302.461 48.4521 302.303 48.6218 302.189 48.8327C302.077 49.0412 302.02 49.2703 302.018 49.52V50.2946C302.018 50.6194 302.077 50.8982 302.196 51.1309C302.315 51.3612 302.481 51.5382 302.694 51.6618C302.907 51.783 303.157 51.8436 303.443 51.8436C303.635 51.8436 303.808 51.817 303.963 51.7636C304.118 51.7079 304.253 51.6267 304.367 51.52C304.481 51.4133 304.567 51.2812 304.625 51.1236L305.854 51.2618C305.777 51.5867 305.629 51.8703 305.411 52.1127C305.195 52.3527 304.918 52.5394 304.581 52.6727C304.244 52.8036 303.859 52.8691 303.425 52.8691ZM307.362 52.76V45.3127H308.678V48.0982H308.733C308.801 47.9624 308.897 47.8182 309.02 47.6655C309.144 47.5103 309.311 47.3782 309.522 47.2691C309.733 47.1576 310.002 47.1018 310.329 47.1018C310.761 47.1018 311.15 47.2121 311.497 47.4327C311.846 47.6509 312.122 47.9746 312.326 48.4036C312.532 48.8303 312.635 49.3539 312.635 49.9746C312.635 50.5879 312.534 51.1091 312.333 51.5382C312.132 51.9673 311.858 52.2946 311.511 52.52C311.165 52.7455 310.772 52.8582 310.333 52.8582C310.013 52.8582 309.748 52.8049 309.537 52.6982C309.326 52.5915 309.156 52.463 309.028 52.3127C308.902 52.16 308.803 52.0158 308.733 51.88H308.657V52.76H307.362ZM308.653 49.9673C308.653 50.3285 308.704 50.6449 308.806 50.9164C308.91 51.1879 309.059 51.4 309.253 51.5527C309.449 51.703 309.687 51.7782 309.966 51.7782C310.257 51.7782 310.5 51.7006 310.697 51.5455C310.893 51.3879 311.041 51.1733 311.14 50.9018C311.242 50.6279 311.293 50.3164 311.293 49.9673C311.293 49.6206 311.243 49.3127 311.144 49.0436C311.045 48.7746 310.897 48.5636 310.7 48.4109C310.504 48.2582 310.259 48.1818 309.966 48.1818C309.685 48.1818 309.446 48.2558 309.249 48.4036C309.053 48.5515 308.904 48.7588 308.802 49.0255C308.703 49.2921 308.653 49.6061 308.653 49.9673ZM314.036 52.76V47.1746H315.312V48.1055H315.37C315.472 47.783 315.646 47.5346 315.894 47.36C316.143 47.183 316.428 47.0946 316.748 47.0946C316.821 47.0946 316.902 47.0982 316.992 47.1055C317.084 47.1103 317.16 47.1188 317.221 47.1309V48.3418C317.165 48.3224 317.077 48.3055 316.956 48.2909C316.837 48.2739 316.722 48.2655 316.61 48.2655C316.37 48.2655 316.154 48.3176 315.963 48.4218C315.774 48.5236 315.625 48.6655 315.516 48.8473C315.406 49.0291 315.352 49.2388 315.352 49.4764V52.76H314.036ZM321.937 50.4109V47.1746H323.254V52.76H321.977V51.7673H321.919C321.793 52.08 321.586 52.3358 321.297 52.5346C321.011 52.7333 320.658 52.8327 320.239 52.8327C319.873 52.8327 319.549 52.7515 319.268 52.5891C318.989 52.4243 318.771 52.1855 318.614 51.8727C318.456 51.5576 318.377 51.177 318.377 50.7309V47.1746H319.694V50.5273C319.694 50.8812 319.79 51.1624 319.984 51.3709C320.178 51.5794 320.433 51.6836 320.748 51.6836C320.942 51.6836 321.13 51.6364 321.312 51.5418C321.494 51.4473 321.643 51.3067 321.759 51.12C321.878 50.9309 321.937 50.6946 321.937 50.4109ZM326.496 52.8727C326.142 52.8727 325.823 52.8097 325.54 52.6836C325.258 52.5552 325.035 52.3661 324.871 52.1164C324.708 51.8667 324.627 51.5588 324.627 51.1927C324.627 50.8776 324.685 50.617 324.801 50.4109C324.918 50.2049 325.077 50.04 325.278 49.9164C325.479 49.7927 325.706 49.6994 325.958 49.6364C326.212 49.5709 326.475 49.5236 326.747 49.4946C327.074 49.4606 327.34 49.4303 327.543 49.4036C327.747 49.3746 327.895 49.3309 327.987 49.2727C328.081 49.2121 328.129 49.1188 328.129 48.9927V48.9709C328.129 48.697 328.048 48.4849 327.885 48.3346C327.723 48.1843 327.489 48.1091 327.183 48.1091C326.861 48.1091 326.605 48.1794 326.416 48.32C326.229 48.4606 326.103 48.6267 326.038 48.8182L324.809 48.6436C324.906 48.3043 325.066 48.0206 325.289 47.7927C325.512 47.5624 325.784 47.3903 326.107 47.2764C326.429 47.16 326.786 47.1018 327.176 47.1018C327.445 47.1018 327.713 47.1333 327.98 47.1964C328.246 47.2594 328.49 47.3636 328.711 47.5091C328.931 47.6521 329.108 47.8473 329.241 48.0946C329.377 48.3418 329.445 48.6509 329.445 49.0218V52.76H328.18V51.9927H328.136C328.056 52.1479 327.943 52.2933 327.798 52.4291C327.655 52.5624 327.474 52.6703 327.256 52.7527C327.04 52.8327 326.787 52.8727 326.496 52.8727ZM326.838 51.9055C327.102 51.9055 327.331 51.8533 327.525 51.7491C327.719 51.6424 327.868 51.5018 327.972 51.3273C328.079 51.1527 328.132 50.9624 328.132 50.7564V50.0982C328.091 50.1321 328.021 50.1636 327.921 50.1927C327.824 50.2218 327.715 50.2473 327.594 50.2691C327.473 50.2909 327.353 50.3103 327.234 50.3273C327.115 50.3443 327.012 50.3588 326.925 50.3709C326.729 50.3976 326.553 50.4412 326.398 50.5018C326.243 50.5624 326.12 50.6473 326.031 50.7564C325.941 50.863 325.896 51.0012 325.896 51.1709C325.896 51.4133 325.984 51.5964 326.161 51.72C326.338 51.8436 326.564 51.9055 326.838 51.9055ZM331.05 52.76V47.1746H332.327V48.1055H332.385C332.487 47.783 332.661 47.5346 332.909 47.36C333.158 47.183 333.443 47.0946 333.763 47.0946C333.836 47.0946 333.917 47.0982 334.007 47.1055C334.099 47.1103 334.175 47.1188 334.236 47.1309V48.3418C334.18 48.3224 334.092 48.3055 333.97 48.2909C333.852 48.2739 333.736 48.2655 333.625 48.2655C333.385 48.2655 333.169 48.3176 332.978 48.4218C332.789 48.5236 332.639 48.6655 332.53 48.8473C332.421 49.0291 332.367 49.2388 332.367 49.4764V52.76H331.05ZM336.38 54.8436C336.201 54.8436 336.035 54.8291 335.882 54.8C335.732 54.7733 335.612 54.7406 335.522 54.7018L335.827 53.68C336.113 53.7624 336.353 53.7758 336.547 53.72C336.744 53.6667 336.905 53.4861 337.031 53.1782L337.144 52.8764L335.118 47.1746H336.515L337.802 51.3927H337.86L339.151 47.1746L340.558 47.1818L338.315 53.4364C338.21 53.7273 338.072 53.9782 337.9 54.1891C337.728 54.4 337.517 54.5612 337.267 54.6727C337.02 54.7867 336.724 54.8436 336.38 54.8436Z" fill="white"/>
</g>
<g clip-path="url(#clip1)">
<g filter="url(#filter1_bd)">
<rect x="116" y="57" width="404" height="180" rx="16" fill="url(#paint1_linear)"/>
<rect x="116.25" y="57.25" width="403.5" height="179.5" rx="15.75" stroke="white" stroke-opacity="0.2" stroke-width="0.5"/>
</g>
<path d="M256 57H380V71.4C380 80.3608 380 84.8413 378.256 88.2638C376.722 91.2744 374.274 93.7221 371.264 95.2561C367.841 97 363.361 97 354.4 97H281.6C272.639 97 268.159 97 264.736 95.2561C261.726 93.7221 259.278 91.2744 257.744 88.2638C256 84.8413 256 80.3608 256 71.4V57Z" fill="#15161A" fill-opacity="0.05"/>
<path opacity="0.5" d="M298.727 71.8909H300.79L303.554 78.6363H303.663L306.427 71.8909H308.49V81.2H306.872V74.8045H306.786L304.213 81.1727H303.004L300.431 74.7909H300.345V81.2H298.727V71.8909ZM312.615 81.3409C312.173 81.3409 311.774 81.2621 311.42 81.1045C311.068 80.9439 310.789 80.7075 310.583 80.3954C310.38 80.0833 310.279 79.6984 310.279 79.2409C310.279 78.8469 310.351 78.5212 310.497 78.2636C310.642 78.006 310.841 77.8 311.092 77.6454C311.344 77.4909 311.627 77.3742 311.942 77.2954C312.261 77.2136 312.589 77.1545 312.929 77.1181C313.338 77.0757 313.67 77.0378 313.924 77.0045C314.179 76.9681 314.364 76.9136 314.479 76.8409C314.597 76.7651 314.656 76.6484 314.656 76.4909V76.4636C314.656 76.1212 314.554 75.856 314.351 75.6681C314.148 75.4803 313.856 75.3863 313.474 75.3863C313.071 75.3863 312.751 75.4742 312.515 75.65C312.282 75.8257 312.124 76.0333 312.042 76.2727L310.506 76.0545C310.627 75.6303 310.827 75.2757 311.106 74.9909C311.385 74.703 311.726 74.4878 312.129 74.3454C312.532 74.2 312.977 74.1272 313.465 74.1272C313.801 74.1272 314.136 74.1666 314.47 74.2454C314.803 74.3242 315.107 74.4545 315.383 74.6363C315.659 74.8151 315.88 75.059 316.047 75.3681C316.217 75.6772 316.301 76.0636 316.301 76.5272V81.2H314.72V80.2409H314.665C314.565 80.4348 314.424 80.6166 314.242 80.7863C314.064 80.953 313.838 81.0878 313.565 81.1909C313.295 81.2909 312.979 81.3409 312.615 81.3409ZM313.042 80.1318C313.373 80.1318 313.659 80.0666 313.901 79.9363C314.144 79.803 314.33 79.6272 314.461 79.409C314.594 79.1909 314.661 78.953 314.661 78.6954V77.8727C314.609 77.9151 314.521 77.9545 314.397 77.9909C314.276 78.0272 314.139 78.059 313.988 78.0863C313.836 78.1136 313.686 78.1378 313.538 78.159C313.389 78.1803 313.261 78.1984 313.151 78.2136C312.906 78.2469 312.686 78.3015 312.492 78.3772C312.298 78.453 312.145 78.559 312.033 78.6954C311.921 78.8287 311.865 79.0015 311.865 79.2136C311.865 79.5166 311.976 79.7454 312.197 79.9C312.418 80.0545 312.7 80.1318 313.042 80.1318ZM318.308 81.2V74.2181H319.903V75.3818H319.976C320.103 74.9787 320.322 74.6681 320.631 74.45C320.943 74.2287 321.299 74.1181 321.699 74.1181C321.79 74.1181 321.891 74.1227 322.003 74.1318C322.119 74.1378 322.214 74.1484 322.29 74.1636V75.6772C322.22 75.653 322.109 75.6318 321.958 75.6136C321.809 75.5924 321.666 75.5818 321.526 75.5818C321.226 75.5818 320.956 75.6469 320.717 75.7772C320.481 75.9045 320.294 76.0818 320.158 76.309C320.022 76.5363 319.953 76.7984 319.953 77.0954V81.2H318.308ZM326.493 81.3363C325.796 81.3363 325.197 81.1833 324.697 80.8772C324.2 80.5712 323.817 80.1484 323.547 79.609C323.281 79.0666 323.147 78.4424 323.147 77.7363C323.147 77.0272 323.284 76.4015 323.557 75.859C323.829 75.3136 324.214 74.8893 324.711 74.5863C325.211 74.2803 325.802 74.1272 326.484 74.1272C327.05 74.1272 327.552 74.2318 327.988 74.4409C328.428 74.6469 328.778 74.9393 329.038 75.3181C329.299 75.6939 329.447 76.1333 329.484 76.6363H327.911C327.847 76.3 327.696 76.0196 327.457 75.7954C327.22 75.5681 326.904 75.4545 326.507 75.4545C326.17 75.4545 325.875 75.5454 325.62 75.7272C325.366 75.906 325.167 76.1636 325.025 76.5C324.885 76.8363 324.816 77.2393 324.816 77.709C324.816 78.1848 324.885 78.5939 325.025 78.9363C325.164 79.2757 325.36 79.5378 325.611 79.7227C325.866 79.9045 326.164 79.9954 326.507 79.9954C326.749 79.9954 326.966 79.95 327.157 79.859C327.35 79.7651 327.513 79.6303 327.643 79.4545C327.773 79.2787 327.863 79.0651 327.911 78.8136H329.484C329.444 79.3075 329.299 79.7454 329.047 80.1272C328.796 80.506 328.454 80.803 328.02 81.0181C327.587 81.2303 327.078 81.3363 326.493 81.3363ZM332.832 77.109V81.2H331.187V71.8909H332.796V75.4045H332.878C333.041 75.0106 333.295 74.7 333.637 74.4727C333.982 74.2424 334.422 74.1272 334.955 74.1272C335.44 74.1272 335.863 74.2287 336.223 74.4318C336.584 74.6348 336.863 74.9318 337.06 75.3227C337.26 75.7136 337.36 76.1909 337.36 76.7545V81.2H335.714V77.009C335.714 76.5393 335.593 76.1742 335.351 75.9136C335.111 75.65 334.775 75.5181 334.341 75.5181C334.051 75.5181 333.79 75.5818 333.56 75.709C333.332 75.8333 333.154 76.0136 333.023 76.25C332.896 76.4863 332.832 76.7727 332.832 77.109Z" fill="white"/>
</g>
<g clip-path="url(#clip2)">
<g filter="url(#filter2_bd)">
<rect x="65" y="87" width="505" height="310" rx="20" fill="url(#paint2_linear)"/>
<rect x="65.25" y="87.25" width="504.5" height="309.5" rx="19.75" stroke="white" stroke-opacity="0.5" stroke-width="0.5"/>
</g>
<path fill-rule="evenodd" clip-rule="evenodd" d="M86.0899 162.46C85 164.599 85 167.399 85 173V431C85 436.601 85 439.401 86.0899 441.54C87.0487 443.422 88.5785 444.951 90.4601 445.91C92.5992 447 95.3995 447 101 447H334C339.601 447 342.401 447 344.54 445.91C346.422 444.951 347.951 443.422 348.91 441.54C350 439.401 350 436.601 350 431V173C350 167.399 350 164.599 348.91 162.46C347.951 160.578 346.422 159.049 344.54 158.09C342.401 157 339.601 157 334 157H101C95.3995 157 92.5992 157 90.4601 158.09C88.5785 159.049 87.0487 160.578 86.0899 162.46ZM316.355 267.382C313.816 267.382 311.758 269.44 311.758 271.979V316.754C311.758 319.292 313.816 321.35 316.355 321.35C318.893 321.35 320.951 319.292 320.951 316.754V271.979C320.951 269.44 318.893 267.382 316.355 267.382ZM165.094 292.161C165.094 289.623 167.152 287.565 169.691 287.565C172.229 287.565 174.287 289.623 174.287 292.161V317.403C174.287 319.942 172.229 322 169.691 322C167.152 322 165.094 319.942 165.094 317.403V292.161ZM115.57 311.176C115.57 308.637 117.628 306.579 120.167 306.579C122.705 306.579 124.763 308.637 124.763 311.176V316.754C124.763 319.292 122.705 321.35 120.167 321.35C117.628 321.35 115.57 319.292 115.57 316.754V311.176ZM218.261 289.991C215.722 289.991 213.664 292.049 213.664 294.587V316.754C213.664 319.292 215.722 321.35 218.261 321.35C220.799 321.35 222.857 319.292 222.857 316.754V294.587C222.857 292.049 220.799 289.991 218.261 289.991ZM262.234 308.577C262.234 306.038 264.292 303.98 266.831 303.98C269.369 303.98 271.427 306.038 271.427 308.577V316.754C271.427 319.292 269.369 321.35 266.831 321.35C264.292 321.35 262.234 319.292 262.234 316.754V308.577ZM139.809 297.359C139.809 294.82 141.867 292.762 144.406 292.762C146.944 292.762 149.002 294.82 149.002 297.359V316.754C149.002 319.292 146.944 321.35 144.406 321.35C141.867 321.35 139.809 319.292 139.809 316.754V297.359ZM193.93 269.027C191.391 269.027 189.333 271.085 189.333 273.623V317.403C189.333 319.942 191.391 322 193.93 322C196.469 322 198.527 319.942 198.527 317.403V273.623C198.527 271.085 196.469 269.027 193.93 269.027ZM237.903 301.085C237.903 298.546 239.961 296.488 242.5 296.488C245.039 296.488 247.097 298.546 247.097 301.085V316.754C247.097 319.292 245.039 321.35 242.5 321.35C239.961 321.35 237.903 319.292 237.903 316.754V301.085ZM291.07 287.565C288.531 287.565 286.473 289.623 286.473 292.161V316.754C286.473 319.292 288.531 321.35 291.07 321.35C293.609 321.35 295.667 319.292 295.667 316.754V292.161C295.667 289.623 293.609 287.565 291.07 287.565Z" fill="#2F1872" fill-opacity="0.2"/>
<path d="M121.912 247.182L122.048 225.364H123.855L123.719 247.182H121.912ZM126.207 232.344C126.128 231.599 125.793 231.02 125.202 230.605C124.616 230.19 123.855 229.983 122.918 229.983C122.259 229.983 121.693 230.082 121.222 230.281C120.75 230.48 120.389 230.75 120.139 231.091C119.889 231.432 119.761 231.821 119.756 232.259C119.756 232.622 119.838 232.937 120.003 233.205C120.173 233.472 120.403 233.699 120.693 233.886C120.983 234.068 121.304 234.222 121.656 234.347C122.009 234.472 122.364 234.577 122.722 234.662L124.358 235.071C125.017 235.224 125.651 235.432 126.259 235.693C126.872 235.955 127.42 236.284 127.903 236.682C128.392 237.08 128.778 237.56 129.062 238.122C129.347 238.685 129.489 239.344 129.489 240.099C129.489 241.122 129.227 242.023 128.705 242.801C128.182 243.574 127.426 244.179 126.438 244.616C125.455 245.048 124.264 245.264 122.866 245.264C121.509 245.264 120.33 245.054 119.33 244.634C118.335 244.213 117.557 243.599 116.994 242.793C116.438 241.986 116.136 241.003 116.091 239.844H119.202C119.247 240.452 119.435 240.957 119.764 241.361C120.094 241.764 120.523 242.065 121.051 242.264C121.585 242.463 122.182 242.562 122.841 242.562C123.528 242.562 124.131 242.46 124.648 242.256C125.17 242.045 125.58 241.756 125.875 241.386C126.17 241.011 126.321 240.574 126.327 240.074C126.321 239.619 126.188 239.244 125.926 238.949C125.665 238.648 125.298 238.398 124.827 238.199C124.361 237.994 123.815 237.812 123.19 237.653L121.205 237.142C119.767 236.773 118.631 236.213 117.795 235.463C116.966 234.707 116.551 233.705 116.551 232.455C116.551 231.426 116.83 230.526 117.386 229.753C117.949 228.98 118.713 228.381 119.679 227.955C120.645 227.523 121.739 227.307 122.96 227.307C124.199 227.307 125.284 227.523 126.216 227.955C127.153 228.381 127.889 228.974 128.423 229.736C128.957 230.491 129.233 231.361 129.25 232.344H126.207ZM138.197 227.256C139.032 227.261 139.844 227.409 140.634 227.699C141.43 227.989 142.146 228.457 142.782 229.105C143.418 229.753 143.924 230.619 144.299 231.705C144.674 232.79 144.862 234.134 144.862 235.736C144.862 237.236 144.7 238.577 144.376 239.759C144.058 240.935 143.6 241.929 143.004 242.741C142.413 243.554 141.697 244.173 140.856 244.599C140.015 245.026 139.069 245.239 138.018 245.239C136.915 245.239 135.938 245.023 135.086 244.591C134.239 244.159 133.555 243.568 133.032 242.818C132.509 242.068 132.188 241.21 132.069 240.244H135.18C135.339 240.937 135.663 241.489 136.151 241.898C136.646 242.301 137.268 242.503 138.018 242.503C139.228 242.503 140.16 241.977 140.813 240.926C141.467 239.875 141.793 238.415 141.793 236.545H141.674C141.396 237.045 141.035 237.477 140.592 237.841C140.148 238.199 139.646 238.474 139.083 238.668C138.526 238.861 137.935 238.957 137.31 238.957C136.288 238.957 135.367 238.713 134.549 238.224C133.731 237.736 133.083 237.065 132.606 236.213C132.134 235.355 131.898 234.375 131.898 233.273C131.898 232.125 132.16 231.097 132.683 230.188C133.211 229.278 133.947 228.562 134.89 228.04C135.833 227.511 136.935 227.25 138.197 227.256ZM138.205 229.812C137.592 229.812 137.038 229.963 136.543 230.264C136.055 230.565 135.668 230.972 135.384 231.483C135.106 231.994 134.967 232.568 134.967 233.205C134.967 233.83 135.103 234.398 135.376 234.909C135.654 235.415 136.035 235.815 136.518 236.111C137.001 236.406 137.552 236.554 138.171 236.554C138.631 236.554 139.06 236.466 139.458 236.29C139.856 236.108 140.202 235.861 140.498 235.548C140.793 235.236 141.023 234.878 141.188 234.474C141.359 234.065 141.444 233.636 141.444 233.188C141.444 232.58 141.302 232.02 141.018 231.509C140.739 230.997 140.356 230.588 139.867 230.281C139.384 229.969 138.83 229.812 138.205 229.812ZM153.759 227.256C154.594 227.261 155.407 227.409 156.197 227.699C156.992 227.989 157.708 228.457 158.344 229.105C158.981 229.753 159.487 230.619 159.862 231.705C160.237 232.79 160.424 234.134 160.424 235.736C160.424 237.236 160.262 238.577 159.938 239.759C159.62 240.935 159.163 241.929 158.566 242.741C157.975 243.554 157.259 244.173 156.418 244.599C155.577 245.026 154.631 245.239 153.58 245.239C152.478 245.239 151.501 245.023 150.648 244.591C149.802 244.159 149.117 243.568 148.594 242.818C148.072 242.068 147.751 241.21 147.631 240.244H150.742C150.901 240.937 151.225 241.489 151.714 241.898C152.208 242.301 152.83 242.503 153.58 242.503C154.79 242.503 155.722 241.977 156.376 240.926C157.029 239.875 157.356 238.415 157.356 236.545H157.237C156.958 237.045 156.597 237.477 156.154 237.841C155.711 238.199 155.208 238.474 154.646 238.668C154.089 238.861 153.498 238.957 152.873 238.957C151.85 238.957 150.93 238.713 150.112 238.224C149.293 237.736 148.646 237.065 148.168 236.213C147.697 235.355 147.461 234.375 147.461 233.273C147.461 232.125 147.722 231.097 148.245 230.188C148.773 229.278 149.509 228.562 150.452 228.04C151.396 227.511 152.498 227.25 153.759 227.256ZM153.768 229.812C153.154 229.812 152.6 229.963 152.106 230.264C151.617 230.565 151.231 230.972 150.947 231.483C150.668 231.994 150.529 232.568 150.529 233.205C150.529 233.83 150.665 234.398 150.938 234.909C151.217 235.415 151.597 235.815 152.08 236.111C152.563 236.406 153.114 236.554 153.734 236.554C154.194 236.554 154.623 236.466 155.021 236.29C155.418 236.108 155.765 235.861 156.06 235.548C156.356 235.236 156.586 234.878 156.751 234.474C156.921 234.065 157.006 233.636 157.006 233.188C157.006 232.58 156.864 232.02 156.58 231.509C156.302 230.997 155.918 230.588 155.43 230.281C154.947 229.969 154.393 229.812 153.768 229.812ZM169.467 245.239C168.2 245.239 167.075 245.026 166.092 244.599C165.114 244.173 164.347 243.591 163.79 242.852C163.239 242.108 162.967 241.264 162.972 240.321C162.967 239.588 163.126 238.915 163.45 238.301C163.773 237.688 164.211 237.176 164.762 236.767C165.319 236.352 165.938 236.088 166.62 235.974V235.855C165.722 235.656 164.995 235.199 164.438 234.483C163.887 233.761 163.614 232.929 163.62 231.986C163.614 231.088 163.864 230.287 164.37 229.582C164.876 228.878 165.569 228.324 166.45 227.92C167.33 227.511 168.336 227.307 169.467 227.307C170.586 227.307 171.583 227.511 172.458 227.92C173.339 228.324 174.032 228.878 174.538 229.582C175.049 230.287 175.305 231.088 175.305 231.986C175.305 232.929 175.023 233.761 174.461 234.483C173.904 235.199 173.185 235.656 172.305 235.855V235.974C172.987 236.088 173.6 236.352 174.146 236.767C174.697 237.176 175.134 237.688 175.458 238.301C175.788 238.915 175.952 239.588 175.952 240.321C175.952 241.264 175.674 242.108 175.117 242.852C174.56 243.591 173.793 244.173 172.816 244.599C171.844 245.026 170.728 245.239 169.467 245.239ZM169.467 242.801C170.12 242.801 170.688 242.69 171.171 242.469C171.654 242.241 172.029 241.923 172.296 241.514C172.563 241.105 172.7 240.634 172.705 240.099C172.7 239.543 172.555 239.051 172.271 238.625C171.992 238.193 171.609 237.855 171.12 237.611C170.637 237.366 170.086 237.244 169.467 237.244C168.842 237.244 168.285 237.366 167.796 237.611C167.308 237.855 166.921 238.193 166.637 238.625C166.359 239.051 166.222 239.543 166.228 240.099C166.222 240.634 166.353 241.105 166.62 241.514C166.887 241.918 167.262 242.233 167.745 242.46C168.234 242.687 168.808 242.801 169.467 242.801ZM169.467 234.849C170.001 234.849 170.472 234.741 170.881 234.526C171.296 234.31 171.623 234.009 171.862 233.622C172.1 233.236 172.222 232.79 172.228 232.284C172.222 231.784 172.103 231.347 171.87 230.972C171.637 230.591 171.313 230.298 170.898 230.094C170.484 229.884 170.006 229.778 169.467 229.778C168.915 229.778 168.43 229.884 168.009 230.094C167.594 230.298 167.271 230.591 167.038 230.972C166.81 231.347 166.7 231.784 166.705 232.284C166.7 232.79 166.813 233.236 167.046 233.622C167.285 234.003 167.612 234.304 168.026 234.526C168.447 234.741 168.927 234.849 169.467 234.849ZM181.895 242.614L181.784 243.551C181.705 244.267 181.563 244.994 181.358 245.733C181.159 246.477 180.949 247.162 180.727 247.787C180.506 248.412 180.327 248.903 180.19 249.261H178.111C178.19 248.915 178.298 248.443 178.435 247.847C178.577 247.25 178.713 246.58 178.844 245.835C178.974 245.091 179.063 244.335 179.108 243.568L179.168 242.614H181.895ZM190.995 245.239C189.768 245.239 188.677 245.028 187.722 244.608C186.773 244.187 186.023 243.602 185.472 242.852C184.921 242.102 184.629 241.236 184.594 240.253H187.799C187.827 240.724 187.984 241.136 188.268 241.489C188.552 241.835 188.93 242.105 189.401 242.298C189.873 242.491 190.401 242.588 190.987 242.588C191.612 242.588 192.165 242.48 192.648 242.264C193.131 242.043 193.509 241.736 193.782 241.344C194.055 240.952 194.188 240.5 194.183 239.989C194.188 239.46 194.052 238.994 193.773 238.591C193.495 238.187 193.092 237.872 192.563 237.645C192.04 237.418 191.41 237.304 190.671 237.304H189.129V234.866H190.671C191.279 234.866 191.81 234.761 192.265 234.551C192.725 234.341 193.086 234.045 193.347 233.665C193.609 233.278 193.737 232.832 193.731 232.327C193.737 231.832 193.626 231.403 193.398 231.04C193.177 230.67 192.862 230.384 192.452 230.179C192.049 229.974 191.575 229.872 191.029 229.872C190.495 229.872 190.001 229.969 189.546 230.162C189.092 230.355 188.725 230.631 188.447 230.989C188.168 231.341 188.021 231.761 188.004 232.25H184.961C184.984 231.273 185.265 230.415 185.805 229.676C186.35 228.932 187.077 228.352 187.987 227.938C188.896 227.517 189.915 227.307 191.046 227.307C192.211 227.307 193.222 227.526 194.08 227.963C194.944 228.395 195.612 228.977 196.083 229.71C196.555 230.443 196.79 231.253 196.79 232.139C196.796 233.122 196.506 233.946 195.921 234.611C195.342 235.276 194.58 235.71 193.637 235.915V236.051C194.864 236.222 195.805 236.676 196.458 237.415C197.117 238.148 197.444 239.06 197.438 240.151C197.438 241.128 197.16 242.003 196.603 242.776C196.052 243.543 195.29 244.145 194.319 244.582C193.353 245.02 192.245 245.239 190.995 245.239ZM206.756 245.239C205.92 245.233 205.105 245.088 204.31 244.804C203.52 244.514 202.807 244.045 202.17 243.398C201.534 242.744 201.028 241.878 200.653 240.798C200.278 239.713 200.091 238.369 200.091 236.767C200.091 235.261 200.25 233.92 200.568 232.744C200.886 231.568 201.344 230.574 201.94 229.761C202.537 228.943 203.256 228.321 204.097 227.895C204.943 227.469 205.889 227.256 206.935 227.256C208.031 227.256 209.003 227.474 209.849 227.912C210.702 228.344 211.389 228.937 211.912 229.693C212.435 230.443 212.759 231.295 212.884 232.25H209.773C209.614 231.557 209.287 231.009 208.793 230.605C208.304 230.196 207.685 229.991 206.935 229.991C205.724 229.991 204.793 230.52 204.139 231.577C203.491 232.634 203.165 234.091 203.159 235.949H203.278C203.557 235.449 203.918 235.02 204.361 234.662C204.804 234.304 205.304 234.028 205.861 233.835C206.423 233.636 207.017 233.537 207.642 233.537C208.665 233.537 209.582 233.781 210.395 234.27C211.213 234.759 211.861 235.432 212.338 236.29C212.815 237.142 213.051 238.119 213.045 239.222C213.051 240.369 212.79 241.401 212.261 242.315C211.733 243.224 210.997 243.94 210.054 244.463C209.111 244.986 208.011 245.244 206.756 245.239ZM206.739 242.682C207.358 242.682 207.912 242.531 208.401 242.23C208.889 241.929 209.276 241.523 209.56 241.011C209.844 240.5 209.983 239.926 209.977 239.29C209.983 238.665 209.847 238.099 209.568 237.594C209.295 237.088 208.918 236.687 208.435 236.392C207.952 236.097 207.401 235.949 206.781 235.949C206.321 235.949 205.892 236.037 205.494 236.213C205.097 236.389 204.75 236.634 204.455 236.946C204.159 237.253 203.926 237.611 203.756 238.02C203.591 238.423 203.506 238.855 203.5 239.315C203.506 239.923 203.648 240.483 203.926 240.994C204.205 241.506 204.588 241.915 205.077 242.222C205.565 242.528 206.119 242.682 206.739 242.682ZM215.926 245V242.716L221.986 236.776C222.565 236.19 223.048 235.67 223.435 235.216C223.821 234.761 224.111 234.321 224.304 233.895C224.497 233.469 224.594 233.014 224.594 232.531C224.594 231.98 224.469 231.509 224.219 231.116C223.969 230.719 223.625 230.412 223.188 230.196C222.75 229.98 222.253 229.872 221.696 229.872C221.122 229.872 220.619 229.991 220.188 230.23C219.756 230.463 219.42 230.795 219.182 231.227C218.949 231.659 218.832 232.173 218.832 232.77H215.824C215.824 231.662 216.077 230.699 216.582 229.881C217.088 229.062 217.784 228.429 218.67 227.98C219.563 227.531 220.585 227.307 221.739 227.307C222.909 227.307 223.938 227.526 224.824 227.963C225.71 228.401 226.398 229 226.886 229.761C227.381 230.523 227.628 231.392 227.628 232.369C227.628 233.023 227.503 233.665 227.253 234.295C227.003 234.926 226.563 235.625 225.932 236.392C225.307 237.159 224.429 238.088 223.298 239.179L220.29 242.239V242.358H227.892V245H215.926ZM232.767 245.188C232.25 245.188 231.807 245.006 231.438 244.642C231.068 244.278 230.886 243.835 230.892 243.312C230.886 242.801 231.068 242.364 231.438 242C231.807 241.636 232.25 241.455 232.767 241.455C233.267 241.455 233.702 241.636 234.071 242C234.446 242.364 234.636 242.801 234.642 243.312C234.636 243.659 234.545 243.974 234.369 244.259C234.199 244.543 233.972 244.77 233.688 244.94C233.409 245.105 233.102 245.188 232.767 245.188ZM243.342 245.239C242.075 245.239 240.95 245.026 239.967 244.599C238.989 244.173 238.222 243.591 237.665 242.852C237.114 242.108 236.842 241.264 236.847 240.321C236.842 239.588 237.001 238.915 237.325 238.301C237.648 237.688 238.086 237.176 238.637 236.767C239.194 236.352 239.813 236.088 240.495 235.974V235.855C239.597 235.656 238.87 235.199 238.313 234.483C237.762 233.761 237.489 232.929 237.495 231.986C237.489 231.088 237.739 230.287 238.245 229.582C238.751 228.878 239.444 228.324 240.325 227.92C241.205 227.511 242.211 227.307 243.342 227.307C244.461 227.307 245.458 227.511 246.333 227.92C247.214 228.324 247.907 228.878 248.413 229.582C248.924 230.287 249.18 231.088 249.18 231.986C249.18 232.929 248.898 233.761 248.336 234.483C247.779 235.199 247.06 235.656 246.18 235.855V235.974C246.862 236.088 247.475 236.352 248.021 236.767C248.572 237.176 249.009 237.688 249.333 238.301C249.663 238.915 249.827 239.588 249.827 240.321C249.827 241.264 249.549 242.108 248.992 242.852C248.435 243.591 247.668 244.173 246.691 244.599C245.719 245.026 244.603 245.239 243.342 245.239ZM243.342 242.801C243.995 242.801 244.563 242.69 245.046 242.469C245.529 242.241 245.904 241.923 246.171 241.514C246.438 241.105 246.575 240.634 246.58 240.099C246.575 239.543 246.43 239.051 246.146 238.625C245.867 238.193 245.484 237.855 244.995 237.611C244.512 237.366 243.961 237.244 243.342 237.244C242.717 237.244 242.16 237.366 241.671 237.611C241.183 237.855 240.796 238.193 240.512 238.625C240.234 239.051 240.097 239.543 240.103 240.099C240.097 240.634 240.228 241.105 240.495 241.514C240.762 241.918 241.137 242.233 241.62 242.46C242.109 242.687 242.683 242.801 243.342 242.801ZM243.342 234.849C243.876 234.849 244.347 234.741 244.756 234.526C245.171 234.31 245.498 234.009 245.737 233.622C245.975 233.236 246.097 232.79 246.103 232.284C246.097 231.784 245.978 231.347 245.745 230.972C245.512 230.591 245.188 230.298 244.773 230.094C244.359 229.884 243.881 229.778 243.342 229.778C242.79 229.778 242.305 229.884 241.884 230.094C241.469 230.298 241.146 230.591 240.913 230.972C240.685 231.347 240.575 231.784 240.58 232.284C240.575 232.79 240.688 233.236 240.921 233.622C241.16 234.003 241.487 234.304 241.901 234.526C242.322 234.741 242.802 234.849 243.342 234.849ZM252.629 245V242.716L258.689 236.776C259.268 236.19 259.751 235.67 260.138 235.216C260.524 234.761 260.814 234.321 261.007 233.895C261.2 233.469 261.297 233.014 261.297 232.531C261.297 231.98 261.172 231.509 260.922 231.116C260.672 230.719 260.328 230.412 259.891 230.196C259.453 229.98 258.956 229.872 258.399 229.872C257.825 229.872 257.322 229.991 256.891 230.23C256.459 230.463 256.124 230.795 255.885 231.227C255.652 231.659 255.536 232.173 255.536 232.77H252.527C252.527 231.662 252.78 230.699 253.286 229.881C253.791 229.062 254.487 228.429 255.374 227.98C256.266 227.531 257.288 227.307 258.442 227.307C259.612 227.307 260.641 227.526 261.527 227.963C262.413 228.401 263.101 229 263.589 229.761C264.084 230.523 264.331 231.392 264.331 232.369C264.331 233.023 264.206 233.665 263.956 234.295C263.706 234.926 263.266 235.625 262.635 236.392C262.01 237.159 261.132 238.088 260.001 239.179L256.993 242.239V242.358H264.595V245H252.629Z" fill="white"/>
<path d="M116.438 204V190.909H121.104C122.123 190.909 122.967 191.094 123.636 191.465C124.305 191.836 124.805 192.343 125.138 192.987C125.47 193.626 125.636 194.346 125.636 195.147C125.636 195.952 125.468 196.677 125.131 197.32C124.799 197.96 124.296 198.467 123.623 198.842C122.954 199.212 122.112 199.398 121.098 199.398H117.889V197.723H120.919C121.563 197.723 122.085 197.612 122.485 197.391C122.886 197.165 123.18 196.858 123.367 196.47C123.555 196.082 123.648 195.641 123.648 195.147C123.648 194.653 123.555 194.214 123.367 193.83C123.18 193.447 122.884 193.146 122.479 192.929C122.078 192.712 121.55 192.603 120.893 192.603H118.413V204H116.438ZM128.068 204V194.182H129.916V195.741H130.018C130.197 195.213 130.512 194.798 130.964 194.495C131.42 194.188 131.936 194.035 132.511 194.035C132.63 194.035 132.771 194.039 132.933 194.048C133.099 194.056 133.229 194.067 133.323 194.08V195.908C133.246 195.886 133.11 195.863 132.914 195.837C132.718 195.808 132.522 195.793 132.326 195.793C131.874 195.793 131.471 195.888 131.117 196.08C130.768 196.268 130.491 196.53 130.287 196.866C130.082 197.199 129.98 197.578 129.98 198.004V204H128.068ZM139.031 204.198C138.11 204.198 137.307 203.987 136.621 203.565C135.935 203.143 135.402 202.553 135.023 201.795C134.644 201.036 134.454 200.15 134.454 199.136C134.454 198.117 134.644 197.227 135.023 196.464C135.402 195.701 135.935 195.109 136.621 194.687C137.307 194.265 138.11 194.054 139.031 194.054C139.951 194.054 140.754 194.265 141.441 194.687C142.127 195.109 142.659 195.701 143.039 196.464C143.418 197.227 143.607 198.117 143.607 199.136C143.607 200.15 143.418 201.036 143.039 201.795C142.659 202.553 142.127 203.143 141.441 203.565C140.754 203.987 139.951 204.198 139.031 204.198ZM139.037 202.594C139.634 202.594 140.128 202.436 140.52 202.121C140.912 201.805 141.202 201.386 141.389 200.862C141.581 200.337 141.677 199.76 141.677 199.129C141.677 198.503 141.581 197.928 141.389 197.403C141.202 196.875 140.912 196.451 140.52 196.131C140.128 195.812 139.634 195.652 139.037 195.652C138.436 195.652 137.938 195.812 137.541 196.131C137.149 196.451 136.857 196.875 136.666 197.403C136.478 197.928 136.384 198.503 136.384 199.129C136.384 199.76 136.478 200.337 136.666 200.862C136.857 201.386 137.149 201.805 137.541 202.121C137.938 202.436 138.436 202.594 139.037 202.594ZM150.683 194.182V195.716H145.135V194.182H150.683ZM146.656 204V193.044C146.656 192.43 146.791 191.921 147.059 191.516C147.328 191.107 147.683 190.803 148.127 190.602C148.57 190.398 149.051 190.295 149.571 190.295C149.955 190.295 150.283 190.327 150.556 190.391C150.828 190.451 151.031 190.506 151.163 190.558L150.715 192.104C150.626 192.079 150.511 192.049 150.37 192.015C150.23 191.977 150.059 191.957 149.859 191.957C149.394 191.957 149.062 192.072 148.862 192.303C148.666 192.533 148.568 192.865 148.568 193.3V204H146.656ZM152.925 204V194.182H154.837V204H152.925ZM153.891 192.667C153.558 192.667 153.273 192.556 153.034 192.335C152.8 192.109 152.682 191.84 152.682 191.529C152.682 191.214 152.8 190.945 153.034 190.724C153.273 190.498 153.558 190.385 153.891 190.385C154.223 190.385 154.506 190.498 154.741 190.724C154.979 190.945 155.099 191.214 155.099 191.529C155.099 191.84 154.979 192.109 154.741 192.335C154.506 192.556 154.223 192.667 153.891 192.667ZM162.261 194.182V195.716H156.898V194.182H162.261ZM158.336 191.83H160.247V201.117C160.247 201.488 160.303 201.767 160.414 201.955C160.524 202.138 160.667 202.263 160.842 202.332C161.021 202.396 161.215 202.428 161.424 202.428C161.577 202.428 161.711 202.417 161.826 202.396C161.941 202.374 162.031 202.357 162.095 202.344L162.44 203.923C162.329 203.966 162.171 204.009 161.967 204.051C161.762 204.098 161.507 204.124 161.2 204.128C160.697 204.136 160.228 204.047 159.794 203.859C159.359 203.672 159.007 203.382 158.739 202.99C158.47 202.598 158.336 202.106 158.336 201.513V191.83Z" fill="white"/>
<path fill-rule="evenodd" clip-rule="evenodd" d="M371.09 162.46C370 164.599 370 167.399 370 173V371C370 376.601 370 379.401 371.09 381.54C372.049 383.422 373.578 384.951 375.46 385.91C377.599 387 380.399 387 386 387H534C539.601 387 542.401 387 544.54 385.91C546.422 384.951 547.951 383.422 548.91 381.54C550 379.401 550 376.601 550 371V173C550 167.399 550 164.599 548.91 162.46C547.951 160.578 546.422 159.049 544.54 158.09C542.401 157 539.601 157 534 157H386C380.399 157 377.599 157 375.46 158.09C373.578 159.049 372.049 160.578 371.09 162.46ZM523.32 264.768C522.087 262.935 519.602 262.448 517.768 263.68L493.021 280.316L471.71 279.527L471.427 279.524C470 279.544 468.41 280.092 467.305 280.96L444.515 298.863L422.018 301.191L402.605 284.529L402.435 284.391C400.762 283.105 398.355 283.339 396.965 284.959C395.526 286.636 395.718 289.161 397.395 290.6L417.351 307.728L417.566 307.903C418.812 308.867 420.569 309.384 422.124 309.223L445.495 306.805L445.777 306.769C447.01 306.583 448.376 306.005 449.336 305.251L471.88 287.538L493.026 288.322L493.308 288.326C494.641 288.31 496.147 287.855 497.235 287.123L522.232 270.32L522.405 270.197C524.095 268.927 524.512 266.543 523.32 264.768Z" fill="#2F1872" fill-opacity="0.2"/>
<path d="M408.651 227.545V245H405.489V230.622H405.386L401.304 233.23V230.332L405.642 227.545H408.651ZM419.287 245.239C418.02 245.239 416.895 245.026 415.912 244.599C414.935 244.173 414.168 243.591 413.611 242.852C413.06 242.108 412.787 241.264 412.793 240.321C412.787 239.588 412.946 238.915 413.27 238.301C413.594 237.688 414.031 237.176 414.582 236.767C415.139 236.352 415.759 236.088 416.44 235.974V235.855C415.543 235.656 414.815 235.199 414.259 234.483C413.707 233.761 413.435 232.929 413.44 231.986C413.435 231.088 413.685 230.287 414.19 229.582C414.696 228.878 415.389 228.324 416.27 227.92C417.151 227.511 418.156 227.307 419.287 227.307C420.406 227.307 421.403 227.511 422.278 227.92C423.159 228.324 423.852 228.878 424.358 229.582C424.869 230.287 425.125 231.088 425.125 231.986C425.125 232.929 424.844 233.761 424.281 234.483C423.724 235.199 423.006 235.656 422.125 235.855V235.974C422.807 236.088 423.42 236.352 423.966 236.767C424.517 237.176 424.955 237.688 425.278 238.301C425.608 238.915 425.773 239.588 425.773 240.321C425.773 241.264 425.494 242.108 424.938 242.852C424.381 243.591 423.614 244.173 422.636 244.599C421.665 245.026 420.548 245.239 419.287 245.239ZM419.287 242.801C419.94 242.801 420.509 242.69 420.991 242.469C421.474 242.241 421.849 241.923 422.116 241.514C422.384 241.105 422.52 240.634 422.526 240.099C422.52 239.543 422.375 239.051 422.091 238.625C421.813 238.193 421.429 237.855 420.94 237.611C420.457 237.366 419.906 237.244 419.287 237.244C418.662 237.244 418.105 237.366 417.616 237.611C417.128 237.855 416.741 238.193 416.457 238.625C416.179 239.051 416.043 239.543 416.048 240.099C416.043 240.634 416.173 241.105 416.44 241.514C416.707 241.918 417.082 242.233 417.565 242.46C418.054 242.687 418.628 242.801 419.287 242.801ZM419.287 234.849C419.821 234.849 420.293 234.741 420.702 234.526C421.116 234.31 421.443 234.009 421.682 233.622C421.92 233.236 422.043 232.79 422.048 232.284C422.043 231.784 421.923 231.347 421.69 230.972C421.457 230.591 421.134 230.298 420.719 230.094C420.304 229.884 419.827 229.778 419.287 229.778C418.736 229.778 418.25 229.884 417.83 230.094C417.415 230.298 417.091 230.591 416.858 230.972C416.631 231.347 416.52 231.784 416.526 232.284C416.52 232.79 416.634 233.236 416.866 233.622C417.105 234.003 417.432 234.304 417.847 234.526C418.267 234.741 418.747 234.849 419.287 234.849ZM429.994 245.188C429.477 245.188 429.033 245.006 428.664 244.642C428.295 244.278 428.113 243.835 428.119 243.312C428.113 242.801 428.295 242.364 428.664 242C429.033 241.636 429.477 241.455 429.994 241.455C430.494 241.455 430.928 241.636 431.298 242C431.673 242.364 431.863 242.801 431.869 243.312C431.863 243.659 431.772 243.974 431.596 244.259C431.425 244.543 431.198 244.77 430.914 244.94C430.636 245.105 430.329 245.188 429.994 245.188ZM440.732 245.239C439.897 245.233 439.082 245.088 438.286 244.804C437.496 244.514 436.783 244.045 436.147 243.398C435.511 242.744 435.005 241.878 434.63 240.798C434.255 239.713 434.067 238.369 434.067 236.767C434.067 235.261 434.227 233.92 434.545 232.744C434.863 231.568 435.32 230.574 435.917 229.761C436.513 228.943 437.232 228.321 438.073 227.895C438.92 227.469 439.866 227.256 440.911 227.256C442.008 227.256 442.979 227.474 443.826 227.912C444.678 228.344 445.366 228.937 445.888 229.693C446.411 230.443 446.735 231.295 446.86 232.25H443.749C443.59 231.557 443.263 231.009 442.769 230.605C442.281 230.196 441.661 229.991 440.911 229.991C439.701 229.991 438.769 230.52 438.116 231.577C437.468 232.634 437.141 234.091 437.136 235.949H437.255C437.533 235.449 437.894 235.02 438.337 234.662C438.781 234.304 439.281 234.028 439.837 233.835C440.4 233.636 440.994 233.537 441.619 233.537C442.641 233.537 443.559 233.781 444.371 234.27C445.19 234.759 445.837 235.432 446.315 236.29C446.792 237.142 447.028 238.119 447.022 239.222C447.028 240.369 446.766 241.401 446.238 242.315C445.71 243.224 444.974 243.94 444.031 244.463C443.087 244.986 441.988 245.244 440.732 245.239ZM440.715 242.682C441.335 242.682 441.888 242.531 442.377 242.23C442.866 241.929 443.252 241.523 443.536 241.011C443.82 240.5 443.96 239.926 443.954 239.29C443.96 238.665 443.823 238.099 443.545 237.594C443.272 237.088 442.894 236.687 442.411 236.392C441.928 236.097 441.377 235.949 440.758 235.949C440.298 235.949 439.869 236.037 439.471 236.213C439.073 236.389 438.727 236.634 438.431 236.946C438.136 237.253 437.903 237.611 437.732 238.02C437.567 238.423 437.482 238.855 437.477 239.315C437.482 239.923 437.624 240.483 437.903 240.994C438.181 241.506 438.565 241.915 439.053 242.222C439.542 242.528 440.096 242.682 440.715 242.682ZM459.235 241.727V240.807C459.235 240.131 459.377 239.509 459.661 238.94C459.951 238.372 460.371 237.915 460.923 237.568C461.474 237.222 462.141 237.048 462.925 237.048C463.732 237.048 464.408 237.222 464.954 237.568C465.505 237.909 465.92 238.364 466.198 238.932C466.482 239.5 466.621 240.125 466.616 240.807V241.727C466.621 242.403 466.482 243.026 466.198 243.594C465.914 244.162 465.496 244.619 464.945 244.966C464.394 245.313 463.721 245.486 462.925 245.486C462.13 245.486 461.457 245.313 460.906 244.966C460.36 244.619 459.945 244.162 459.661 243.594C459.377 243.026 459.235 242.403 459.235 241.727ZM461.46 240.807V241.727C461.465 242.176 461.573 242.588 461.783 242.963C461.999 243.338 462.38 243.526 462.925 243.526C463.477 243.526 463.857 243.341 464.067 242.972C464.278 242.597 464.38 242.182 464.374 241.727V240.807C464.38 240.352 464.281 239.938 464.076 239.562C463.877 239.182 463.494 238.991 462.925 238.991C462.391 238.991 462.013 239.182 461.792 239.562C461.576 239.938 461.465 240.352 461.46 240.807ZM450.363 231.739V230.818C450.363 230.136 450.508 229.511 450.798 228.943C451.087 228.375 451.508 227.92 452.059 227.58C452.61 227.233 453.278 227.06 454.062 227.06C454.863 227.06 455.536 227.233 456.082 227.58C456.633 227.92 457.048 228.375 457.326 228.943C457.61 229.511 457.749 230.136 457.744 230.818V231.739C457.749 232.42 457.61 233.045 457.326 233.614C457.042 234.176 456.624 234.628 456.073 234.969C455.522 235.31 454.852 235.48 454.062 235.48C453.261 235.48 452.585 235.31 452.033 234.969C451.488 234.628 451.073 234.173 450.789 233.605C450.505 233.037 450.363 232.415 450.363 231.739ZM452.604 230.818V231.739C452.61 232.193 452.718 232.608 452.928 232.983C453.138 233.352 453.516 233.537 454.062 233.537C454.607 233.537 454.985 233.352 455.195 232.983C455.406 232.608 455.508 232.193 455.502 231.739V230.818C455.508 230.364 455.408 229.949 455.204 229.574C455.005 229.193 454.624 229.003 454.062 229.003C453.522 229.003 453.144 229.193 452.928 229.574C452.718 229.955 452.61 230.369 452.604 230.818ZM451.13 245L463.13 227.545H465.269L453.269 245H451.13Z" fill="white"/>
<path d="M401.438 204V190.909H406.104C407.123 190.909 407.967 191.094 408.636 191.465C409.305 191.836 409.805 192.343 410.138 192.987C410.47 193.626 410.636 194.346 410.636 195.147C410.636 195.952 410.468 196.677 410.131 197.32C409.799 197.96 409.296 198.467 408.623 198.842C407.954 199.212 407.112 199.398 406.098 199.398H402.889V197.723H405.919C406.563 197.723 407.085 197.612 407.485 197.391C407.886 197.165 408.18 196.858 408.367 196.47C408.555 196.082 408.648 195.641 408.648 195.147C408.648 194.653 408.555 194.214 408.367 193.83C408.18 193.447 407.884 193.146 407.479 192.929C407.078 192.712 406.55 192.603 405.893 192.603H403.413V204H401.438ZM413.068 204V194.182H414.916V195.741H415.018C415.197 195.213 415.512 194.798 415.964 194.495C416.42 194.188 416.936 194.035 417.511 194.035C417.63 194.035 417.771 194.039 417.933 194.048C418.099 194.056 418.229 194.067 418.323 194.08V195.908C418.246 195.886 418.11 195.863 417.914 195.837C417.718 195.808 417.522 195.793 417.326 195.793C416.874 195.793 416.471 195.888 416.117 196.08C415.768 196.268 415.491 196.53 415.287 196.866C415.082 197.199 414.98 197.578 414.98 198.004V204H413.068ZM424.031 204.198C423.11 204.198 422.307 203.987 421.621 203.565C420.935 203.143 420.402 202.553 420.023 201.795C419.644 201.036 419.454 200.15 419.454 199.136C419.454 198.117 419.644 197.227 420.023 196.464C420.402 195.701 420.935 195.109 421.621 194.687C422.307 194.265 423.11 194.054 424.031 194.054C424.951 194.054 425.754 194.265 426.441 194.687C427.127 195.109 427.659 195.701 428.039 196.464C428.418 197.227 428.607 198.117 428.607 199.136C428.607 200.15 428.418 201.036 428.039 201.795C427.659 202.553 427.127 203.143 426.441 203.565C425.754 203.987 424.951 204.198 424.031 204.198ZM424.037 202.594C424.634 202.594 425.128 202.436 425.52 202.121C425.912 201.805 426.202 201.386 426.389 200.862C426.581 200.337 426.677 199.76 426.677 199.129C426.677 198.503 426.581 197.928 426.389 197.403C426.202 196.875 425.912 196.451 425.52 196.131C425.128 195.812 424.634 195.652 424.037 195.652C423.436 195.652 422.938 195.812 422.541 196.131C422.149 196.451 421.857 196.875 421.666 197.403C421.478 197.928 421.384 198.503 421.384 199.129C421.384 199.76 421.478 200.337 421.666 200.862C421.857 201.386 422.149 201.805 422.541 202.121C422.938 202.436 423.436 202.594 424.037 202.594ZM435.683 194.182V195.716H430.135V194.182H435.683ZM431.656 204V193.044C431.656 192.43 431.791 191.921 432.059 191.516C432.328 191.107 432.683 190.803 433.127 190.602C433.57 190.398 434.051 190.295 434.571 190.295C434.955 190.295 435.283 190.327 435.556 190.391C435.828 190.451 436.031 190.506 436.163 190.558L435.715 192.104C435.626 192.079 435.511 192.049 435.37 192.015C435.23 191.977 435.059 191.957 434.859 191.957C434.394 191.957 434.062 192.072 433.862 192.303C433.666 192.533 433.568 192.865 433.568 193.3V204H431.656ZM437.925 204V194.182H439.837V204H437.925ZM438.891 192.667C438.558 192.667 438.273 192.556 438.034 192.335C437.8 192.109 437.682 191.84 437.682 191.529C437.682 191.214 437.8 190.945 438.034 190.724C438.273 190.498 438.558 190.385 438.891 190.385C439.223 190.385 439.506 190.498 439.741 190.724C439.979 190.945 440.099 191.214 440.099 191.529C440.099 191.84 439.979 192.109 439.741 192.335C439.506 192.556 439.223 192.667 438.891 192.667ZM447.261 194.182V195.716H441.898V194.182H447.261ZM443.336 191.83H445.247V201.117C445.247 201.488 445.303 201.767 445.414 201.955C445.524 202.138 445.667 202.263 445.842 202.332C446.021 202.396 446.215 202.428 446.424 202.428C446.577 202.428 446.711 202.417 446.826 202.396C446.941 202.374 447.031 202.357 447.095 202.344L447.44 203.923C447.329 203.966 447.171 204.009 446.967 204.051C446.762 204.098 446.507 204.124 446.2 204.128C445.697 204.136 445.228 204.047 444.794 203.859C444.359 203.672 444.007 203.382 443.739 202.99C443.47 202.598 443.336 202.106 443.336 201.513V191.83ZM454.832 190.909H457.229L461.397 201.085H461.55L465.718 190.909H468.115V204H466.236V194.527H466.114L462.253 203.981H460.694L456.833 194.521H456.711V204H454.832V190.909ZM473.96 204.217C473.338 204.217 472.776 204.102 472.273 203.872C471.77 203.638 471.371 203.299 471.077 202.856C470.788 202.413 470.643 201.869 470.643 201.226C470.643 200.672 470.749 200.216 470.962 199.858C471.175 199.5 471.463 199.217 471.825 199.008C472.188 198.799 472.592 198.641 473.04 198.535C473.487 198.428 473.943 198.347 474.408 198.292C474.996 198.224 475.473 198.168 475.84 198.126C476.206 198.079 476.472 198.004 476.639 197.902C476.805 197.8 476.888 197.634 476.888 197.403V197.359C476.888 196.8 476.73 196.368 476.415 196.061C476.104 195.754 475.639 195.601 475.021 195.601C474.378 195.601 473.871 195.744 473.5 196.029C473.134 196.31 472.88 196.624 472.739 196.969L470.943 196.56C471.156 195.963 471.467 195.482 471.876 195.115C472.29 194.744 472.765 194.476 473.302 194.31C473.839 194.139 474.403 194.054 474.996 194.054C475.388 194.054 475.803 194.101 476.242 194.195C476.685 194.284 477.099 194.45 477.482 194.693C477.87 194.936 478.188 195.283 478.435 195.735C478.682 196.183 478.805 196.764 478.805 197.48V204H476.939V202.658H476.862C476.739 202.905 476.553 203.148 476.306 203.386C476.059 203.625 475.742 203.823 475.354 203.981C474.966 204.138 474.501 204.217 473.96 204.217ZM474.376 202.683C474.904 202.683 475.356 202.579 475.731 202.37C476.11 202.161 476.398 201.888 476.594 201.552C476.794 201.211 476.894 200.847 476.894 200.459V199.193C476.826 199.261 476.694 199.325 476.498 199.385C476.306 199.44 476.087 199.489 475.84 199.532C475.592 199.57 475.352 199.607 475.117 199.641C474.883 199.67 474.687 199.696 474.529 199.717C474.158 199.764 473.82 199.843 473.513 199.954C473.21 200.065 472.967 200.224 472.784 200.433C472.605 200.638 472.516 200.911 472.516 201.251C472.516 201.724 472.69 202.082 473.04 202.325C473.389 202.564 473.835 202.683 474.376 202.683ZM481.621 204V194.182H483.468V195.741H483.571C483.75 195.213 484.065 194.798 484.517 194.495C484.973 194.188 485.488 194.035 486.064 194.035C486.183 194.035 486.323 194.039 486.485 194.048C486.652 194.056 486.782 194.067 486.875 194.08V195.908C486.799 195.886 486.662 195.863 486.466 195.837C486.27 195.808 486.074 195.793 485.878 195.793C485.426 195.793 485.024 195.888 484.67 196.08C484.321 196.268 484.044 196.53 483.839 196.866C483.635 197.199 483.532 197.578 483.532 198.004V204H481.621ZM492.564 207.867C491.784 207.867 491.113 207.765 490.551 207.56C489.992 207.356 489.536 207.085 489.183 206.749C488.829 206.416 488.565 206.054 488.39 205.662L490.033 204.984C490.148 205.163 490.301 205.357 490.493 205.566C490.689 205.775 490.953 205.954 491.286 206.103C491.622 206.252 492.055 206.327 492.583 206.327C493.308 206.327 493.906 206.152 494.38 205.803C494.853 205.453 495.089 204.899 495.089 204.141V202.21H494.968C494.853 202.419 494.686 202.651 494.469 202.907C494.256 203.163 493.962 203.384 493.587 203.572C493.212 203.759 492.724 203.853 492.123 203.853C491.348 203.853 490.649 203.672 490.027 203.31C489.409 202.943 488.919 202.404 488.556 201.692C488.198 200.977 488.019 200.097 488.019 199.053C488.019 198.009 488.196 197.114 488.55 196.368C488.908 195.622 489.398 195.051 490.02 194.655C490.642 194.254 491.348 194.054 492.136 194.054C492.745 194.054 493.237 194.156 493.612 194.361C493.987 194.561 494.279 194.795 494.488 195.064C494.701 195.332 494.865 195.569 494.98 195.773H495.121V194.182H496.994V204.217C496.994 205.053 496.798 205.739 496.406 206.276C496.014 206.817 495.483 207.217 494.814 207.477C494.149 207.737 493.399 207.867 492.564 207.867ZM492.545 202.268C493.095 202.268 493.559 202.14 493.938 201.884C494.322 201.624 494.612 201.254 494.808 200.772C495.008 200.286 495.108 199.705 495.108 199.027C495.108 198.366 495.01 197.785 494.814 197.282C494.618 196.779 494.331 196.387 493.951 196.106C493.572 195.82 493.103 195.678 492.545 195.678C491.97 195.678 491.49 195.827 491.107 196.125C490.723 196.419 490.433 196.82 490.237 197.327C490.046 197.834 489.95 198.401 489.95 199.027C489.95 199.67 490.048 200.235 490.244 200.721C490.44 201.207 490.73 201.586 491.113 201.859C491.501 202.131 491.978 202.268 492.545 202.268ZM499.827 204V194.182H501.738V204H499.827ZM500.792 192.667C500.46 192.667 500.174 192.556 499.936 192.335C499.701 192.109 499.584 191.84 499.584 191.529C499.584 191.214 499.701 190.945 499.936 190.724C500.174 190.498 500.46 190.385 500.792 190.385C501.125 190.385 501.408 190.498 501.642 190.724C501.881 190.945 502 191.214 502 191.529C502 191.84 501.881 192.109 501.642 192.335C501.408 192.556 501.125 192.667 500.792 192.667ZM506.491 198.17V204H504.579V194.182H506.414V195.78H506.535C506.761 195.26 507.115 194.842 507.597 194.527C508.082 194.212 508.694 194.054 509.431 194.054C510.1 194.054 510.686 194.195 511.189 194.476C511.692 194.753 512.082 195.166 512.359 195.716C512.636 196.266 512.774 196.945 512.774 197.755V204H510.863V197.985C510.863 197.273 510.677 196.717 510.307 196.317C509.936 195.912 509.427 195.71 508.779 195.71C508.336 195.71 507.942 195.805 507.597 195.997C507.256 196.189 506.985 196.47 506.785 196.841C506.589 197.207 506.491 197.651 506.491 198.17Z" fill="white"/>
<path d="M240 87H395V121C395 126.601 395 129.401 393.91 131.54C392.951 133.422 391.422 134.951 389.54 135.91C387.401 137 384.601 137 379 137H256C250.399 137 247.599 137 245.46 135.91C243.578 134.951 242.049 133.422 241.09 131.54C240 129.401 240 126.601 240 121V87Z" fill="#2F1872" fill-opacity="0.2"/>
<path d="M301.129 117H298.879L302.976 105.364H305.578L309.68 117H307.43L304.322 107.75H304.232L301.129 117ZM301.203 112.438H307.339V114.131H301.203V112.438ZM311.562 120.273V108.273H313.585V109.716H313.704C313.81 109.504 313.96 109.278 314.153 109.04C314.346 108.797 314.608 108.591 314.937 108.42C315.267 108.246 315.687 108.159 316.198 108.159C316.873 108.159 317.481 108.331 318.022 108.676C318.568 109.017 319 109.523 319.318 110.193C319.64 110.86 319.801 111.678 319.801 112.648C319.801 113.606 319.644 114.42 319.329 115.091C319.015 115.761 318.587 116.273 318.045 116.625C317.503 116.977 316.89 117.153 316.204 117.153C315.704 117.153 315.289 117.07 314.96 116.903C314.63 116.737 314.365 116.536 314.164 116.301C313.967 116.062 313.814 115.837 313.704 115.625H313.619V120.273H311.562ZM313.579 112.636C313.579 113.201 313.659 113.695 313.818 114.119C313.981 114.544 314.214 114.875 314.517 115.114C314.823 115.348 315.195 115.466 315.63 115.466C316.085 115.466 316.466 115.345 316.772 115.102C317.079 114.856 317.31 114.521 317.466 114.097C317.625 113.669 317.704 113.182 317.704 112.636C317.704 112.095 317.627 111.614 317.471 111.193C317.316 110.773 317.085 110.443 316.778 110.205C316.471 109.966 316.089 109.847 315.63 109.847C315.191 109.847 314.818 109.962 314.511 110.193C314.204 110.424 313.971 110.748 313.812 111.165C313.657 111.581 313.579 112.072 313.579 112.636ZM322.002 117V108.273H323.996V109.727H324.087C324.246 109.223 324.519 108.835 324.906 108.562C325.296 108.286 325.741 108.148 326.241 108.148C326.354 108.148 326.481 108.153 326.621 108.165C326.765 108.172 326.885 108.186 326.979 108.205V110.097C326.892 110.066 326.754 110.04 326.565 110.017C326.379 109.991 326.199 109.977 326.025 109.977C325.65 109.977 325.313 110.059 325.013 110.222C324.718 110.381 324.485 110.602 324.315 110.886C324.144 111.17 324.059 111.498 324.059 111.869V117H322.002ZM328.786 117V108.273H330.843V117H328.786ZM329.82 107.034C329.49 107.034 329.208 106.926 328.973 106.71C328.742 106.491 328.627 106.227 328.627 105.92C328.627 105.61 328.744 105.347 328.979 105.131C329.214 104.911 329.494 104.801 329.82 104.801C330.146 104.801 330.424 104.911 330.655 105.131C330.89 105.347 331.007 105.61 331.007 105.92C331.007 106.227 330.89 106.491 330.655 106.71C330.424 106.926 330.146 107.034 329.82 107.034ZM335.455 105.364V117H333.398V105.364H335.455Z" fill="white"/>
</g>
<defs>
<filter id="filter0_bd" x="103.809" y="-18.191" width="427.582" height="274.622" filterUnits="userSpaceOnUse" color-interpolation-filters="sRGB">
<feFlood flood-opacity="0" result="BackgroundImageFix"/>
<feGaussianBlur in="BackgroundImage" stdDeviation="26.0955"/>
<feComposite in2="SourceAlpha" operator="in" result="effect1_backgroundBlur"/>
<feColorMatrix in="SourceAlpha" type="matrix" values="0 0 0 0 0 0 0 0 0 0 0 0 0 0 0 0 0 0 127 0"/>
<feOffset dy="19"/>
<feGaussianBlur stdDeviation="16"/>
<feColorMatrix type="matrix" values="0 0 0 0 0.238417 0 0 0 0 0.238417 0 0 0 0 0.345021 0 0 0 0.4 0"/>
<feBlend mode="normal" in2="effect1_backgroundBlur" result="effect2_dropShadow"/>
<feBlend mode="normal" in="SourceGraphic" in2="effect2_dropShadow" result="shape"/>
</filter>
<filter id="filter1_bd" x="34.4515" y="-24.5485" width="567.097" height="343.097" filterUnits="userSpaceOnUse" color-interpolation-filters="sRGB">
<feFlood flood-opacity="0" result="BackgroundImageFix"/>
<feGaussianBlur in="BackgroundImage" stdDeviation="40.7742"/>
<feComposite in2="SourceAlpha" operator="in" result="effect1_backgroundBlur"/>
<feColorMatrix in="SourceAlpha" type="matrix" values="0 0 0 0 0 0 0 0 0 0 0 0 0 0 0 0 0 0 127 0"/>
<feOffset dy="30"/>
<feGaussianBlur stdDeviation="25"/>
<feColorMatrix type="matrix" values="0 0 0 0 0.238417 0 0 0 0 0.238417 0 0 0 0 0.345021 0 0 0 0.4 0"/>
<feBlend mode="normal" in2="effect1_backgroundBlur" result="effect2_dropShadow"/>
<feBlend mode="normal" in="SourceGraphic" in2="effect2_dropShadow" result="shape"/>
</filter>
<filter id="filter2_bd" x="-16.5485" y="5.45155" width="668.097" height="473.097" filterUnits="userSpaceOnUse" color-interpolation-filters="sRGB">
<feFlood flood-opacity="0" result="BackgroundImageFix"/>
<feGaussianBlur in="BackgroundImage" stdDeviation="40.7742"/>
<feComposite in2="SourceAlpha" operator="in" result="effect1_backgroundBlur"/>
<feColorMatrix in="SourceAlpha" type="matrix" values="0 0 0 0 0 0 0 0 0 0 0 0 0 0 0 0 0 0 127 0"/>
<feOffset dy="30"/>
<feGaussianBlur stdDeviation="25"/>
<feColorMatrix type="matrix" values="0 0 0 0 0.238417 0 0 0 0 0.238417 0 0 0 0 0.345021 0 0 0 0.4 0"/>
<feBlend mode="normal" in2="effect1_backgroundBlur" result="effect2_dropShadow"/>
<feBlend mode="normal" in="SourceGraphic" in2="effect2_dropShadow" result="shape"/>
</filter>
<linearGradient id="paint0_linear" x1="156" y1="119.12" x2="479.2" y2="119.12" gradientUnits="userSpaceOnUse">
<stop stop-color="#DC73F2"/>
<stop offset="0.450637" stop-color="#C16DFA"/>
<stop offset="1" stop-color="#A976FF"/>
</linearGradient>
<linearGradient id="paint1_linear" x1="124.579" y1="144.243" x2="516.203" y2="144.243" gradientUnits="userSpaceOnUse">
<stop stop-color="#DE78EA"/>
<stop offset="0.765669" stop-color="#AA80FB"/>
<stop offset="1" stop-color="#9A92F3"/>
</linearGradient>
<linearGradient id="paint2_linear" x1="65" y1="242" x2="570" y2="242" gradientUnits="userSpaceOnUse">
<stop stop-color="#FD90EC"/>
<stop offset="0.316334" stop-color="#E5A4FF"/>
<stop offset="0.524403" stop-color="#E5A4FF"/>
<stop offset="0.867864" stop-color="#C1A6FF"/>
<stop offset="1" stop-color="#AEA9FF"/>
</linearGradient>
<clipPath id="clip0">
<rect width="324" height="171" fill="white" transform="translate(156 34)"/>
</clipPath>
<clipPath id="clip1">
<rect width="404" height="180" fill="white" transform="translate(116 57)"/>
</clipPath>
<clipPath id="clip2">
<rect width="505" height="360" fill="white" transform="translate(65 87)"/>
</clipPath>
</defs>
</svg>
